G04 Layer_Color=8388736*
%FSLAX24Y24*%
%MOIN*%
G70*
G01*
G75*
%ADD39R,0.0434X0.0395*%
%ADD40R,0.0828X0.1104*%
%ADD41R,0.1261X0.0474*%
%ADD42R,0.0434X0.0454*%
%ADD43R,0.0237X0.0769*%
%ADD44R,0.0641X0.1064*%
%ADD45R,0.0592X0.1419*%
%ADD46R,0.0395X0.0434*%
%ADD47R,0.0336X0.0513*%
%ADD48C,0.0280*%
%ADD49R,0.0671X0.0671*%
%ADD50C,0.0671*%
%ADD51R,0.0671X0.0671*%
%ADD52C,0.0680*%
%ADD53C,0.2049*%
%ADD54C,0.0552*%
%ADD55R,0.0867X0.0655*%
D39*
X1450Y2824D02*
D03*
Y3376D02*
D03*
X3300Y2024D02*
D03*
Y2576D02*
D03*
X12800Y10276D02*
D03*
Y9724D02*
D03*
X13650Y8474D02*
D03*
Y9026D02*
D03*
X10400Y9976D02*
D03*
Y9424D02*
D03*
X9250Y12274D02*
D03*
Y12826D02*
D03*
X24650Y11526D02*
D03*
Y10974D02*
D03*
D40*
X2654Y3850D02*
D03*
X4346D02*
D03*
D41*
X10472Y663D02*
D03*
Y2237D02*
D03*
X6928Y663D02*
D03*
Y2237D02*
D03*
D42*
X14930Y11800D02*
D03*
X14300D02*
D03*
X14930Y11050D02*
D03*
X14300D02*
D03*
X14930Y12550D02*
D03*
X14300D02*
D03*
D43*
X10988Y11353D02*
D03*
X11244D02*
D03*
X11500D02*
D03*
X11756D02*
D03*
X12012D02*
D03*
D44*
X11126Y12494D02*
D03*
X11874D02*
D03*
D45*
X10427Y12367D02*
D03*
X12573D02*
D03*
D46*
X18976Y2950D02*
D03*
X18424D02*
D03*
X11774Y800D02*
D03*
X12326D02*
D03*
X5124Y12700D02*
D03*
X5676D02*
D03*
D47*
X11126Y10172D02*
D03*
X11874D02*
D03*
Y9228D02*
D03*
X11500D02*
D03*
X11126D02*
D03*
D48*
X8650Y6750D02*
D03*
X7500D02*
D03*
X6300Y6600D02*
D03*
X5200Y7900D02*
D03*
X8050Y12850D02*
D03*
X15300Y12178D02*
D03*
X16500Y12200D02*
D03*
X13850Y10550D02*
D03*
X11150Y8450D02*
D03*
X12800Y9250D02*
D03*
X4400Y8050D02*
D03*
Y5900D02*
D03*
X4707Y7857D02*
D03*
Y5557D02*
D03*
X2000Y6800D02*
D03*
X4078Y7828D02*
D03*
X3750Y7200D02*
D03*
X3150D02*
D03*
X6600Y8500D02*
D03*
X3950Y9650D02*
D03*
X6850Y8800D02*
D03*
X7100Y5550D02*
D03*
X3800Y9350D02*
D03*
X5293Y5207D02*
D03*
X7000Y3950D02*
D03*
X2550Y8100D02*
D03*
X7500Y7650D02*
D03*
X11500Y7900D02*
D03*
X3750Y2400D02*
D03*
X5250Y4263D02*
D03*
X4850Y2700D02*
D03*
X5022Y7472D02*
D03*
X5337Y2663D02*
D03*
X7250Y10450D02*
D03*
X6850Y11750D02*
D03*
D49*
X15700Y2850D02*
D03*
X20950Y10350D02*
D03*
X3250Y12650D02*
D03*
X23450Y12600D02*
D03*
X5600Y1200D02*
D03*
X20650Y1300D02*
D03*
D50*
X14700Y2850D02*
D03*
X13700D02*
D03*
X12700D02*
D03*
X11700D02*
D03*
X8200Y11050D02*
D03*
X9200D02*
D03*
X8200Y10050D02*
D03*
X9200D02*
D03*
X8200Y9050D02*
D03*
Y5900D02*
D03*
X9200D02*
D03*
X8200Y4900D02*
D03*
X9200D02*
D03*
X8200Y3900D02*
D03*
X21950Y10350D02*
D03*
X4250Y12650D02*
D03*
X24450Y12600D02*
D03*
X1250Y11100D02*
D03*
Y10100D02*
D03*
X3600Y1200D02*
D03*
X4600D02*
D03*
X18650Y1300D02*
D03*
X19650D02*
D03*
X10427Y12465D02*
D03*
X12573D02*
D03*
D51*
X9200Y9050D02*
D03*
Y3900D02*
D03*
X1250Y9100D02*
D03*
D52*
X26700Y6450D02*
D03*
X18750Y11800D02*
D03*
X21750D02*
D03*
X750Y4300D02*
D03*
Y7300D02*
D03*
D53*
X25984Y1575D02*
D03*
Y11417D02*
D03*
X1575Y1575D02*
D03*
X13780Y6299D02*
D03*
D54*
X12455Y11272D02*
D03*
X10545D02*
D03*
D55*
X12612D02*
D03*
X10388D02*
D03*
M02*
