G04 Layer_Color=8421504*
%FSLAX24Y24*%
%MOIN*%
G70*
G01*
G75*
%ADD10R,0.0354X0.0315*%
%ADD11R,0.0748X0.1024*%
%ADD12R,0.1181X0.0394*%
%ADD13R,0.0354X0.0374*%
%ADD14R,0.0157X0.0689*%
%ADD15R,0.0561X0.0984*%
%ADD16R,0.0512X0.1339*%
%ADD17R,0.0315X0.0354*%
%ADD18R,0.0256X0.0433*%
D10*
X1450Y2824D02*
D03*
Y3376D02*
D03*
X3300Y2024D02*
D03*
Y2576D02*
D03*
X12800Y10276D02*
D03*
Y9724D02*
D03*
X13650Y8474D02*
D03*
Y9026D02*
D03*
X10400Y9976D02*
D03*
Y9424D02*
D03*
X9250Y12274D02*
D03*
Y12826D02*
D03*
X24650Y11526D02*
D03*
Y10974D02*
D03*
D11*
X2654Y3850D02*
D03*
X4346D02*
D03*
D12*
X10472Y663D02*
D03*
Y2237D02*
D03*
X6928Y663D02*
D03*
Y2237D02*
D03*
D13*
X14930Y11800D02*
D03*
X14300D02*
D03*
X14930Y11050D02*
D03*
X14300D02*
D03*
X14930Y12550D02*
D03*
X14300D02*
D03*
D14*
X10988Y11353D02*
D03*
X11244D02*
D03*
X11500D02*
D03*
X11756D02*
D03*
X12012D02*
D03*
D15*
X11126Y12494D02*
D03*
X11874D02*
D03*
D16*
X10427Y12367D02*
D03*
X12573D02*
D03*
D17*
X18976Y2950D02*
D03*
X18424D02*
D03*
X11774Y800D02*
D03*
X12326D02*
D03*
X5124Y12700D02*
D03*
X5676D02*
D03*
D18*
X11126Y10172D02*
D03*
X11874D02*
D03*
Y9228D02*
D03*
X11500D02*
D03*
X11126D02*
D03*
M02*
