G04 Layer_Color=128*
%FSLAX24Y24*%
%MOIN*%
G70*
G01*
G75*
%ADD10R,0.0354X0.0315*%
%ADD31R,0.1791X0.0906*%
%ADD32O,0.0217X0.0650*%
%ADD33O,0.0650X0.0217*%
D10*
X4400Y2024D02*
D03*
Y2576D02*
D03*
X15300Y11326D02*
D03*
Y10774D02*
D03*
X14550Y11326D02*
D03*
Y10774D02*
D03*
X16050Y11326D02*
D03*
Y10774D02*
D03*
D31*
X23024Y8200D02*
D03*
X25976D02*
D03*
X25976Y4550D02*
D03*
X23024D02*
D03*
D32*
X5652Y11954D02*
D03*
X5337D02*
D03*
X5022D02*
D03*
X4707D02*
D03*
X4393D02*
D03*
X4078D02*
D03*
X3763D02*
D03*
X3448D02*
D03*
Y8646D02*
D03*
X3763D02*
D03*
X4078D02*
D03*
X4393D02*
D03*
X4707D02*
D03*
X5022D02*
D03*
X5337D02*
D03*
X5652D02*
D03*
X3448Y3396D02*
D03*
X3763D02*
D03*
X4078D02*
D03*
X4393D02*
D03*
X4707D02*
D03*
X5022D02*
D03*
X5337D02*
D03*
X5652D02*
D03*
Y6704D02*
D03*
X5337D02*
D03*
X5022D02*
D03*
X4707D02*
D03*
X4393D02*
D03*
X4078D02*
D03*
X3763D02*
D03*
X3448D02*
D03*
D33*
X2896Y11402D02*
D03*
Y11087D02*
D03*
Y10772D02*
D03*
Y10457D02*
D03*
Y10143D02*
D03*
Y9828D02*
D03*
Y9513D02*
D03*
Y9198D02*
D03*
X6204D02*
D03*
Y9513D02*
D03*
Y9828D02*
D03*
Y10143D02*
D03*
Y10457D02*
D03*
Y10772D02*
D03*
Y11087D02*
D03*
Y11402D02*
D03*
X2896Y6152D02*
D03*
Y5837D02*
D03*
Y5522D02*
D03*
Y5207D02*
D03*
Y4893D02*
D03*
Y4578D02*
D03*
Y4263D02*
D03*
Y3948D02*
D03*
X6204D02*
D03*
Y4263D02*
D03*
Y4578D02*
D03*
Y4893D02*
D03*
Y5207D02*
D03*
Y5522D02*
D03*
Y5837D02*
D03*
Y6152D02*
D03*
M02*
