M48
;Layer_Color=9474304
;FILE_FORMAT=2:4
INCH,LZ
;TYPE=PLATED
T1F00S00C0.0130
T2F00S00C0.0300
T3F00S00C0.0354
T4F00S00C0.0413
T5F00S00C0.0472
T6F00S00C0.1260
%
T01
X00375Y0024
X00485Y0027
X005337Y002663
X00525Y004263
X005293Y005207
X004707Y005557
X0044Y0059
X00375Y0072
X00315
X00255Y0081
X004078Y007828
X0044Y00805
X004707Y007857
X0052Y0079
X005022Y007472
X0063Y0066
X0075Y00675
Y00765
X0066Y0085
X00685Y0088
X00725Y01045
X00395Y00965
X0038Y00935
X002Y0068
X0071Y00555
X007Y00395
X00865Y00675
X0115Y0079
X01115Y00845
X0128Y00925
X01385Y01055
X00805Y01285
X00685Y01175
X0153Y012178
X0165Y0122
T02
X0267Y00645
X00075Y0073
Y0043
X01875Y0118
X02175
T03
X0147Y00285
X0157
X01865Y0013
X01965
X02065
X02095Y01035
X02195
X0092Y01005
Y01105
X0082
Y01005
Y00905
X0092
Y0059
X0082
Y0049
X0092
Y0039
X0082
X0117Y00285
X0127
X0137
X0056Y0012
X0046
X0036
X00125Y0091
Y0101
Y0111
X00325Y01265
X00425
X02345Y0126
X02445
T04
X010545Y011272
X012455
T05
X010427Y012465
X012573
T06
X025984Y001575
Y011417
X01378Y006299
X001575Y001575
M30
