G04 Layer_Color=65535*
%FSLAX24Y24*%
%MOIN*%
G70*
G01*
G75*
%ADD20C,0.0100*%
%ADD34C,0.0098*%
%ADD35C,0.0079*%
%ADD36C,0.0070*%
%ADD37C,0.0080*%
%ADD38C,0.0059*%
D20*
X9085Y1450D02*
G03*
X9085Y1450I-385J0D01*
G01*
X350Y10850D02*
G03*
X350Y11350I0J250D01*
G01*
Y11000D02*
G03*
X350Y11200I0J100D01*
G01*
X3352Y3850D02*
Y4391D01*
X3697D01*
Y3850D02*
Y4391D01*
X3352Y3309D02*
X3697D01*
Y3850D01*
X3352Y3309D02*
Y3850D01*
X3106D02*
X3352D01*
X3697D02*
X3894D01*
X2122Y4637D02*
X2220Y4736D01*
X2122Y3063D02*
X2220Y2964D01*
X2122Y3063D02*
Y4637D01*
X2220Y4736D02*
X2713D01*
X2220Y2964D02*
X2713D01*
X4287Y4736D02*
X4780D01*
X4287Y2964D02*
X4780D01*
Y4736D02*
X4878Y4637D01*
X4780Y2964D02*
X4878Y3063D01*
Y4637D01*
X8700Y2090D02*
Y2218D01*
Y633D02*
Y791D01*
X7893Y633D02*
X9507D01*
X7893Y2218D02*
X9507D01*
X9980Y2582D02*
Y2720D01*
X7420Y2730D02*
X9970D01*
X7420Y2631D02*
Y2730D01*
Y190D02*
Y269D01*
X7430Y180D02*
X9980D01*
Y269D01*
Y1056D02*
Y1844D01*
X7420Y1056D02*
Y1844D01*
X200Y11350D02*
X350D01*
X200Y11200D02*
Y11350D01*
Y11200D02*
X350D01*
X200Y11000D02*
X350D01*
X200Y10850D02*
Y11000D01*
Y10850D02*
X350D01*
X500Y10100D02*
X600D01*
X500D02*
Y10300D01*
Y9900D02*
Y10100D01*
X350D02*
Y10200D01*
Y10000D02*
Y10100D01*
X200Y10050D02*
Y10150D01*
X3550Y200D02*
X3650D01*
X3600Y350D02*
X3700D01*
X3500D02*
X3600D01*
Y500D02*
X3800D01*
X3400D02*
X3600D01*
Y600D01*
X18600Y250D02*
X18700D01*
X18650Y400D02*
X18750D01*
X18550D02*
X18650D01*
Y550D02*
X18850D01*
X18450D02*
X18650D01*
Y650D01*
X4750Y150D02*
Y600D01*
X4650Y250D02*
X4750Y150D01*
X4850Y250D01*
X4400Y500D02*
X4500Y600D01*
X4600Y500D01*
X4500Y150D02*
Y600D01*
X19550Y200D02*
Y650D01*
X19650Y550D01*
X19450D02*
X19550Y650D01*
X19800Y200D02*
X19900Y300D01*
X19700D02*
X19800Y200D01*
Y650D01*
X18258Y11160D02*
Y12440D01*
Y11160D02*
X22244D01*
X18258Y12440D02*
X22244D01*
Y11160D02*
Y12440D01*
X19203Y11790D02*
X19715D01*
X20738Y11810D02*
X21220D01*
X20433Y11505D02*
X20738Y11810D01*
X19715Y11790D02*
X20148D01*
X110Y3808D02*
X1390D01*
Y7794D01*
X110Y3808D02*
Y7794D01*
X1390D01*
X760Y4753D02*
Y5265D01*
X740Y6288D02*
Y6770D01*
Y6288D02*
X1045Y5983D01*
X760Y5265D02*
Y5698D01*
X22900Y10900D02*
Y10300D01*
X23200D01*
X23300Y10400D01*
Y10500D01*
X23200Y10600D01*
X22900D01*
X23200D01*
X23300Y10700D01*
Y10800D01*
X23200Y10900D01*
X22900D01*
X23500D02*
X23900D01*
X23700D01*
Y10300D01*
X24100D02*
X24300D01*
X24200D01*
Y10900D01*
X24100Y10800D01*
X17400Y10450D02*
Y11050D01*
X17700D01*
X17800Y10950D01*
Y10750D01*
X17700Y10650D01*
X17400D01*
X18100Y10450D02*
X18300D01*
X18400Y10550D01*
Y10750D01*
X18300Y10850D01*
X18100D01*
X18000Y10750D01*
Y10550D01*
X18100Y10450D01*
X18600Y10850D02*
Y10550D01*
X18700Y10450D01*
X18800Y10550D01*
X18900Y10450D01*
X18999Y10550D01*
Y10850D01*
X19499Y10450D02*
X19299D01*
X19199Y10550D01*
Y10750D01*
X19299Y10850D01*
X19499D01*
X19599Y10750D01*
Y10650D01*
X19199D01*
X19799Y10850D02*
Y10450D01*
Y10650D01*
X19899Y10750D01*
X19999Y10850D01*
X20099D01*
D34*
X13975Y11800D02*
G03*
X13975Y11800I-49J0D01*
G01*
Y11050D02*
G03*
X13975Y11050I-49J0D01*
G01*
X10831Y9228D02*
G03*
X10831Y9228I-49J0D01*
G01*
X13975Y12550D02*
G03*
X13975Y12550I-49J0D01*
G01*
D35*
X11200Y2350D02*
Y3350D01*
X16200D01*
X11200Y2350D02*
X16200D01*
Y3350D01*
X9700Y9633D02*
Y11550D01*
Y8550D02*
Y11550D01*
X7700Y8550D02*
Y11550D01*
Y8550D02*
X9700D01*
X7700Y11550D02*
X9700D01*
Y4483D02*
Y6400D01*
Y3400D02*
Y6400D01*
X7700Y3400D02*
Y6400D01*
Y3400D02*
X9700D01*
X7700Y6400D02*
X9700D01*
X22450Y9850D02*
Y10850D01*
X20450Y9850D02*
X22450D01*
X20450D02*
Y10850D01*
X22450D01*
X2750Y13150D02*
X4750D01*
X2750Y12150D02*
Y13150D01*
Y12150D02*
X4750D01*
Y13150D01*
X22950Y13100D02*
X24950D01*
X22950Y12100D02*
Y13100D01*
Y12100D02*
X24950D01*
Y13100D01*
X750Y8600D02*
X1750D01*
X750D02*
Y11600D01*
X1750D01*
Y8600D02*
Y11600D01*
X6100Y700D02*
Y1700D01*
X3100Y700D02*
X6100D01*
X3100D02*
Y1700D01*
X6100D01*
X21150Y800D02*
Y1800D01*
X18150Y800D02*
X21150D01*
X18150D02*
Y1800D01*
X21150D01*
X10890Y9798D02*
X12110D01*
X10890Y9602D02*
X12110D01*
Y9798D01*
X10890Y9602D02*
Y9798D01*
D36*
X600Y3300D02*
X550Y3350D01*
X450D01*
X400Y3300D01*
Y3100D01*
X450Y3050D01*
X550D01*
X600Y3100D01*
X900Y3350D02*
X800Y3300D01*
X700Y3200D01*
Y3100D01*
X750Y3050D01*
X850D01*
X900Y3100D01*
Y3150D01*
X850Y3200D01*
X700D01*
X3750Y2850D02*
X3700Y2900D01*
X3600D01*
X3550Y2850D01*
Y2650D01*
X3600Y2600D01*
X3700D01*
X3750Y2650D01*
X4050Y2900D02*
X3850D01*
Y2750D01*
X3950Y2800D01*
X4000D01*
X4050Y2750D01*
Y2650D01*
X4000Y2600D01*
X3900D01*
X3850Y2650D01*
X2140Y5360D02*
Y5310D01*
X2240Y5210D01*
X2340Y5310D01*
Y5360D01*
X2240Y5210D02*
Y5060D01*
X2440D02*
X2540D01*
X2490D01*
Y5360D01*
X2440Y5310D01*
X13400Y2100D02*
X13300D01*
X13250Y2050D01*
Y1850D01*
X13300Y1800D01*
X13400D01*
X13450Y1850D01*
Y2050D01*
X13400Y2100D01*
X13550D02*
Y1800D01*
X13750D01*
X14050Y2100D02*
X13850D01*
Y1800D01*
X14050D01*
X13850Y1950D02*
X13950D01*
X14150Y2100D02*
Y1800D01*
X14300D01*
X14350Y1850D01*
Y2050D01*
X14300Y2100D01*
X14150D01*
X7750Y7550D02*
Y7750D01*
X7850Y7850D01*
X7950Y7750D01*
Y7550D01*
Y7700D01*
X7750D01*
X8050Y7850D02*
Y7650D01*
X8150Y7550D01*
X8250Y7650D01*
Y7850D01*
X8350Y7550D02*
Y7850D01*
X8500D01*
X8550Y7800D01*
Y7700D01*
X8500Y7650D01*
X8350D01*
X8450D02*
X8550Y7550D01*
X8650Y7850D02*
X8750D01*
X8700D01*
Y7550D01*
X8650D01*
X8750D01*
X9100Y7800D02*
X9050Y7850D01*
X8950D01*
X8900Y7800D01*
Y7750D01*
X8950Y7700D01*
X9050D01*
X9100Y7650D01*
Y7600D01*
X9050Y7550D01*
X8950D01*
X8900Y7600D01*
X9200Y7550D02*
Y7850D01*
X9349D01*
X9399Y7800D01*
Y7700D01*
X9349Y7650D01*
X9200D01*
X9499Y7550D02*
X9599D01*
X9549D01*
Y7850D01*
X9499Y7800D01*
X7750Y7000D02*
Y7200D01*
X7850Y7300D01*
X7950Y7200D01*
Y7000D01*
Y7150D01*
X7750D01*
X8050Y7300D02*
Y7100D01*
X8150Y7000D01*
X8250Y7100D01*
Y7300D01*
X8350Y7000D02*
Y7300D01*
X8500D01*
X8550Y7250D01*
Y7150D01*
X8500Y7100D01*
X8350D01*
X8450D02*
X8550Y7000D01*
X8650Y7300D02*
X8750D01*
X8700D01*
Y7000D01*
X8650D01*
X8750D01*
X9100Y7250D02*
X9050Y7300D01*
X8950D01*
X8900Y7250D01*
Y7200D01*
X8950Y7150D01*
X9050D01*
X9100Y7100D01*
Y7050D01*
X9050Y7000D01*
X8950D01*
X8900Y7050D01*
X9200Y7000D02*
Y7300D01*
X9349D01*
X9399Y7250D01*
Y7150D01*
X9349Y7100D01*
X9200D01*
X9699Y7000D02*
X9499D01*
X9699Y7200D01*
Y7250D01*
X9649Y7300D01*
X9549D01*
X9499Y7250D01*
X13350Y10400D02*
X13300Y10450D01*
X13200D01*
X13150Y10400D01*
Y10200D01*
X13200Y10150D01*
X13300D01*
X13350Y10200D01*
X13450Y10150D02*
X13550D01*
X13500D01*
Y10450D01*
X13450Y10400D01*
X14200Y9150D02*
X14150Y9200D01*
X14050D01*
X14000Y9150D01*
Y8950D01*
X14050Y8900D01*
X14150D01*
X14200Y8950D01*
X14500Y8900D02*
X14300D01*
X14500Y9100D01*
Y9150D01*
X14450Y9200D01*
X14350D01*
X14300Y9150D01*
X15615Y11900D02*
X15565Y11950D01*
X15465D01*
X15415Y11900D01*
Y11700D01*
X15465Y11650D01*
X15565D01*
X15615Y11700D01*
X15715Y11950D02*
Y11650D01*
Y11800D01*
X15765Y11850D01*
X15865D01*
X15915Y11800D01*
Y11650D01*
X16065Y11850D02*
X16165D01*
X16215Y11800D01*
Y11650D01*
X16065D01*
X16015Y11700D01*
X16065Y11750D01*
X16215D01*
X16315Y11850D02*
Y11650D01*
Y11750D01*
X16365Y11800D01*
X16415Y11850D01*
X16465D01*
X16715Y11550D02*
X16765D01*
X16815Y11600D01*
Y11850D01*
X16665D01*
X16615Y11800D01*
Y11700D01*
X16665Y11650D01*
X16815D01*
X16914D02*
X17014D01*
X16964D01*
Y11850D01*
X16914D01*
X17164Y11650D02*
Y11850D01*
X17314D01*
X17364Y11800D01*
Y11650D01*
X17564Y11550D02*
X17614D01*
X17664Y11600D01*
Y11850D01*
X17514D01*
X17464Y11800D01*
Y11700D01*
X17514Y11650D01*
X17664D01*
X15415Y10900D02*
Y11200D01*
X15565D01*
X15615Y11150D01*
Y11050D01*
X15565Y11000D01*
X15415D01*
X15765Y10900D02*
X15865D01*
X15915Y10950D01*
Y11050D01*
X15865Y11100D01*
X15765D01*
X15715Y11050D01*
Y10950D01*
X15765Y10900D01*
X16015Y11100D02*
Y10950D01*
X16065Y10900D01*
X16115Y10950D01*
X16165Y10900D01*
X16215Y10950D01*
Y11100D01*
X16465Y10900D02*
X16365D01*
X16315Y10950D01*
Y11050D01*
X16365Y11100D01*
X16465D01*
X16515Y11050D01*
Y11000D01*
X16315D01*
X16615Y11100D02*
Y10900D01*
Y11000D01*
X16665Y11050D01*
X16715Y11100D01*
X16765D01*
X2250Y10700D02*
X2300Y10750D01*
Y10850D01*
X2250Y10900D01*
X2200D01*
X2150Y10850D01*
Y10750D01*
X2100Y10700D01*
X2050D01*
X2000Y10750D01*
Y10850D01*
X2050Y10900D01*
X2250Y10400D02*
X2300Y10450D01*
Y10550D01*
X2250Y10600D01*
X2200D01*
X2150Y10550D01*
Y10450D01*
X2100Y10400D01*
X2050D01*
X2000Y10450D01*
Y10550D01*
X2050Y10600D01*
X2000Y10150D02*
X2300D01*
X2150Y10300D01*
Y10100D01*
X2300Y9800D02*
Y10000D01*
X2150D01*
X2200Y9900D01*
Y9850D01*
X2150Y9800D01*
X2050D01*
X2000Y9850D01*
Y9950D01*
X2050Y10000D01*
X2000Y9700D02*
Y9600D01*
Y9650D01*
X2300D01*
X2250Y9700D01*
X2000Y9450D02*
X2200D01*
X2300Y9351D01*
X2200Y9251D01*
X2000D01*
X2150D01*
Y9450D01*
X3650Y1850D02*
Y2150D01*
X3850Y1850D01*
Y2150D01*
X4150D02*
X3950D01*
Y1850D01*
X4150D01*
X3950Y2000D02*
X4050D01*
X4400Y2150D02*
X4300D01*
X4250Y2100D01*
Y1900D01*
X4300Y1850D01*
X4400D01*
X4450Y1900D01*
Y2100D01*
X4400Y2150D01*
X4550Y1850D02*
Y2150D01*
X4700D01*
X4750Y2100D01*
Y2000D01*
X4700Y1950D01*
X4550D01*
X4850Y2150D02*
X4950D01*
X4900D01*
Y1850D01*
X4850D01*
X4950D01*
X5100Y2150D02*
X5299Y1850D01*
Y2150D02*
X5100Y1850D01*
X5599Y2150D02*
X5399D01*
Y1850D01*
X5599D01*
X5399Y2000D02*
X5499D01*
X5699Y2150D02*
Y1850D01*
X5899D01*
X6199Y2100D02*
X6149Y2150D01*
X6049D01*
X5999Y2100D01*
Y2050D01*
X6049Y2000D01*
X6149D01*
X6199Y1950D01*
Y1900D01*
X6149Y1850D01*
X6049D01*
X5999Y1900D01*
X18450Y1950D02*
Y2250D01*
X18650Y1950D01*
Y2250D01*
X18950D02*
X18750D01*
Y1950D01*
X18950D01*
X18750Y2100D02*
X18850D01*
X19200Y2250D02*
X19100D01*
X19050Y2200D01*
Y2000D01*
X19100Y1950D01*
X19200D01*
X19250Y2000D01*
Y2200D01*
X19200Y2250D01*
X19350Y1950D02*
Y2250D01*
X19500D01*
X19550Y2200D01*
Y2100D01*
X19500Y2050D01*
X19350D01*
X19650Y2250D02*
X19750D01*
X19700D01*
Y1950D01*
X19650D01*
X19750D01*
X19900Y2250D02*
X20099Y1950D01*
Y2250D02*
X19900Y1950D01*
X20399Y2250D02*
X20199D01*
Y1950D01*
X20399D01*
X20199Y2100D02*
X20299D01*
X20499Y2250D02*
Y1950D01*
X20699D01*
X20999Y2200D02*
X20949Y2250D01*
X20849D01*
X20799Y2200D01*
Y2150D01*
X20849Y2100D01*
X20949D01*
X20999Y2050D01*
Y2000D01*
X20949Y1950D01*
X20849D01*
X20799Y2000D01*
X10200Y8750D02*
Y9050D01*
X10350D01*
X10400Y9000D01*
Y8900D01*
X10350Y8850D01*
X10200D01*
X10300D02*
X10400Y8750D01*
X10500D02*
X10600D01*
X10550D01*
Y9050D01*
X10500Y9000D01*
X18280Y3460D02*
Y3760D01*
X18430D01*
X18480Y3710D01*
Y3610D01*
X18430Y3560D01*
X18280D01*
X18380D02*
X18480Y3460D01*
X18780Y3760D02*
X18580D01*
Y3610D01*
X18680Y3660D01*
X18730D01*
X18780Y3610D01*
Y3510D01*
X18730Y3460D01*
X18630D01*
X18580Y3510D01*
X8300Y12550D02*
Y12850D01*
X8450D01*
X8500Y12800D01*
Y12700D01*
X8450Y12650D01*
X8300D01*
X8400D02*
X8500Y12550D01*
X8800Y12850D02*
X8700Y12800D01*
X8600Y12700D01*
Y12600D01*
X8650Y12550D01*
X8750D01*
X8800Y12600D01*
Y12650D01*
X8750Y12700D01*
X8600D01*
X10200Y10700D02*
Y10450D01*
X10250Y10400D01*
X10350D01*
X10400Y10450D01*
Y10700D01*
X10500Y10400D02*
X10600D01*
X10550D01*
Y10700D01*
X10500Y10650D01*
X15415Y12700D02*
Y12450D01*
X15465Y12400D01*
X15565D01*
X15615Y12450D01*
Y12700D01*
X15915Y12650D02*
X15865Y12700D01*
X15765D01*
X15715Y12650D01*
Y12600D01*
X15765Y12550D01*
X15865D01*
X15915Y12500D01*
Y12450D01*
X15865Y12400D01*
X15765D01*
X15715Y12450D01*
X16015Y12700D02*
Y12400D01*
X16165D01*
X16215Y12450D01*
Y12500D01*
X16165Y12550D01*
X16015D01*
X16165D01*
X16215Y12600D01*
Y12650D01*
X16165Y12700D01*
X16015D01*
X9700Y2900D02*
Y3200D01*
X9800Y3100D01*
X9900Y3200D01*
Y2900D01*
X10050D02*
X10150D01*
X10200Y2950D01*
Y3050D01*
X10150Y3100D01*
X10050D01*
X10000Y3050D01*
Y2950D01*
X10050Y2900D01*
X10500Y3200D02*
Y2900D01*
X10350D01*
X10300Y2950D01*
Y3050D01*
X10350Y3100D01*
X10500D01*
X10750Y2900D02*
X10650D01*
X10600Y2950D01*
Y3050D01*
X10650Y3100D01*
X10750D01*
X10800Y3050D01*
Y3000D01*
X10600D01*
X11750Y150D02*
Y450D01*
X11900D01*
X11950Y400D01*
Y300D01*
X11900Y250D01*
X11750D01*
X11850D02*
X11950Y150D01*
X12050Y400D02*
X12100Y450D01*
X12200D01*
X12250Y400D01*
Y350D01*
X12200Y300D01*
X12250Y250D01*
Y200D01*
X12200Y150D01*
X12100D01*
X12050Y200D01*
Y250D01*
X12100Y300D01*
X12050Y350D01*
Y400D01*
X12100Y300D02*
X12200D01*
X2150Y13000D02*
Y12700D01*
X2350D01*
X2450D02*
X2550D01*
X2500D01*
Y13000D01*
X2450Y12950D01*
X25200Y12950D02*
Y12650D01*
X25400D01*
X25700D02*
X25500D01*
X25700Y12850D01*
Y12900D01*
X25650Y12950D01*
X25550D01*
X25500Y12900D01*
X6050Y12600D02*
Y12900D01*
X6200D01*
X6250Y12850D01*
Y12750D01*
X6200Y12700D01*
X6050D01*
X6150D02*
X6250Y12600D01*
X6350Y12650D02*
X6400Y12600D01*
X6500D01*
X6550Y12650D01*
Y12850D01*
X6500Y12900D01*
X6400D01*
X6350Y12850D01*
Y12800D01*
X6400Y12750D01*
X6550D01*
X24500Y10350D02*
Y10650D01*
X24650D01*
X24700Y10600D01*
Y10500D01*
X24650Y10450D01*
X24500D01*
X24600D02*
X24700Y10350D01*
X24800D02*
X24900D01*
X24850D01*
Y10650D01*
X24800Y10600D01*
X25050D02*
X25100Y10650D01*
X25200D01*
X25250Y10600D01*
Y10400D01*
X25200Y10350D01*
X25100D01*
X25050Y10400D01*
Y10600D01*
X1900Y7250D02*
X1600D01*
X1750D01*
Y7050D01*
X1900D01*
X1600D01*
Y6800D02*
Y6900D01*
X1650Y6950D01*
X1750D01*
X1800Y6900D01*
Y6800D01*
X1750Y6750D01*
X1700D01*
Y6950D01*
X1800Y6600D02*
Y6500D01*
X1750Y6450D01*
X1600D01*
Y6600D01*
X1650Y6650D01*
X1700Y6600D01*
Y6450D01*
X1900Y6150D02*
X1600D01*
Y6300D01*
X1650Y6350D01*
X1750D01*
X1800Y6300D01*
Y6150D01*
X1600Y6050D02*
Y5950D01*
Y6000D01*
X1900D01*
Y6050D01*
X1600Y5800D02*
Y5701D01*
Y5750D01*
X1800D01*
Y5800D01*
X1500Y5451D02*
Y5401D01*
X1550Y5351D01*
X1800D01*
Y5501D01*
X1750Y5551D01*
X1650D01*
X1600Y5501D01*
Y5351D01*
X1900Y5251D02*
X1600D01*
X1750D01*
X1800Y5201D01*
Y5101D01*
X1750Y5051D01*
X1600D01*
X1850Y4901D02*
X1800D01*
Y4951D01*
Y4851D01*
Y4901D01*
X1650D01*
X1600Y4851D01*
Y4701D02*
Y4551D01*
X1650Y4501D01*
X1700Y4551D01*
Y4651D01*
X1750Y4701D01*
X1800Y4651D01*
Y4501D01*
X500Y9500D02*
X550Y9450D01*
Y9350D01*
X500Y9300D01*
X450D01*
X400Y9350D01*
Y9400D01*
Y9350D01*
X350Y9300D01*
X300D01*
X250Y9350D01*
Y9450D01*
X300Y9500D01*
X550Y9200D02*
X350D01*
X250Y9100D01*
X350Y9000D01*
X550D01*
Y8900D02*
Y8700D01*
X500D01*
X300Y8900D01*
X250D01*
X5200Y500D02*
X5250Y550D01*
X5350D01*
X5400Y500D01*
Y450D01*
X5350Y400D01*
X5300D01*
X5350D01*
X5400Y350D01*
Y300D01*
X5350Y250D01*
X5250D01*
X5200Y300D01*
X5500Y550D02*
Y350D01*
X5600Y250D01*
X5700Y350D01*
Y550D01*
X5800D02*
X6000D01*
Y500D01*
X5800Y300D01*
Y250D01*
X20300Y600D02*
X20350Y650D01*
X20450D01*
X20500Y600D01*
Y550D01*
X20450Y500D01*
X20400D01*
X20450D01*
X20500Y450D01*
Y400D01*
X20450Y350D01*
X20350D01*
X20300Y400D01*
X20600Y650D02*
Y450D01*
X20700Y350D01*
X20800Y450D01*
Y650D01*
X20900D02*
X21100D01*
Y600D01*
X20900Y400D01*
Y350D01*
D37*
X9400Y8250D02*
Y8417D01*
Y8333D01*
X8900D01*
X8983Y8250D01*
X8400Y8383D02*
Y8050D01*
X8067Y8383D01*
X7983D01*
X7900Y8300D01*
Y8133D01*
X7983Y8050D01*
X8900Y11983D02*
Y11650D01*
X9150D01*
X9067Y11817D01*
Y11900D01*
X9150Y11983D01*
X9317D01*
X9400Y11900D01*
Y11733D01*
X9317Y11650D01*
X7900Y11983D02*
X7983Y11817D01*
X8150Y11650D01*
X8317D01*
X8400Y11733D01*
Y11900D01*
X8317Y11983D01*
X8233D01*
X8150Y11900D01*
Y11650D01*
X9400Y3100D02*
Y3267D01*
Y3183D01*
X8900D01*
X8983Y3100D01*
X8400Y3233D02*
Y2900D01*
X8067Y3233D01*
X7983D01*
X7900Y3150D01*
Y2983D01*
X7983Y2900D01*
X8900Y6833D02*
Y6500D01*
X9150D01*
X9067Y6667D01*
Y6750D01*
X9150Y6833D01*
X9317D01*
X9400Y6750D01*
Y6583D01*
X9317Y6500D01*
X7900Y6833D02*
X7983Y6667D01*
X8150Y6500D01*
X8317D01*
X8400Y6583D01*
Y6750D01*
X8317Y6833D01*
X8233D01*
X8150Y6750D01*
Y6500D01*
D38*
X20005Y10349D02*
X20307D01*
X20156Y10500D02*
Y10198D01*
M02*
