G04 Layer_Color=16711935*
%FSLAX24Y24*%
%MOIN*%
G70*
G01*
G75*
%ADD39R,0.0434X0.0395*%
%ADD48C,0.0280*%
%ADD49R,0.0671X0.0671*%
%ADD50C,0.0671*%
%ADD51R,0.0671X0.0671*%
%ADD52C,0.0680*%
%ADD53C,0.2049*%
%ADD54C,0.0552*%
%ADD55R,0.0867X0.0655*%
%ADD56R,0.1871X0.0986*%
%ADD57O,0.0297X0.0730*%
%ADD58O,0.0730X0.0297*%
D39*
X4400Y2024D02*
D03*
Y2576D02*
D03*
X15300Y11326D02*
D03*
Y10774D02*
D03*
X14550Y11326D02*
D03*
Y10774D02*
D03*
X16050Y11326D02*
D03*
Y10774D02*
D03*
D48*
X8650Y6750D02*
D03*
X7500D02*
D03*
X6300Y6600D02*
D03*
X5200Y7900D02*
D03*
X8050Y12850D02*
D03*
X15300Y12178D02*
D03*
X16500Y12200D02*
D03*
X13850Y10550D02*
D03*
X11150Y8450D02*
D03*
X12800Y9250D02*
D03*
X4400Y8050D02*
D03*
Y5900D02*
D03*
X4707Y7857D02*
D03*
Y5557D02*
D03*
X2000Y6800D02*
D03*
X4078Y7828D02*
D03*
X3750Y7200D02*
D03*
X3150D02*
D03*
X6600Y8500D02*
D03*
X3950Y9650D02*
D03*
X6850Y8800D02*
D03*
X7100Y5550D02*
D03*
X3800Y9350D02*
D03*
X5293Y5207D02*
D03*
X7000Y3950D02*
D03*
X2550Y8100D02*
D03*
X7500Y7650D02*
D03*
X11500Y7900D02*
D03*
X3750Y2400D02*
D03*
X5250Y4263D02*
D03*
X4850Y2700D02*
D03*
X5022Y7472D02*
D03*
X5337Y2663D02*
D03*
X7250Y10450D02*
D03*
X6850Y11750D02*
D03*
D49*
X15700Y2850D02*
D03*
X20950Y10350D02*
D03*
X3250Y12650D02*
D03*
X23450Y12600D02*
D03*
X5600Y1200D02*
D03*
X20650Y1300D02*
D03*
D50*
X14700Y2850D02*
D03*
X13700D02*
D03*
X12700D02*
D03*
X11700D02*
D03*
X8200Y11050D02*
D03*
X9200D02*
D03*
X8200Y10050D02*
D03*
X9200D02*
D03*
X8200Y9050D02*
D03*
Y5900D02*
D03*
X9200D02*
D03*
X8200Y4900D02*
D03*
X9200D02*
D03*
X8200Y3900D02*
D03*
X21950Y10350D02*
D03*
X4250Y12650D02*
D03*
X24450Y12600D02*
D03*
X1250Y11100D02*
D03*
Y10100D02*
D03*
X3600Y1200D02*
D03*
X4600D02*
D03*
X18650Y1300D02*
D03*
X19650D02*
D03*
X10427Y12465D02*
D03*
X12573D02*
D03*
D51*
X9200Y9050D02*
D03*
Y3900D02*
D03*
X1250Y9100D02*
D03*
D52*
X26700Y6450D02*
D03*
X18750Y11800D02*
D03*
X21750D02*
D03*
X750Y4300D02*
D03*
Y7300D02*
D03*
D53*
X25984Y1575D02*
D03*
Y11417D02*
D03*
X1575Y1575D02*
D03*
X13780Y6299D02*
D03*
D54*
X12455Y11272D02*
D03*
X10545D02*
D03*
D55*
X12612D02*
D03*
X10388D02*
D03*
D56*
X23024Y8200D02*
D03*
X25976D02*
D03*
X25976Y4550D02*
D03*
X23024D02*
D03*
D57*
X5652Y11954D02*
D03*
X5337D02*
D03*
X5022D02*
D03*
X4707D02*
D03*
X4393D02*
D03*
X4078D02*
D03*
X3763D02*
D03*
X3448D02*
D03*
Y8646D02*
D03*
X3763D02*
D03*
X4078D02*
D03*
X4393D02*
D03*
X4707D02*
D03*
X5022D02*
D03*
X5337D02*
D03*
X5652D02*
D03*
X3448Y3396D02*
D03*
X3763D02*
D03*
X4078D02*
D03*
X4393D02*
D03*
X4707D02*
D03*
X5022D02*
D03*
X5337D02*
D03*
X5652D02*
D03*
Y6704D02*
D03*
X5337D02*
D03*
X5022D02*
D03*
X4707D02*
D03*
X4393D02*
D03*
X4078D02*
D03*
X3763D02*
D03*
X3448D02*
D03*
D58*
X2896Y11402D02*
D03*
Y11087D02*
D03*
Y10772D02*
D03*
Y10457D02*
D03*
Y10143D02*
D03*
Y9828D02*
D03*
Y9513D02*
D03*
Y9198D02*
D03*
X6204D02*
D03*
Y9513D02*
D03*
Y9828D02*
D03*
Y10143D02*
D03*
Y10457D02*
D03*
Y10772D02*
D03*
Y11087D02*
D03*
Y11402D02*
D03*
X2896Y6152D02*
D03*
Y5837D02*
D03*
Y5522D02*
D03*
Y5207D02*
D03*
Y4893D02*
D03*
Y4578D02*
D03*
Y4263D02*
D03*
Y3948D02*
D03*
X6204D02*
D03*
Y4263D02*
D03*
Y4578D02*
D03*
Y4893D02*
D03*
Y5207D02*
D03*
Y5522D02*
D03*
Y5837D02*
D03*
Y6152D02*
D03*
M02*
