G04 Layer_Physical_Order=1*
G04 Layer_Color=255*
%FSLAX24Y24*%
%MOIN*%
G70*
G01*
G75*
%ADD10R,0.0354X0.0315*%
%ADD11R,0.0748X0.1024*%
%ADD12R,0.1181X0.0394*%
%ADD13R,0.0354X0.0374*%
%ADD14R,0.0157X0.0689*%
%ADD15R,0.0561X0.0984*%
%ADD16R,0.0512X0.1339*%
%ADD17R,0.0315X0.0354*%
%ADD18R,0.0256X0.0433*%
%ADD19C,0.0140*%
%ADD20C,0.0100*%
%ADD21C,0.0280*%
%ADD22C,0.0200*%
%ADD23C,0.0200*%
%ADD24R,0.0591X0.0591*%
%ADD25C,0.0591*%
%ADD26R,0.0591X0.0591*%
%ADD27C,0.0600*%
%ADD28C,0.1969*%
%ADD29C,0.0472*%
%ADD30R,0.0787X0.0575*%
G36*
X7910Y12947D02*
X7890Y12916D01*
X7877Y12850D01*
Y12622D01*
X7057Y11802D01*
X7035Y11809D01*
X7006Y11822D01*
X6973Y11873D01*
X6023Y12823D01*
X5966Y12860D01*
X5900Y12873D01*
X5893D01*
Y12937D01*
X5458D01*
Y12463D01*
X5892D01*
X6238Y12117D01*
X6214Y12071D01*
X6200Y12073D01*
X4072D01*
X3605Y12540D01*
Y12997D01*
X4037D01*
X4054Y12947D01*
X3997Y12903D01*
X3940Y12829D01*
X3904Y12743D01*
X3892Y12650D01*
X3904Y12557D01*
X3940Y12471D01*
X3997Y12397D01*
X4071Y12340D01*
X4157Y12304D01*
X4250Y12292D01*
X4343Y12304D01*
X4429Y12340D01*
X4503Y12397D01*
X4560Y12471D01*
X4563Y12477D01*
X4907D01*
Y12463D01*
X5342D01*
Y12937D01*
X4907D01*
Y12823D01*
X4563D01*
X4560Y12829D01*
X4503Y12903D01*
X4446Y12947D01*
X4463Y12997D01*
X7884D01*
X7910Y12947D01*
D02*
G37*
G36*
X11533Y11942D02*
X12215D01*
Y11942D01*
X12257Y11924D01*
X12257Y11637D01*
X12214Y11619D01*
X12159D01*
X12151Y11666D01*
Y11757D01*
X10849D01*
Y11666D01*
X10841Y11619D01*
X10786D01*
X10743Y11637D01*
X10743Y11669D01*
Y11924D01*
X10785Y11942D01*
Y11942D01*
X11466D01*
Y12997D01*
X11533D01*
Y11942D01*
D02*
G37*
G36*
X26213Y13021D02*
X26437Y12968D01*
X26649Y12880D01*
X26845Y12760D01*
X27020Y12611D01*
X27169Y12436D01*
X27289Y12240D01*
X27377Y12028D01*
X27431Y11804D01*
X27441Y11669D01*
X27418Y11634D01*
X27406Y11575D01*
Y1575D01*
X27418Y1516D01*
X27441Y1481D01*
X27431Y1346D01*
X27377Y1122D01*
X27289Y910D01*
X27169Y714D01*
X27020Y539D01*
X26845Y390D01*
X26649Y270D01*
X26437Y182D01*
X26213Y129D01*
X26078Y118D01*
X26043Y141D01*
X25984Y153D01*
X1575D01*
X1516Y141D01*
X1481Y118D01*
X1346Y129D01*
X1122Y182D01*
X910Y270D01*
X714Y390D01*
X539Y539D01*
X390Y714D01*
X270Y910D01*
X182Y1122D01*
X129Y1346D01*
X118Y1481D01*
X141Y1516D01*
X153Y1575D01*
Y11575D01*
X141Y11634D01*
X118Y11669D01*
X129Y11804D01*
X182Y12028D01*
X270Y12240D01*
X390Y12436D01*
X539Y12611D01*
X714Y12760D01*
X910Y12880D01*
X1122Y12968D01*
X1346Y13021D01*
X1481Y13032D01*
X1516Y13009D01*
X1575Y12997D01*
X2895D01*
Y12823D01*
X1500D01*
X1434Y12810D01*
X1377Y12773D01*
X327Y11723D01*
X290Y11666D01*
X277Y11600D01*
Y7600D01*
X290Y7534D01*
X327Y7477D01*
X403Y7402D01*
X399Y7394D01*
X387Y7300D01*
X399Y7206D01*
X436Y7118D01*
X493Y7043D01*
X568Y6986D01*
X656Y6949D01*
X750Y6937D01*
X844Y6949D01*
X932Y6986D01*
X1007Y7043D01*
X1064Y7118D01*
X1101Y7206D01*
X1113Y7300D01*
X1101Y7394D01*
X1064Y7482D01*
X1007Y7557D01*
X932Y7614D01*
X844Y7651D01*
X750Y7663D01*
X665Y7652D01*
X632Y7678D01*
X623Y7688D01*
Y11528D01*
X1572Y12477D01*
X2895D01*
Y12295D01*
X3360D01*
X3877Y11777D01*
X3934Y11740D01*
X4000Y11727D01*
X6128D01*
X6677Y11177D01*
X6734Y11140D01*
X6800Y11127D01*
X6866Y11140D01*
X6923Y11177D01*
X8173Y12427D01*
X8210Y12484D01*
X8223Y12550D01*
Y12850D01*
X8210Y12916D01*
X8190Y12947D01*
X8216Y12997D01*
X8973D01*
Y12876D01*
X9527D01*
Y12997D01*
X10111D01*
Y12631D01*
X10081Y12558D01*
X10069Y12465D01*
X10081Y12372D01*
X10111Y12299D01*
Y11669D01*
X10111Y11637D01*
X10069Y11619D01*
X9934D01*
Y10925D01*
X10815D01*
Y10812D01*
X10828Y10745D01*
X10866Y10689D01*
X10989Y10566D01*
X10964Y10520D01*
X10948Y10523D01*
X10600D01*
X10534Y10510D01*
X10477Y10473D01*
X10277Y10273D01*
X10240Y10216D01*
X10235Y10193D01*
X10163D01*
Y9758D01*
X10637D01*
Y10142D01*
X10672Y10177D01*
X10877D01*
X10938Y10115D01*
Y9896D01*
X11314Y9896D01*
X11327Y9851D01*
Y9504D01*
X10938D01*
Y8951D01*
X10973D01*
Y8474D01*
X10985Y8415D01*
X10998Y8396D01*
X10999Y8388D01*
X11035Y8335D01*
X11088Y8299D01*
X11150Y8287D01*
X11212Y8299D01*
X11265Y8335D01*
X11277Y8352D01*
X11327Y8336D01*
Y8073D01*
X11022D01*
X10573Y8522D01*
Y9207D01*
X10637D01*
Y9642D01*
X10163D01*
Y9207D01*
X10227D01*
Y8450D01*
X10240Y8384D01*
X10277Y8327D01*
X10827Y7777D01*
X10884Y7740D01*
X10950Y7727D01*
X11500D01*
X11566Y7740D01*
X11623Y7777D01*
X11660Y7834D01*
X11673Y7900D01*
Y8760D01*
X11723Y8781D01*
X12677Y7827D01*
X12756Y7774D01*
X12850Y7755D01*
X19400D01*
X19494Y7774D01*
X19573Y7827D01*
X21073Y9327D01*
X21126Y9406D01*
X21145Y9500D01*
Y9995D01*
X21305D01*
Y10705D01*
X20941D01*
X20473Y11173D01*
X20394Y11226D01*
X20300Y11245D01*
X19401D01*
X19048Y11598D01*
X19064Y11618D01*
X19101Y11706D01*
X19113Y11800D01*
X19101Y11894D01*
X19064Y11982D01*
X19007Y12057D01*
X18932Y12114D01*
X18844Y12151D01*
X18750Y12163D01*
X18656Y12151D01*
X18568Y12114D01*
X18493Y12057D01*
X18436Y11982D01*
X18399Y11894D01*
X18387Y11800D01*
X18399Y11706D01*
X18436Y11618D01*
X18493Y11543D01*
X18509Y11531D01*
X18524Y11456D01*
X18577Y11377D01*
X19127Y10827D01*
X19206Y10774D01*
X19300Y10755D01*
X20199D01*
X20595Y10359D01*
Y9995D01*
X20655D01*
Y9601D01*
X19299Y8245D01*
X13932D01*
X13887Y8257D01*
Y8692D01*
X13413D01*
Y8257D01*
X13368Y8245D01*
X12951D01*
X12119Y9077D01*
Y9228D01*
X12100Y9321D01*
X12062Y9378D01*
Y9504D01*
X11673D01*
Y9851D01*
X11686Y9896D01*
X12062D01*
Y10115D01*
X12134Y10188D01*
X12172Y10244D01*
X12185Y10310D01*
Y10527D01*
X12527D01*
X12563Y10493D01*
Y10058D01*
X13037D01*
Y10493D01*
X13073Y10527D01*
X13300D01*
X13366Y10540D01*
X13423Y10577D01*
X13977Y11132D01*
X14023Y11112D01*
Y11100D01*
X14250D01*
Y11337D01*
X14247D01*
X14228Y11383D01*
X14398Y11553D01*
X14537D01*
Y12047D01*
X14473D01*
Y12303D01*
X14537D01*
Y12797D01*
X14063D01*
Y12303D01*
X14127D01*
Y12047D01*
X14063D01*
Y11708D01*
X13228Y10873D01*
X12185D01*
Y10925D01*
X13066D01*
Y11619D01*
X12931D01*
X12889Y11637D01*
X12889Y11669D01*
Y12299D01*
X12919Y12372D01*
X12931Y12465D01*
X12919Y12558D01*
X12889Y12631D01*
Y12997D01*
X23075D01*
X23095Y12955D01*
X23095Y12947D01*
Y12245D01*
X23805D01*
Y12947D01*
X23805Y12955D01*
X23825Y12997D01*
X24361D01*
X24364Y12947D01*
X24357Y12946D01*
X24271Y12910D01*
X24197Y12853D01*
X24140Y12779D01*
X24104Y12693D01*
X24092Y12600D01*
X24104Y12507D01*
X24140Y12421D01*
X24197Y12347D01*
X24271Y12290D01*
X24357Y12254D01*
X24450Y12242D01*
X24477Y12218D01*
Y11743D01*
X24413D01*
Y11308D01*
X24887D01*
Y11410D01*
X24937Y11412D01*
X24940Y11374D01*
X24950Y11253D01*
X24988Y11094D01*
X25051Y10942D01*
X25137Y10802D01*
X25244Y10677D01*
X25369Y10570D01*
X25509Y10484D01*
X25661Y10421D01*
X25820Y10383D01*
X25984Y10370D01*
X26148Y10383D01*
X26308Y10421D01*
X26460Y10484D01*
X26600Y10570D01*
X26725Y10677D01*
X26832Y10802D01*
X26918Y10942D01*
X26980Y11094D01*
X27019Y11253D01*
X27032Y11417D01*
X27019Y11581D01*
X26980Y11741D01*
X26918Y11893D01*
X26832Y12033D01*
X26725Y12158D01*
X26600Y12265D01*
X26460Y12351D01*
X26308Y12414D01*
X26148Y12452D01*
X25984Y12465D01*
X25820Y12452D01*
X25661Y12414D01*
X25509Y12351D01*
X25369Y12265D01*
X25244Y12158D01*
X25137Y12033D01*
X25051Y11893D01*
X24988Y11741D01*
X24950Y11581D01*
X24940Y11460D01*
X24937Y11422D01*
X24887Y11424D01*
Y11743D01*
X24823D01*
Y12400D01*
X24810Y12466D01*
X24791Y12495D01*
X24796Y12507D01*
X24808Y12600D01*
X24796Y12693D01*
X24760Y12779D01*
X24703Y12853D01*
X24629Y12910D01*
X24543Y12946D01*
X24536Y12947D01*
X24539Y12997D01*
X25984D01*
X26043Y13009D01*
X26078Y13032D01*
X26213Y13021D01*
D02*
G37*
%LPC*%
G36*
X9527Y12776D02*
X9300D01*
Y12568D01*
X9527D01*
Y12776D01*
D02*
G37*
G36*
X9200D02*
X8973D01*
Y12568D01*
X9200D01*
Y12776D01*
D02*
G37*
G36*
X15167Y12797D02*
X14693D01*
Y12303D01*
X15131D01*
X15158Y12253D01*
X15149Y12240D01*
X15148Y12235D01*
X14961Y12047D01*
X14693D01*
Y11553D01*
X15167D01*
Y11821D01*
X15395Y12049D01*
X15415Y12062D01*
X15451Y12115D01*
X15463Y12178D01*
X15451Y12240D01*
X15415Y12293D01*
X15365Y12327D01*
X15365Y12330D01*
X15387Y12377D01*
X16078D01*
X16377Y12077D01*
X16434Y12040D01*
X16500Y12027D01*
X16566Y12040D01*
X16623Y12077D01*
X16660Y12134D01*
X16673Y12200D01*
X16660Y12266D01*
X16623Y12323D01*
X16273Y12673D01*
X16216Y12710D01*
X16150Y12723D01*
X15167D01*
Y12797D01*
D02*
G37*
G36*
X21800Y12197D02*
Y11850D01*
X22147D01*
X22140Y11904D01*
X22099Y12002D01*
X22035Y12085D01*
X21952Y12149D01*
X21854Y12190D01*
X21800Y12197D01*
D02*
G37*
G36*
X21700D02*
X21646Y12190D01*
X21548Y12149D01*
X21465Y12085D01*
X21401Y12002D01*
X21360Y11904D01*
X21353Y11850D01*
X21700D01*
Y12197D01*
D02*
G37*
G36*
X22147Y11750D02*
X21800D01*
Y11403D01*
X21854Y11410D01*
X21952Y11451D01*
X22035Y11515D01*
X22099Y11598D01*
X22140Y11696D01*
X22147Y11750D01*
D02*
G37*
G36*
X21700D02*
X21353D01*
X21360Y11696D01*
X21401Y11598D01*
X21465Y11515D01*
X21548Y11451D01*
X21646Y11410D01*
X21700Y11403D01*
Y11750D01*
D02*
G37*
G36*
X14577Y11337D02*
X14350D01*
Y11100D01*
X14577D01*
Y11337D01*
D02*
G37*
G36*
X15167Y11297D02*
X14693D01*
Y10838D01*
X14627Y10772D01*
X14577Y10793D01*
Y11000D01*
X14300D01*
X14023D01*
Y10773D01*
X14023Y10763D01*
X13998Y10723D01*
X13850D01*
X13784Y10710D01*
X13727Y10673D01*
X13690Y10616D01*
X13677Y10550D01*
X13690Y10484D01*
X13727Y10427D01*
X13784Y10390D01*
X13850Y10377D01*
X14650D01*
X14716Y10390D01*
X14773Y10427D01*
X15052Y10707D01*
X15052Y10707D01*
X15090Y10764D01*
X15098Y10803D01*
X15167D01*
Y11297D01*
D02*
G37*
G36*
X24887Y11192D02*
X24413D01*
Y11148D01*
X22574D01*
X22508Y11135D01*
X22452Y11097D01*
X22049Y10694D01*
X22043Y10696D01*
X21950Y10708D01*
X21857Y10696D01*
X21771Y10660D01*
X21697Y10603D01*
X21640Y10529D01*
X21604Y10443D01*
X21592Y10350D01*
X21604Y10257D01*
X21640Y10171D01*
X21697Y10097D01*
X21771Y10040D01*
X21857Y10004D01*
X21950Y9992D01*
X22043Y10004D01*
X22129Y10040D01*
X22203Y10097D01*
X22260Y10171D01*
X22296Y10257D01*
X22308Y10350D01*
X22296Y10443D01*
X22294Y10449D01*
X22646Y10801D01*
X24413D01*
Y10757D01*
X24887D01*
Y11192D01*
D02*
G37*
G36*
X1250Y11458D02*
X1157Y11446D01*
X1071Y11410D01*
X997Y11353D01*
X940Y11279D01*
X904Y11193D01*
X892Y11100D01*
X904Y11007D01*
X940Y10921D01*
X997Y10847D01*
X1071Y10790D01*
X1157Y10754D01*
X1250Y10742D01*
X1343Y10754D01*
X1429Y10790D01*
X1503Y10847D01*
X1560Y10921D01*
X1596Y11007D01*
X1608Y11100D01*
X1596Y11193D01*
X1560Y11279D01*
X1503Y11353D01*
X1429Y11410D01*
X1343Y11446D01*
X1250Y11458D01*
D02*
G37*
G36*
X9487Y12492D02*
X9013D01*
Y12057D01*
X9027D01*
Y11363D01*
X9021Y11360D01*
X8947Y11303D01*
X8890Y11229D01*
X8854Y11143D01*
X8842Y11050D01*
X8854Y10957D01*
X8890Y10871D01*
X8947Y10797D01*
X9021Y10740D01*
X9107Y10704D01*
X9200Y10692D01*
X9293Y10704D01*
X9379Y10740D01*
X9453Y10797D01*
X9510Y10871D01*
X9546Y10957D01*
X9558Y11050D01*
X9546Y11143D01*
X9510Y11229D01*
X9453Y11303D01*
X9379Y11360D01*
X9373Y11363D01*
Y12057D01*
X9487D01*
Y12492D01*
D02*
G37*
G36*
X8200Y11408D02*
X8107Y11396D01*
X8021Y11360D01*
X7947Y11303D01*
X7890Y11229D01*
X7854Y11143D01*
X7842Y11050D01*
X7854Y10957D01*
X7890Y10871D01*
X7947Y10797D01*
X8021Y10740D01*
X8107Y10704D01*
X8200Y10692D01*
X8293Y10704D01*
X8379Y10740D01*
X8453Y10797D01*
X8510Y10871D01*
X8546Y10957D01*
X8558Y11050D01*
X8546Y11143D01*
X8510Y11229D01*
X8453Y11303D01*
X8379Y11360D01*
X8293Y11396D01*
X8200Y11408D01*
D02*
G37*
G36*
X7300Y10644D02*
Y10500D01*
X7444D01*
X7438Y10528D01*
X7394Y10594D01*
X7328Y10638D01*
X7300Y10644D01*
D02*
G37*
G36*
X7200D02*
X7172Y10638D01*
X7106Y10594D01*
X7062Y10528D01*
X7056Y10500D01*
X7200D01*
Y10644D01*
D02*
G37*
G36*
X1250Y10458D02*
X1157Y10446D01*
X1071Y10410D01*
X997Y10353D01*
X940Y10279D01*
X904Y10193D01*
X892Y10100D01*
X904Y10007D01*
X940Y9921D01*
X997Y9847D01*
X1071Y9790D01*
X1157Y9754D01*
X1250Y9742D01*
X1343Y9754D01*
X1429Y9790D01*
X1503Y9847D01*
X1560Y9921D01*
X1596Y10007D01*
X1608Y10100D01*
X1596Y10193D01*
X1560Y10279D01*
X1503Y10353D01*
X1429Y10410D01*
X1343Y10446D01*
X1250Y10458D01*
D02*
G37*
G36*
X9200Y10408D02*
X9107Y10396D01*
X9021Y10360D01*
X8947Y10303D01*
X8890Y10229D01*
X8854Y10143D01*
X8842Y10050D01*
X8854Y9957D01*
X8856Y9951D01*
X8593Y9689D01*
X8387D01*
X8377Y9739D01*
X8379Y9740D01*
X8453Y9797D01*
X8510Y9871D01*
X8546Y9957D01*
X8558Y10050D01*
X8546Y10143D01*
X8510Y10229D01*
X8453Y10303D01*
X8379Y10360D01*
X8293Y10396D01*
X8200Y10408D01*
X8107Y10396D01*
X8021Y10360D01*
X7947Y10303D01*
X7890Y10229D01*
X7887Y10223D01*
X7361D01*
X7346Y10273D01*
X7394Y10306D01*
X7438Y10372D01*
X7444Y10400D01*
X7056D01*
X7062Y10372D01*
X7106Y10306D01*
X7154Y10273D01*
X7139Y10223D01*
X3850D01*
X3784Y10210D01*
X3727Y10173D01*
X3477Y9923D01*
X3440Y9866D01*
X3427Y9800D01*
Y9550D01*
X3440Y9484D01*
X3477Y9427D01*
X3677Y9227D01*
X3734Y9190D01*
X3800Y9177D01*
X3866Y9190D01*
X3923Y9227D01*
X3960Y9284D01*
X3973Y9350D01*
X3960Y9416D01*
X3953Y9427D01*
X3980Y9477D01*
X5328D01*
X6071Y8733D01*
X6040Y8695D01*
X6016Y8710D01*
X5950Y8723D01*
X3000D01*
X2934Y8710D01*
X2877Y8673D01*
X2427Y8223D01*
X2390Y8166D01*
X2377Y8100D01*
X2390Y8034D01*
X2427Y7977D01*
X2484Y7940D01*
X2550Y7927D01*
X2592Y7935D01*
X2616Y7889D01*
X1877Y7150D01*
X1840Y7094D01*
X1827Y7028D01*
Y6800D01*
X1840Y6734D01*
X1877Y6677D01*
X1934Y6640D01*
X2000Y6627D01*
X2066Y6640D01*
X2123Y6677D01*
X2160Y6734D01*
X2173Y6800D01*
Y6956D01*
X2872Y7654D01*
X4078D01*
X4144Y7667D01*
X4177Y7689D01*
X4227Y7663D01*
Y5900D01*
X4240Y5834D01*
X4277Y5777D01*
X4334Y5740D01*
X4400Y5727D01*
X4466Y5740D01*
X4484Y5752D01*
X4534Y5725D01*
Y5557D01*
X4547Y5491D01*
X4585Y5435D01*
X4600Y5425D01*
X4605Y5375D01*
X3895Y4665D01*
X3842D01*
X3776Y4652D01*
X3720Y4614D01*
X3138Y4032D01*
X3088Y4044D01*
Y4422D01*
X2220D01*
Y4023D01*
X1924D01*
X1924Y4023D01*
X1858Y4010D01*
X1802Y3973D01*
X1422Y3593D01*
X1213D01*
Y3158D01*
X1687D01*
Y3368D01*
X1996Y3677D01*
X2220D01*
Y3278D01*
X3088D01*
Y3677D01*
X3201D01*
X3267Y3690D01*
X3323Y3727D01*
X3866Y4270D01*
X3912Y4251D01*
Y3661D01*
X3177Y2926D01*
X3140Y2870D01*
X3127Y2804D01*
Y2793D01*
X3063D01*
Y2358D01*
X3534D01*
X3537Y2358D01*
X3586Y2355D01*
X3590Y2334D01*
X3627Y2277D01*
X4177Y1727D01*
X4177Y1727D01*
X4234Y1690D01*
X4300Y1677D01*
X4728D01*
X4918Y1487D01*
X4914Y1457D01*
X4862Y1443D01*
X4853Y1453D01*
X4779Y1510D01*
X4693Y1546D01*
X4600Y1558D01*
X4507Y1546D01*
X4421Y1510D01*
X4347Y1453D01*
X4290Y1379D01*
X4254Y1293D01*
X4242Y1200D01*
X4254Y1107D01*
X4290Y1021D01*
X4347Y947D01*
X4421Y890D01*
X4507Y854D01*
X4600Y842D01*
X4693Y854D01*
X4779Y890D01*
X4853Y947D01*
X4877Y977D01*
X4927Y960D01*
Y750D01*
X4940Y684D01*
X4977Y627D01*
X5065Y540D01*
X5121Y502D01*
X5187Y489D01*
X6278D01*
Y406D01*
X7579D01*
Y919D01*
X6278D01*
Y836D01*
X5995D01*
Y1150D01*
X5600D01*
Y1200D01*
X5550D01*
Y1595D01*
X5264D01*
X5260Y1616D01*
X5223Y1673D01*
X4923Y1973D01*
X4866Y2010D01*
X4800Y2023D01*
X4372D01*
X3873Y2523D01*
X3816Y2560D01*
X3750Y2573D01*
X3684Y2560D01*
X3627Y2523D01*
X3590Y2466D01*
X3587Y2453D01*
X3537Y2458D01*
Y2793D01*
X3537Y2793D01*
X3537D01*
X3569Y2828D01*
X4020Y3278D01*
X4780D01*
Y4422D01*
X4780D01*
X4762Y4467D01*
X5173Y4877D01*
X5210Y4934D01*
X5223Y5000D01*
X5273Y5038D01*
X5293Y5034D01*
X7557D01*
X7624Y5047D01*
X7680Y5085D01*
X7822Y5227D01*
X7960D01*
X7977Y5177D01*
X7947Y5153D01*
X7890Y5079D01*
X7854Y4993D01*
X7842Y4900D01*
X7854Y4807D01*
X7890Y4721D01*
X7947Y4647D01*
X8021Y4590D01*
X8107Y4554D01*
X8200Y4542D01*
X8293Y4554D01*
X8369Y4586D01*
X8677Y4277D01*
X8734Y4240D01*
X8800Y4227D01*
X8845D01*
Y3790D01*
X8078Y3023D01*
X7322D01*
X7173Y3172D01*
Y3950D01*
X7160Y4016D01*
X7123Y4073D01*
X7066Y4110D01*
X7000Y4123D01*
X6934Y4110D01*
X6877Y4073D01*
X6840Y4016D01*
X6827Y3950D01*
Y3100D01*
X6840Y3034D01*
X6877Y2977D01*
X7127Y2727D01*
X7184Y2690D01*
X7250Y2677D01*
X8150D01*
X8216Y2690D01*
X8273Y2727D01*
X9090Y3545D01*
X9555D01*
Y4227D01*
X10778D01*
X11227Y3777D01*
X11284Y3740D01*
X11350Y3727D01*
X17403D01*
X18207Y2922D01*
Y2713D01*
X18642D01*
Y3187D01*
X18432D01*
X17597Y4023D01*
X17541Y4060D01*
X17474Y4073D01*
X11422D01*
X10973Y4523D01*
X10916Y4560D01*
X10850Y4573D01*
X9440D01*
X9423Y4623D01*
X9453Y4647D01*
X9510Y4721D01*
X9546Y4807D01*
X9558Y4900D01*
X9546Y4993D01*
X9510Y5079D01*
X9453Y5153D01*
X9379Y5210D01*
X9293Y5246D01*
X9200Y5258D01*
X9107Y5246D01*
X9021Y5210D01*
X8947Y5153D01*
X8890Y5079D01*
X8854Y4993D01*
X8842Y4900D01*
X8854Y4807D01*
X8890Y4721D01*
X8947Y4647D01*
X8977Y4623D01*
X8960Y4573D01*
X8872D01*
X8557Y4888D01*
X8558Y4900D01*
X8546Y4993D01*
X8510Y5079D01*
X8453Y5153D01*
X8423Y5177D01*
X8440Y5227D01*
X8700D01*
X8766Y5240D01*
X8823Y5277D01*
X9101Y5556D01*
X9107Y5554D01*
X9200Y5542D01*
X9293Y5554D01*
X9379Y5590D01*
X9453Y5647D01*
X9510Y5721D01*
X9546Y5807D01*
X9558Y5900D01*
X9546Y5993D01*
X9510Y6079D01*
X9453Y6153D01*
X9379Y6210D01*
X9293Y6246D01*
X9200Y6258D01*
X9107Y6246D01*
X9021Y6210D01*
X8947Y6153D01*
X8890Y6079D01*
X8854Y5993D01*
X8842Y5900D01*
X8854Y5807D01*
X8856Y5801D01*
X8628Y5573D01*
X8440D01*
X8423Y5623D01*
X8453Y5647D01*
X8510Y5721D01*
X8546Y5807D01*
X8558Y5900D01*
X8546Y5993D01*
X8510Y6079D01*
X8453Y6153D01*
X8379Y6210D01*
X8293Y6246D01*
X8200Y6258D01*
X8107Y6246D01*
X8060Y6226D01*
X8016Y6262D01*
X8023Y6300D01*
Y7800D01*
X8023Y7800D01*
X8010Y7866D01*
X7973Y7923D01*
X6973Y8923D01*
X6952Y8936D01*
X6946Y9001D01*
X7287Y9342D01*
X7863D01*
X7887Y9292D01*
X7855Y9249D01*
X7815Y9153D01*
X7808Y9100D01*
X8200D01*
X8592D01*
X8585Y9153D01*
X8545Y9249D01*
X8513Y9292D01*
X8537Y9342D01*
X8665D01*
X8732Y9355D01*
X8788Y9393D01*
X8795Y9400D01*
X8845Y9379D01*
X8845Y9366D01*
X8845Y9366D01*
X8845Y9366D01*
Y8695D01*
X9555D01*
Y9405D01*
X8884Y9405D01*
X8884D01*
X8884D01*
X8871Y9405D01*
X8863Y9426D01*
X8850Y9455D01*
X9101Y9706D01*
X9107Y9704D01*
X9200Y9692D01*
X9293Y9704D01*
X9379Y9740D01*
X9453Y9797D01*
X9510Y9871D01*
X9546Y9957D01*
X9558Y10050D01*
X9546Y10143D01*
X9510Y10229D01*
X9453Y10303D01*
X9379Y10360D01*
X9293Y10396D01*
X9200Y10408D01*
D02*
G37*
G36*
X1645Y9495D02*
X1300D01*
Y9150D01*
X1645D01*
Y9495D01*
D02*
G37*
G36*
X1200D02*
X855D01*
Y9150D01*
X1200D01*
Y9495D01*
D02*
G37*
G36*
X13037Y9942D02*
X12563D01*
Y9507D01*
X12627D01*
Y9250D01*
X12640Y9184D01*
X12677Y9127D01*
X12734Y9090D01*
X12800Y9077D01*
X13354D01*
X13413Y9018D01*
Y8808D01*
X13887D01*
Y9243D01*
X13678D01*
X13548Y9373D01*
X13492Y9410D01*
X13426Y9423D01*
X12973D01*
Y9507D01*
X13037D01*
Y9942D01*
D02*
G37*
G36*
X1645Y9050D02*
X1300D01*
Y8705D01*
X1645D01*
Y9050D01*
D02*
G37*
G36*
X1200D02*
X855D01*
Y8705D01*
X1200D01*
Y9050D01*
D02*
G37*
G36*
X8592Y9000D02*
X8250D01*
Y8658D01*
X8303Y8665D01*
X8399Y8705D01*
X8482Y8768D01*
X8545Y8851D01*
X8585Y8947D01*
X8592Y9000D01*
D02*
G37*
G36*
X8150D02*
X7808D01*
X7815Y8947D01*
X7855Y8851D01*
X7918Y8768D01*
X8001Y8705D01*
X8097Y8665D01*
X8150Y8658D01*
Y9000D01*
D02*
G37*
G36*
X3750Y7373D02*
X3150D01*
X3084Y7360D01*
X3027Y7323D01*
X2990Y7266D01*
X2977Y7200D01*
X2990Y7134D01*
X3027Y7077D01*
X3084Y7040D01*
X3150Y7027D01*
X3750D01*
X3816Y7040D01*
X3873Y7077D01*
X3910Y7134D01*
X3923Y7200D01*
X3910Y7266D01*
X3873Y7323D01*
X3816Y7360D01*
X3750Y7373D01*
D02*
G37*
G36*
X8700Y6944D02*
Y6800D01*
X8844D01*
X8838Y6828D01*
X8794Y6894D01*
X8728Y6938D01*
X8700Y6944D01*
D02*
G37*
G36*
X8600D02*
X8572Y6938D01*
X8506Y6894D01*
X8462Y6828D01*
X8456Y6800D01*
X8600D01*
Y6944D01*
D02*
G37*
G36*
X8844Y6700D02*
X8700D01*
Y6556D01*
X8728Y6562D01*
X8794Y6606D01*
X8838Y6672D01*
X8844Y6700D01*
D02*
G37*
G36*
X8600D02*
X8456D01*
X8462Y6672D01*
X8506Y6606D01*
X8572Y6562D01*
X8600Y6556D01*
Y6700D01*
D02*
G37*
G36*
X26750Y6847D02*
Y6500D01*
X27097D01*
X27090Y6554D01*
X27049Y6652D01*
X26985Y6735D01*
X26902Y6799D01*
X26804Y6840D01*
X26750Y6847D01*
D02*
G37*
G36*
X26650D02*
X26596Y6840D01*
X26498Y6799D01*
X26415Y6735D01*
X26351Y6652D01*
X26310Y6554D01*
X26303Y6500D01*
X26650D01*
Y6847D01*
D02*
G37*
G36*
X27097Y6400D02*
X26750D01*
Y6053D01*
X26804Y6060D01*
X26902Y6101D01*
X26985Y6165D01*
X27049Y6248D01*
X27090Y6346D01*
X27097Y6400D01*
D02*
G37*
G36*
X26650D02*
X26303D01*
X26310Y6346D01*
X26351Y6248D01*
X26415Y6165D01*
X26498Y6101D01*
X26596Y6060D01*
X26650Y6053D01*
Y6400D01*
D02*
G37*
G36*
X13780Y7347D02*
X13616Y7334D01*
X13456Y7295D01*
X13304Y7233D01*
X13164Y7147D01*
X13039Y7040D01*
X12932Y6915D01*
X12846Y6775D01*
X12783Y6623D01*
X12745Y6463D01*
X12732Y6299D01*
X12745Y6135D01*
X12783Y5976D01*
X12846Y5824D01*
X12932Y5684D01*
X13039Y5559D01*
X13164Y5452D01*
X13304Y5366D01*
X13456Y5303D01*
X13616Y5265D01*
X13780Y5252D01*
X13943Y5265D01*
X14103Y5303D01*
X14255Y5366D01*
X14395Y5452D01*
X14520Y5559D01*
X14627Y5684D01*
X14713Y5824D01*
X14776Y5976D01*
X14814Y6135D01*
X14827Y6299D01*
X14814Y6463D01*
X14776Y6623D01*
X14713Y6775D01*
X14627Y6915D01*
X14520Y7040D01*
X14395Y7147D01*
X14255Y7233D01*
X14103Y7295D01*
X13943Y7334D01*
X13780Y7347D01*
D02*
G37*
G36*
X800Y4697D02*
Y4350D01*
X1147D01*
X1140Y4404D01*
X1099Y4502D01*
X1035Y4585D01*
X952Y4649D01*
X854Y4690D01*
X800Y4697D01*
D02*
G37*
G36*
X700D02*
X646Y4690D01*
X548Y4649D01*
X465Y4585D01*
X401Y4502D01*
X360Y4404D01*
X353Y4350D01*
X700D01*
Y4697D01*
D02*
G37*
G36*
X8250Y4292D02*
Y3950D01*
X8592D01*
X8585Y4003D01*
X8545Y4099D01*
X8482Y4182D01*
X8399Y4245D01*
X8303Y4285D01*
X8250Y4292D01*
D02*
G37*
G36*
X8150D02*
X8097Y4285D01*
X8001Y4245D01*
X7918Y4182D01*
X7855Y4099D01*
X7815Y4003D01*
X7808Y3950D01*
X8150D01*
Y4292D01*
D02*
G37*
G36*
X1147Y4250D02*
X800D01*
Y3903D01*
X854Y3910D01*
X952Y3951D01*
X1035Y4015D01*
X1099Y4098D01*
X1140Y4196D01*
X1147Y4250D01*
D02*
G37*
G36*
X700D02*
X353D01*
X360Y4196D01*
X401Y4098D01*
X465Y4015D01*
X548Y3951D01*
X646Y3910D01*
X700Y3903D01*
Y4250D01*
D02*
G37*
G36*
X8592Y3850D02*
X8250D01*
Y3508D01*
X8303Y3515D01*
X8399Y3555D01*
X8482Y3618D01*
X8545Y3701D01*
X8585Y3797D01*
X8592Y3850D01*
D02*
G37*
G36*
X8150D02*
X7808D01*
X7815Y3797D01*
X7855Y3701D01*
X7918Y3618D01*
X8001Y3555D01*
X8097Y3515D01*
X8150Y3508D01*
Y3850D01*
D02*
G37*
G36*
X16095Y3245D02*
X15750D01*
Y2900D01*
X16095D01*
Y3245D01*
D02*
G37*
G36*
X15650D02*
X15305D01*
Y2900D01*
X15650D01*
Y3245D01*
D02*
G37*
G36*
X14700Y3208D02*
X14607Y3196D01*
X14521Y3160D01*
X14447Y3103D01*
X14390Y3029D01*
X14354Y2943D01*
X14342Y2850D01*
X14354Y2757D01*
X14390Y2671D01*
X14447Y2597D01*
X14521Y2540D01*
X14607Y2504D01*
X14700Y2492D01*
X14793Y2504D01*
X14879Y2540D01*
X14953Y2597D01*
X15010Y2671D01*
X15046Y2757D01*
X15058Y2850D01*
X15046Y2943D01*
X15010Y3029D01*
X14953Y3103D01*
X14879Y3160D01*
X14793Y3196D01*
X14700Y3208D01*
D02*
G37*
G36*
X12700D02*
X12607Y3196D01*
X12521Y3160D01*
X12447Y3103D01*
X12390Y3029D01*
X12354Y2943D01*
X12342Y2850D01*
X12354Y2757D01*
X12390Y2671D01*
X12447Y2597D01*
X12521Y2540D01*
X12607Y2504D01*
X12700Y2492D01*
X12793Y2504D01*
X12879Y2540D01*
X12953Y2597D01*
X13010Y2671D01*
X13046Y2757D01*
X13058Y2850D01*
X13046Y2943D01*
X13010Y3029D01*
X12953Y3103D01*
X12879Y3160D01*
X12793Y3196D01*
X12700Y3208D01*
D02*
G37*
G36*
X11700D02*
X11607Y3196D01*
X11521Y3160D01*
X11447Y3103D01*
X11390Y3029D01*
X11354Y2943D01*
X11342Y2850D01*
X11354Y2757D01*
X11390Y2671D01*
X11447Y2597D01*
X11521Y2540D01*
X11607Y2504D01*
X11700Y2492D01*
X11793Y2504D01*
X11879Y2540D01*
X11953Y2597D01*
X12010Y2671D01*
X12046Y2757D01*
X12058Y2850D01*
X12046Y2943D01*
X12010Y3029D01*
X11953Y3103D01*
X11879Y3160D01*
X11793Y3196D01*
X11700Y3208D01*
D02*
G37*
G36*
X5531Y2613D02*
X5387D01*
Y2469D01*
X5415Y2474D01*
X5482Y2518D01*
X5526Y2585D01*
X5531Y2613D01*
D02*
G37*
G36*
X5250Y4436D02*
X5184Y4423D01*
X5127Y4385D01*
X5090Y4329D01*
X5077Y4263D01*
Y3172D01*
X4727Y2823D01*
X4690Y2766D01*
X4677Y2700D01*
X4690Y2634D01*
X4727Y2577D01*
X4784Y2540D01*
X4850Y2527D01*
X4916Y2540D01*
X4973Y2577D01*
X5089Y2694D01*
X5135Y2669D01*
X5133Y2663D01*
X5149Y2585D01*
X5193Y2518D01*
X5259Y2474D01*
X5287Y2469D01*
Y2663D01*
X5337D01*
Y2713D01*
X5531D01*
X5526Y2741D01*
X5482Y2807D01*
X5415Y2851D01*
X5337Y2867D01*
X5331Y2865D01*
X5306Y2911D01*
X5373Y2977D01*
X5410Y3034D01*
X5423Y3100D01*
Y4263D01*
X5410Y4329D01*
X5373Y4385D01*
X5316Y4423D01*
X5250Y4436D01*
D02*
G37*
G36*
X16095Y2800D02*
X15750D01*
Y2455D01*
X16095D01*
Y2800D01*
D02*
G37*
G36*
X15650D02*
X15305D01*
Y2455D01*
X15650D01*
Y2800D01*
D02*
G37*
G36*
X11162Y2534D02*
X10522D01*
Y2287D01*
X11162D01*
Y2534D01*
D02*
G37*
G36*
X7619D02*
X6978D01*
Y2287D01*
X7619D01*
Y2534D01*
D02*
G37*
G36*
X6878D02*
X6238D01*
Y2287D01*
X6878D01*
Y2534D01*
D02*
G37*
G36*
X10422D02*
X9781D01*
Y2287D01*
X10422D01*
Y2534D01*
D02*
G37*
G36*
X11162Y2187D02*
X10522D01*
Y1941D01*
X11162D01*
Y2187D01*
D02*
G37*
G36*
X10422D02*
X9781D01*
Y1941D01*
X10422D01*
Y2187D01*
D02*
G37*
G36*
X7619D02*
X6978D01*
Y1941D01*
X7619D01*
Y2187D01*
D02*
G37*
G36*
X6878D02*
X6238D01*
Y1941D01*
X6878D01*
Y2187D01*
D02*
G37*
G36*
X21045Y1695D02*
X20700D01*
Y1350D01*
X21045D01*
Y1695D01*
D02*
G37*
G36*
X20600D02*
X20255D01*
Y1350D01*
X20600D01*
Y1695D01*
D02*
G37*
G36*
X5995Y1595D02*
X5650D01*
Y1250D01*
X5995D01*
Y1595D01*
D02*
G37*
G36*
X19193Y3187D02*
X18758D01*
Y2713D01*
X18968D01*
X19477Y2204D01*
Y1613D01*
X19471Y1610D01*
X19397Y1553D01*
X19340Y1479D01*
X19304Y1393D01*
X19292Y1300D01*
X19304Y1207D01*
X19340Y1121D01*
X19397Y1047D01*
X19471Y990D01*
X19557Y954D01*
X19650Y942D01*
X19743Y954D01*
X19829Y990D01*
X19903Y1047D01*
X19960Y1121D01*
X19996Y1207D01*
X20008Y1300D01*
X19996Y1393D01*
X19960Y1479D01*
X19903Y1553D01*
X19829Y1610D01*
X19823Y1613D01*
Y2276D01*
X19810Y2342D01*
X19773Y2398D01*
X19193Y2978D01*
Y3187D01*
D02*
G37*
G36*
X18650Y1658D02*
X18557Y1646D01*
X18471Y1610D01*
X18397Y1553D01*
X18340Y1479D01*
X18304Y1393D01*
X18292Y1300D01*
X18304Y1207D01*
X18340Y1121D01*
X18397Y1047D01*
X18471Y990D01*
X18557Y954D01*
X18650Y942D01*
X18743Y954D01*
X18829Y990D01*
X18903Y1047D01*
X18960Y1121D01*
X18996Y1207D01*
X19008Y1300D01*
X18996Y1393D01*
X18960Y1479D01*
X18903Y1553D01*
X18829Y1610D01*
X18743Y1646D01*
X18650Y1658D01*
D02*
G37*
G36*
X21045Y1250D02*
X20700D01*
Y905D01*
X21045D01*
Y1250D01*
D02*
G37*
G36*
X20600D02*
X20255D01*
Y905D01*
X20600D01*
Y1250D01*
D02*
G37*
G36*
X1687Y3042D02*
X1213D01*
Y2607D01*
X1213D01*
X1217Y2557D01*
X1099Y2508D01*
X959Y2422D01*
X834Y2315D01*
X727Y2191D01*
X641Y2050D01*
X579Y1898D01*
X540Y1739D01*
X527Y1575D01*
X540Y1411D01*
X579Y1251D01*
X641Y1099D01*
X727Y959D01*
X834Y834D01*
X959Y727D01*
X1099Y641D01*
X1251Y579D01*
X1411Y540D01*
X1575Y527D01*
X1739Y540D01*
X1898Y579D01*
X2050Y641D01*
X2191Y727D01*
X2315Y834D01*
X2422Y959D01*
X2508Y1099D01*
X2571Y1251D01*
X2609Y1411D01*
X2622Y1575D01*
X2609Y1739D01*
X2571Y1898D01*
X2508Y2050D01*
X2422Y2191D01*
X2315Y2315D01*
X2191Y2422D01*
X2050Y2508D01*
X1898Y2571D01*
X1773Y2601D01*
X1779Y2651D01*
X2154D01*
X2903Y1902D01*
X2959Y1864D01*
X3026Y1851D01*
X3063D01*
Y1807D01*
X3272D01*
X3427Y1653D01*
Y1513D01*
X3421Y1510D01*
X3347Y1453D01*
X3290Y1379D01*
X3254Y1293D01*
X3242Y1200D01*
X3254Y1107D01*
X3290Y1021D01*
X3347Y947D01*
X3421Y890D01*
X3507Y854D01*
X3600Y842D01*
X3693Y854D01*
X3779Y890D01*
X3853Y947D01*
X3910Y1021D01*
X3946Y1107D01*
X3958Y1200D01*
X3946Y1293D01*
X3910Y1379D01*
X3853Y1453D01*
X3779Y1510D01*
X3773Y1513D01*
Y1724D01*
X3760Y1791D01*
X3723Y1847D01*
X3723Y1847D01*
X3537Y2032D01*
Y2242D01*
X3063D01*
X3063Y2242D01*
Y2242D01*
X3026Y2270D01*
X2348Y2947D01*
X2292Y2985D01*
X2226Y2998D01*
X1687D01*
Y3042D01*
D02*
G37*
G36*
X11992Y1037D02*
X11557D01*
Y836D01*
X11122D01*
Y919D01*
X9821D01*
Y406D01*
X11122D01*
Y489D01*
X11637D01*
X11703Y502D01*
X11760Y540D01*
X11782Y563D01*
X11992D01*
Y1037D01*
D02*
G37*
G36*
X13700Y3208D02*
X13607Y3196D01*
X13521Y3160D01*
X13447Y3103D01*
X13390Y3029D01*
X13354Y2943D01*
X13342Y2850D01*
X13354Y2757D01*
X13390Y2671D01*
X13447Y2597D01*
X13521Y2540D01*
X13527Y2537D01*
Y2246D01*
X12318Y1037D01*
X12108D01*
Y563D01*
X12543D01*
Y772D01*
X13823Y2052D01*
X13860Y2108D01*
X13873Y2174D01*
Y2537D01*
X13879Y2540D01*
X13953Y2597D01*
X14010Y2671D01*
X14046Y2757D01*
X14058Y2850D01*
X14046Y2943D01*
X14010Y3029D01*
X13953Y3103D01*
X13879Y3160D01*
X13793Y3196D01*
X13700Y3208D01*
D02*
G37*
G36*
X25984Y2622D02*
X25820Y2609D01*
X25661Y2571D01*
X25509Y2508D01*
X25369Y2422D01*
X25244Y2315D01*
X25137Y2191D01*
X25051Y2050D01*
X24988Y1898D01*
X24950Y1739D01*
X24937Y1575D01*
X24950Y1411D01*
X24988Y1251D01*
X25051Y1099D01*
X25137Y959D01*
X25244Y834D01*
X25369Y727D01*
X25509Y641D01*
X25661Y579D01*
X25820Y540D01*
X25984Y527D01*
X26148Y540D01*
X26308Y579D01*
X26460Y641D01*
X26600Y727D01*
X26725Y834D01*
X26832Y959D01*
X26918Y1099D01*
X26980Y1251D01*
X27019Y1411D01*
X27032Y1575D01*
X27019Y1739D01*
X26980Y1898D01*
X26918Y2050D01*
X26832Y2191D01*
X26725Y2315D01*
X26600Y2422D01*
X26460Y2508D01*
X26308Y2571D01*
X26148Y2609D01*
X25984Y2622D01*
D02*
G37*
%LPD*%
G36*
X7890Y9871D02*
X7947Y9797D01*
X8021Y9740D01*
X8023Y9739D01*
X8013Y9689D01*
X7215D01*
X7149Y9675D01*
X7093Y9638D01*
X6688Y9233D01*
X6672Y9230D01*
X6616Y9193D01*
X6457Y9034D01*
X6420Y8978D01*
X6415Y8951D01*
X6360Y8935D01*
X5523Y9773D01*
X5466Y9810D01*
X5400Y9823D01*
X3990D01*
X3961Y9873D01*
X3963Y9877D01*
X7887D01*
X7890Y9871D01*
D02*
G37*
G36*
X7538Y7867D02*
X7514Y7821D01*
X7500Y7823D01*
X6922D01*
X6429Y8317D01*
X6460Y8355D01*
X6484Y8340D01*
X6550Y8327D01*
X6550Y8327D01*
X6600D01*
X6666Y8340D01*
X6723Y8377D01*
X6760Y8434D01*
X6773Y8500D01*
X6760Y8566D01*
X6764Y8570D01*
X6833Y8572D01*
X7538Y7867D01*
D02*
G37*
G36*
X6727Y7527D02*
X6784Y7490D01*
X6850Y7477D01*
X7500D01*
X7566Y7490D01*
X7623Y7527D01*
X7627Y7534D01*
X7677Y7518D01*
Y6929D01*
X7627Y6906D01*
X7578Y6938D01*
X7550Y6944D01*
Y6750D01*
Y6556D01*
X7578Y6562D01*
X7627Y6594D01*
X7677Y6571D01*
Y6372D01*
X6977Y5673D01*
X6940Y5616D01*
X6927Y5550D01*
X6940Y5484D01*
X6975Y5431D01*
X6971Y5413D01*
X6957Y5381D01*
X5451D01*
X5432Y5427D01*
X6423Y6418D01*
X6460Y6474D01*
X6473Y6540D01*
Y6600D01*
X6460Y6666D01*
X6423Y6723D01*
X6366Y6760D01*
X6300Y6773D01*
X6234Y6760D01*
X6177Y6723D01*
X6140Y6666D01*
X6130Y6615D01*
X5620Y6105D01*
X5573Y6124D01*
Y7700D01*
X5560Y7766D01*
X5523Y7823D01*
X5323Y8023D01*
X5266Y8060D01*
X5200Y8073D01*
X5134Y8060D01*
X5077Y8023D01*
X5040Y7966D01*
X5027Y7900D01*
X5040Y7834D01*
X5077Y7777D01*
X5195Y7660D01*
X5195Y7658D01*
X5138Y7636D01*
X5100Y7661D01*
X5072Y7666D01*
Y7472D01*
Y7278D01*
X5100Y7284D01*
X5167Y7328D01*
X5177Y7343D01*
X5227Y7328D01*
Y5997D01*
X4927Y5697D01*
X4881Y5716D01*
Y7273D01*
X4925Y7297D01*
X4944Y7284D01*
X4972Y7278D01*
Y7472D01*
Y7666D01*
X4944Y7661D01*
X4925Y7648D01*
X4881Y7671D01*
Y7857D01*
X4868Y7924D01*
X4830Y7980D01*
X4774Y8018D01*
X4707Y8031D01*
X4641Y8018D01*
X4623Y8006D01*
X4573Y8032D01*
Y8050D01*
X4560Y8116D01*
X4523Y8173D01*
X4466Y8210D01*
X4400Y8223D01*
X4334Y8210D01*
X4277Y8173D01*
X4240Y8116D01*
X4227Y8050D01*
Y7993D01*
X4177Y7966D01*
X4144Y7988D01*
X4078Y8001D01*
X2800D01*
X2758Y7993D01*
X2734Y8039D01*
X3072Y8377D01*
X5878D01*
X6727Y7527D01*
D02*
G37*
%LPC*%
G36*
X7450Y6944D02*
X7422Y6938D01*
X7356Y6894D01*
X7312Y6828D01*
X7306Y6800D01*
X7450D01*
Y6944D01*
D02*
G37*
G36*
Y6700D02*
X7306D01*
X7312Y6672D01*
X7356Y6606D01*
X7422Y6562D01*
X7450Y6556D01*
Y6700D01*
D02*
G37*
%LPD*%
D10*
X1450Y2824D02*
D03*
Y3376D02*
D03*
X3300Y2024D02*
D03*
Y2576D02*
D03*
X12800Y10276D02*
D03*
Y9724D02*
D03*
X13650Y8474D02*
D03*
Y9026D02*
D03*
X10400Y9976D02*
D03*
Y9424D02*
D03*
X9250Y12274D02*
D03*
Y12826D02*
D03*
X24650Y11526D02*
D03*
Y10974D02*
D03*
D11*
X2654Y3850D02*
D03*
X4346D02*
D03*
D12*
X10472Y663D02*
D03*
Y2237D02*
D03*
X6928Y663D02*
D03*
Y2237D02*
D03*
D13*
X14930Y11800D02*
D03*
X14300D02*
D03*
X14930Y11050D02*
D03*
X14300D02*
D03*
X14930Y12550D02*
D03*
X14300D02*
D03*
D14*
X10988Y11353D02*
D03*
X11244D02*
D03*
X11500D02*
D03*
X11756D02*
D03*
X12012D02*
D03*
D15*
X11126Y12494D02*
D03*
X11874D02*
D03*
D16*
X10427Y12367D02*
D03*
X12573D02*
D03*
D17*
X18976Y2950D02*
D03*
X18424D02*
D03*
X11774Y800D02*
D03*
X12326D02*
D03*
X5124Y12700D02*
D03*
X5676D02*
D03*
D18*
X11126Y10172D02*
D03*
X11874D02*
D03*
Y9228D02*
D03*
X11500D02*
D03*
X11126D02*
D03*
D19*
X5200Y7900D02*
X5400Y7700D01*
Y5925D02*
Y7700D01*
X3967Y4492D02*
X5400Y5925D01*
X3842Y4492D02*
X3967D01*
X3201Y3850D02*
X3842Y4492D01*
X2654Y3850D02*
X3201D01*
X6300Y6540D02*
Y6600D01*
X5050Y5290D02*
X6300Y6540D01*
X5050Y5000D02*
Y5290D01*
X4346Y4296D02*
X5050Y5000D01*
X4346Y3850D02*
Y4296D01*
X3300Y2804D02*
X4346Y3850D01*
X3300Y2576D02*
Y2804D01*
X3600Y1200D02*
Y1724D01*
X3300Y2024D02*
X3600Y1724D01*
X3026Y2024D02*
X3300D01*
X2226Y2824D02*
X3026Y2024D01*
X1450Y2824D02*
X2226D01*
X1450Y3376D02*
X1924Y3850D01*
X2654D01*
X8050Y12550D02*
Y12850D01*
X4300Y1850D02*
X4800D01*
X5100Y1550D01*
Y750D02*
Y1550D01*
Y750D02*
X5187Y663D01*
X6928D01*
X13700Y2174D02*
Y2850D01*
X12326Y800D02*
X13700Y2174D01*
X11637Y663D02*
X11774Y800D01*
X10472Y663D02*
X11637D01*
X11874Y10172D02*
X12012Y10310D01*
X10988Y10812D02*
Y11353D01*
Y10812D02*
X11150Y10650D01*
X11400D01*
X11500Y10550D01*
Y9228D02*
Y10550D01*
X13300Y10700D02*
X14300Y11700D01*
Y11800D02*
Y12550D01*
X12012Y10310D02*
Y10700D01*
Y11353D01*
X14930Y12550D02*
X16150D01*
X16500Y12200D01*
X14930Y10830D02*
Y11050D01*
X14650Y10550D02*
X14930Y10830D01*
X13850Y10550D02*
X14650D01*
X12800Y10276D02*
Y10700D01*
X12012Y10700D02*
X12800D01*
X13300D01*
X12800Y9250D02*
Y9724D01*
X12800Y9250D02*
X13426D01*
X13650Y9026D01*
X4400Y5900D02*
Y8050D01*
X4707Y5557D02*
Y7857D01*
X2800Y7828D02*
X4078D01*
X2000Y7028D02*
X2800Y7828D01*
X2000Y6800D02*
Y7028D01*
X3150Y7200D02*
X3750D01*
X6550Y8500D02*
X6600D01*
X6580Y8520D02*
X6600Y8500D01*
X6580Y8520D02*
Y8912D01*
X6738Y9070D01*
X6770D01*
X7215Y9515D01*
X8665D01*
X9200Y10050D01*
X3850D02*
X8200D01*
X3600Y9800D02*
X3850Y10050D01*
X5400Y9650D02*
X6550Y8500D01*
X3950Y9650D02*
X5400D01*
X3600Y9550D02*
Y9800D01*
Y9550D02*
X3800Y9350D01*
X5293Y5207D02*
X7557D01*
X7750Y5400D01*
X8700D01*
X9200Y5900D01*
X7250Y2850D02*
X8150D01*
X7000Y3100D02*
X7250Y2850D01*
X7000Y3100D02*
Y3950D01*
X2550Y8100D02*
X3000Y8550D01*
X5950D01*
X7100Y5550D02*
X7850Y6300D01*
Y7800D01*
X6850Y8800D02*
X7850Y7800D01*
X5950Y8550D02*
X6850Y7650D01*
X7500D01*
X10400Y9976D02*
Y10150D01*
X10600Y10350D01*
X10948D01*
X11126Y10172D01*
X10400Y8450D02*
Y9424D01*
Y8450D02*
X10950Y7900D01*
X11500D01*
Y9228D01*
X9200Y11050D02*
Y12224D01*
X9250Y12274D01*
X3750Y2400D02*
X4300Y1850D01*
X5250Y3100D02*
Y4263D01*
X4850Y2700D02*
X5250Y3100D01*
X8200Y4900D02*
X8300D01*
X8800Y4400D01*
X10850D01*
X11350Y3900D02*
X17474D01*
X18424Y2950D01*
X18976D02*
X19650Y2276D01*
Y1300D02*
Y2276D01*
X8150Y2850D02*
X9200Y3900D01*
X10850Y4400D02*
X11350Y3900D01*
X18626Y1276D02*
X18650Y1300D01*
X22574Y10974D02*
X24650D01*
X21950Y10350D02*
X22574Y10974D01*
X24650Y11526D02*
Y12400D01*
X5676Y12700D02*
X5900D01*
X6850Y11750D01*
X450Y7600D02*
X750Y7300D01*
X450Y7600D02*
Y11600D01*
X1500Y12650D01*
X3250D01*
X4250D02*
X5074D01*
X5124Y12700D01*
X3250Y12650D02*
X4000Y11900D01*
X6200D01*
X6800Y11300D01*
X8050Y12550D01*
D20*
X14300Y11700D02*
Y11800D01*
X14930D02*
X15300Y12170D01*
Y12178D01*
X11126Y8474D02*
Y9228D01*
Y8474D02*
X11150Y8450D01*
X12800Y10700D02*
X12800Y10700D01*
X13650Y8000D02*
X13650Y8000D01*
D21*
X11874Y8976D02*
Y9228D01*
Y8976D02*
X12850Y8000D01*
X13650D01*
X19400D01*
X20900Y9500D01*
Y10400D01*
X20300Y11000D02*
X20900Y10400D01*
X19300Y11000D02*
X20300D01*
X18750Y11550D02*
X19300Y11000D01*
X18750Y11550D02*
Y11800D01*
D22*
X13650Y8000D02*
Y8474D01*
D23*
X8650Y6750D02*
D03*
X7500D02*
D03*
X6300Y6600D02*
D03*
X5200Y7900D02*
D03*
X8050Y12850D02*
D03*
X15300Y12178D02*
D03*
X16500Y12200D02*
D03*
X13850Y10550D02*
D03*
X11150Y8450D02*
D03*
X12800Y9250D02*
D03*
X4400Y8050D02*
D03*
Y5900D02*
D03*
X4707Y7857D02*
D03*
Y5557D02*
D03*
X2000Y6800D02*
D03*
X4078Y7828D02*
D03*
X3750Y7200D02*
D03*
X3150D02*
D03*
X6600Y8500D02*
D03*
X3950Y9650D02*
D03*
X6850Y8800D02*
D03*
X7100Y5550D02*
D03*
X3800Y9350D02*
D03*
X5293Y5207D02*
D03*
X7000Y3950D02*
D03*
X2550Y8100D02*
D03*
X7500Y7650D02*
D03*
X11500Y7900D02*
D03*
X3750Y2400D02*
D03*
X5250Y4263D02*
D03*
X4850Y2700D02*
D03*
X5022Y7472D02*
D03*
X5337Y2663D02*
D03*
X7250Y10450D02*
D03*
X6850Y11750D02*
D03*
D24*
X15700Y2850D02*
D03*
X20950Y10350D02*
D03*
X3250Y12650D02*
D03*
X23450Y12600D02*
D03*
X5600Y1200D02*
D03*
X20650Y1300D02*
D03*
D25*
X14700Y2850D02*
D03*
X13700D02*
D03*
X12700D02*
D03*
X11700D02*
D03*
X8200Y11050D02*
D03*
X9200D02*
D03*
X8200Y10050D02*
D03*
X9200D02*
D03*
X8200Y9050D02*
D03*
Y5900D02*
D03*
X9200D02*
D03*
X8200Y4900D02*
D03*
X9200D02*
D03*
X8200Y3900D02*
D03*
X21950Y10350D02*
D03*
X4250Y12650D02*
D03*
X24450Y12600D02*
D03*
X1250Y11100D02*
D03*
Y10100D02*
D03*
X3600Y1200D02*
D03*
X4600D02*
D03*
X18650Y1300D02*
D03*
X19650D02*
D03*
X10427Y12465D02*
D03*
X12573D02*
D03*
D26*
X9200Y9050D02*
D03*
Y3900D02*
D03*
X1250Y9100D02*
D03*
D27*
X26700Y6450D02*
D03*
X18750Y11800D02*
D03*
X21750D02*
D03*
X750Y4300D02*
D03*
Y7300D02*
D03*
D28*
X25984Y1575D02*
D03*
Y11417D02*
D03*
X1575Y1575D02*
D03*
X13780Y6299D02*
D03*
D29*
X12455Y11272D02*
D03*
X10545D02*
D03*
D30*
X12612D02*
D03*
X10388D02*
D03*
M02*
