G04 Layer_Physical_Order=2*
G04 Layer_Color=16711680*
%FSLAX24Y24*%
%MOIN*%
G70*
G01*
G75*
%ADD10R,0.0354X0.0315*%
%ADD19C,0.0140*%
%ADD20C,0.0100*%
%ADD23C,0.0200*%
%ADD24R,0.0591X0.0591*%
%ADD25C,0.0591*%
%ADD26R,0.0591X0.0591*%
%ADD27C,0.0600*%
%ADD28C,0.1969*%
%ADD29C,0.0472*%
%ADD30R,0.0787X0.0575*%
%ADD31R,0.1791X0.0906*%
%ADD32O,0.0217X0.0650*%
%ADD33O,0.0650X0.0217*%
G36*
X26213Y13021D02*
X26437Y12968D01*
X26649Y12880D01*
X26845Y12760D01*
X27020Y12611D01*
X27169Y12436D01*
X27289Y12240D01*
X27377Y12028D01*
X27431Y11804D01*
X27441Y11669D01*
X27418Y11634D01*
X27406Y11575D01*
Y9465D01*
X24650D01*
X24604Y9446D01*
X24354Y9196D01*
X24335Y9150D01*
Y3900D01*
X24354Y3854D01*
X24604Y3604D01*
X24650Y3585D01*
X27406D01*
Y1575D01*
X27418Y1516D01*
X27441Y1481D01*
X27431Y1346D01*
X27377Y1122D01*
X27289Y910D01*
X27169Y714D01*
X27020Y539D01*
X26845Y390D01*
X26649Y270D01*
X26437Y182D01*
X26213Y129D01*
X26078Y118D01*
X26043Y141D01*
X25984Y153D01*
X1575D01*
X1516Y141D01*
X1481Y118D01*
X1346Y129D01*
X1122Y182D01*
X910Y270D01*
X714Y390D01*
X539Y539D01*
X390Y714D01*
X270Y910D01*
X182Y1122D01*
X129Y1346D01*
X118Y1481D01*
X141Y1516D01*
X153Y1575D01*
Y11575D01*
X141Y11634D01*
X118Y11669D01*
X129Y11804D01*
X182Y12028D01*
X270Y12240D01*
X390Y12436D01*
X539Y12611D01*
X714Y12760D01*
X910Y12880D01*
X1122Y12968D01*
X1346Y13021D01*
X1481Y13032D01*
X1516Y13009D01*
X1575Y12997D01*
X2895D01*
Y12295D01*
X3268D01*
X3295Y12245D01*
X3289Y12236D01*
X3276Y12170D01*
Y11737D01*
X3289Y11671D01*
X3326Y11616D01*
X3382Y11579D01*
X3448Y11565D01*
X3513Y11579D01*
X3569Y11616D01*
X3580Y11632D01*
X3630D01*
X3641Y11616D01*
X3697Y11579D01*
X3763Y11565D01*
X3828Y11579D01*
X3884Y11616D01*
X3895Y11632D01*
X3945D01*
X3956Y11616D01*
X4012Y11579D01*
X4078Y11565D01*
X4143Y11579D01*
X4199Y11616D01*
X4210Y11632D01*
X4260D01*
X4271Y11616D01*
X4327Y11579D01*
X4393Y11565D01*
X4458Y11579D01*
X4514Y11616D01*
X4525Y11632D01*
X4575D01*
X4586Y11616D01*
X4642Y11579D01*
X4707Y11565D01*
X4773Y11579D01*
X4829Y11616D01*
X4840Y11632D01*
X4890D01*
X4901Y11616D01*
X4957Y11579D01*
X5022Y11565D01*
X5088Y11579D01*
X5144Y11616D01*
X5155Y11632D01*
X5205D01*
X5216Y11616D01*
X5272Y11579D01*
X5337Y11565D01*
X5403Y11579D01*
X5459Y11616D01*
X5470Y11632D01*
X5520D01*
X5531Y11616D01*
X5587Y11579D01*
X5652Y11565D01*
X5718Y11579D01*
X5774Y11616D01*
X5811Y11671D01*
X5824Y11737D01*
Y12170D01*
X5811Y12236D01*
X5774Y12291D01*
X5718Y12329D01*
X5652Y12342D01*
X5587Y12329D01*
X5531Y12291D01*
X5520Y12275D01*
X5470D01*
X5459Y12291D01*
X5403Y12329D01*
X5337Y12342D01*
X5272Y12329D01*
X5216Y12291D01*
X5205Y12275D01*
X5155D01*
X5144Y12291D01*
X5088Y12329D01*
X5052Y12336D01*
X5035Y12390D01*
X5172Y12527D01*
X7478D01*
X8856Y11149D01*
X8854Y11143D01*
X8842Y11050D01*
X8854Y10957D01*
X8890Y10871D01*
X8947Y10797D01*
X9021Y10740D01*
X9107Y10704D01*
X9200Y10692D01*
X9293Y10704D01*
X9299Y10706D01*
X9777Y10228D01*
Y6722D01*
X9299Y6244D01*
X9293Y6246D01*
X9200Y6258D01*
X9107Y6246D01*
X9021Y6210D01*
X8947Y6153D01*
X8890Y6079D01*
X8854Y5993D01*
X8842Y5900D01*
X8854Y5807D01*
X8890Y5721D01*
X8947Y5647D01*
X9021Y5590D01*
X9107Y5554D01*
X9200Y5542D01*
X9293Y5554D01*
X9379Y5590D01*
X9453Y5647D01*
X9510Y5721D01*
X9546Y5807D01*
X9558Y5900D01*
X9546Y5993D01*
X9544Y5999D01*
X10073Y6527D01*
X10110Y6584D01*
X10123Y6650D01*
Y10300D01*
X10110Y10366D01*
X10073Y10423D01*
X9544Y10951D01*
X9546Y10957D01*
X9558Y11050D01*
X9546Y11143D01*
X9510Y11229D01*
X9453Y11303D01*
X9379Y11360D01*
X9293Y11396D01*
X9200Y11408D01*
X9107Y11396D01*
X9101Y11394D01*
X7673Y12823D01*
X7616Y12860D01*
X7550Y12873D01*
X5100D01*
X5034Y12860D01*
X4977Y12823D01*
X4602Y12447D01*
X4560Y12471D01*
X4596Y12557D01*
X4608Y12650D01*
X4596Y12743D01*
X4560Y12829D01*
X4503Y12903D01*
X4446Y12947D01*
X4463Y12997D01*
X7884D01*
X7910Y12947D01*
X7890Y12916D01*
X7877Y12850D01*
X7890Y12784D01*
X7927Y12727D01*
X7984Y12690D01*
X8050Y12677D01*
X10084D01*
X10110Y12627D01*
X10081Y12558D01*
X10069Y12465D01*
X10081Y12372D01*
X10117Y12286D01*
X10174Y12212D01*
X10248Y12155D01*
X10334Y12119D01*
X10427Y12107D01*
X10520Y12119D01*
X10606Y12155D01*
X10681Y12212D01*
X10738Y12286D01*
X10773Y12372D01*
X10786Y12465D01*
X10773Y12558D01*
X10738Y12644D01*
X10716Y12672D01*
X10738Y12717D01*
X12262D01*
X12284Y12672D01*
X12263Y12644D01*
X12227Y12558D01*
X12214Y12465D01*
X12227Y12372D01*
X12263Y12286D01*
X12319Y12212D01*
X12394Y12155D01*
X12480Y12119D01*
X12573Y12107D01*
X12666Y12119D01*
X12752Y12155D01*
X12826Y12212D01*
X12883Y12286D01*
X12919Y12372D01*
X12931Y12465D01*
X12919Y12558D01*
X12883Y12644D01*
X12862Y12672D01*
X12884Y12717D01*
X23088D01*
X23095Y12710D01*
Y12245D01*
X23805D01*
Y12955D01*
X23825Y12997D01*
X24361D01*
X24364Y12947D01*
X24357Y12946D01*
X24271Y12910D01*
X24197Y12853D01*
X24140Y12779D01*
X24104Y12693D01*
X24092Y12600D01*
X24104Y12507D01*
X24140Y12421D01*
X24197Y12347D01*
X24271Y12290D01*
X24357Y12254D01*
X24450Y12242D01*
X24543Y12254D01*
X24629Y12290D01*
X24703Y12347D01*
X24760Y12421D01*
X24796Y12507D01*
X24808Y12600D01*
X24796Y12693D01*
X24760Y12779D01*
X24703Y12853D01*
X24629Y12910D01*
X24543Y12946D01*
X24536Y12947D01*
X24539Y12997D01*
X25984D01*
X26043Y13009D01*
X26078Y13032D01*
X26213Y13021D01*
D02*
G37*
G36*
X27406Y3650D02*
X24650D01*
X24400Y3900D01*
Y9150D01*
X24650Y9400D01*
X27406D01*
Y3650D01*
D02*
G37*
%LPC*%
G36*
X6900Y11944D02*
Y11800D01*
X7044D01*
X7038Y11828D01*
X6994Y11894D01*
X6928Y11938D01*
X6900Y11944D01*
D02*
G37*
G36*
X6800D02*
X6772Y11938D01*
X6706Y11894D01*
X6662Y11828D01*
X6656Y11800D01*
X6800D01*
Y11944D01*
D02*
G37*
G36*
X7044Y11700D02*
X6900D01*
Y11556D01*
X6928Y11562D01*
X6994Y11606D01*
X7038Y11672D01*
X7044Y11700D01*
D02*
G37*
G36*
X6800D02*
X6656D01*
X6662Y11672D01*
X6706Y11606D01*
X6772Y11562D01*
X6800Y11556D01*
Y11700D01*
D02*
G37*
G36*
X21750Y12163D02*
X21656Y12151D01*
X21568Y12114D01*
X21493Y12057D01*
X21436Y11982D01*
X21399Y11894D01*
X21387Y11800D01*
X21399Y11706D01*
X21436Y11618D01*
X21493Y11543D01*
X21568Y11486D01*
X21656Y11449D01*
X21750Y11437D01*
X21844Y11449D01*
X21932Y11486D01*
X22007Y11543D01*
X22064Y11618D01*
X22101Y11706D01*
X22113Y11800D01*
X22101Y11894D01*
X22064Y11982D01*
X22007Y12057D01*
X21932Y12114D01*
X21844Y12151D01*
X21750Y12163D01*
D02*
G37*
G36*
X18750D02*
X18656Y12151D01*
X18568Y12114D01*
X18493Y12057D01*
X18436Y11982D01*
X18399Y11894D01*
X18387Y11800D01*
X18399Y11706D01*
X18436Y11618D01*
X18493Y11543D01*
X18568Y11486D01*
X18656Y11449D01*
X18750Y11437D01*
X18844Y11449D01*
X18932Y11486D01*
X19007Y11543D01*
X19064Y11618D01*
X19101Y11706D01*
X19113Y11800D01*
X19101Y11894D01*
X19064Y11982D01*
X19007Y12057D01*
X18932Y12114D01*
X18844Y12151D01*
X18750Y12163D01*
D02*
G37*
G36*
X3113Y11574D02*
X2680D01*
X2614Y11561D01*
X2559Y11524D01*
X2521Y11468D01*
X2508Y11402D01*
X2521Y11337D01*
X2539Y11311D01*
X2512Y11261D01*
X1568D01*
X1560Y11279D01*
X1503Y11353D01*
X1429Y11410D01*
X1343Y11446D01*
X1250Y11458D01*
X1157Y11446D01*
X1071Y11410D01*
X997Y11353D01*
X940Y11279D01*
X904Y11193D01*
X892Y11100D01*
X904Y11007D01*
X940Y10921D01*
X997Y10847D01*
X1071Y10790D01*
X1157Y10754D01*
X1250Y10742D01*
X1343Y10754D01*
X1429Y10790D01*
X1503Y10847D01*
X1555Y10914D01*
X2512D01*
X2539Y10864D01*
X2521Y10838D01*
X2508Y10772D01*
X2521Y10707D01*
X2559Y10651D01*
Y10627D01*
X2530Y10608D01*
X2484Y10539D01*
X2478Y10507D01*
X2896D01*
X3315D01*
X3309Y10539D01*
X3263Y10608D01*
X3234Y10627D01*
Y10651D01*
X3271Y10707D01*
X3285Y10772D01*
X3271Y10838D01*
X3234Y10894D01*
X3218Y10905D01*
Y10955D01*
X3234Y10966D01*
X3271Y11022D01*
X3285Y11087D01*
X3271Y11153D01*
X3234Y11209D01*
X3218Y11220D01*
Y11270D01*
X3234Y11281D01*
X3271Y11337D01*
X3285Y11402D01*
X3271Y11468D01*
X3234Y11524D01*
X3179Y11561D01*
X3113Y11574D01*
D02*
G37*
G36*
X16500Y12373D02*
X16434Y12360D01*
X16377Y12323D01*
X15927Y11873D01*
X15890Y11816D01*
X15877Y11750D01*
Y11543D01*
X15813D01*
Y11108D01*
X16287D01*
Y11543D01*
X16223D01*
Y11678D01*
X16623Y12077D01*
X16660Y12134D01*
X16673Y12200D01*
X16660Y12266D01*
X16623Y12323D01*
X16566Y12360D01*
X16500Y12373D01*
D02*
G37*
G36*
X15300Y12351D02*
X15234Y12338D01*
X15177Y12300D01*
X15140Y12244D01*
X15127Y12178D01*
Y11543D01*
X15063D01*
Y11108D01*
X15537D01*
Y11543D01*
X15473D01*
Y12178D01*
X15460Y12244D01*
X15423Y12300D01*
X15366Y12338D01*
X15300Y12351D01*
D02*
G37*
G36*
X8250Y11442D02*
Y11100D01*
X8592D01*
X8585Y11153D01*
X8545Y11249D01*
X8482Y11332D01*
X8399Y11395D01*
X8303Y11435D01*
X8250Y11442D01*
D02*
G37*
G36*
X8150D02*
X8097Y11435D01*
X8001Y11395D01*
X7918Y11332D01*
X7855Y11249D01*
X7815Y11153D01*
X7808Y11100D01*
X8150D01*
Y11442D01*
D02*
G37*
G36*
X13066Y11619D02*
X12158D01*
Y11291D01*
X12156Y11272D01*
X12158Y11253D01*
Y10925D01*
X13066D01*
Y11619D01*
D02*
G37*
G36*
X10841D02*
X9934D01*
Y10925D01*
X10841D01*
Y11253D01*
X10844Y11272D01*
X10841Y11291D01*
Y11619D01*
D02*
G37*
G36*
X16327Y11032D02*
X16100D01*
Y10824D01*
X16327D01*
Y11032D01*
D02*
G37*
G36*
X16000D02*
X15773D01*
Y10824D01*
X16000D01*
Y11032D01*
D02*
G37*
G36*
X14600D02*
Y10824D01*
X14827D01*
Y11032D01*
X14600D01*
D02*
G37*
G36*
X14787Y11543D02*
X14313D01*
Y11530D01*
X14276Y11499D01*
X14209Y11486D01*
X14153Y11448D01*
X13727Y11023D01*
X13690Y10966D01*
X13677Y10900D01*
Y10550D01*
X13690Y10484D01*
X13727Y10427D01*
X13784Y10390D01*
X13850Y10377D01*
X13916Y10390D01*
X13973Y10427D01*
X14010Y10484D01*
X14023Y10550D01*
Y10828D01*
X14223Y11028D01*
X14273Y11007D01*
X14273Y10992D01*
Y10824D01*
X14500D01*
Y11032D01*
X14313D01*
X14310Y11032D01*
X14289Y11078D01*
X14294Y11085D01*
X14316Y11108D01*
X14787D01*
Y11543D01*
D02*
G37*
G36*
X6420Y11574D02*
X5987D01*
X5921Y11561D01*
X5866Y11524D01*
X5828Y11468D01*
X5815Y11402D01*
X5828Y11337D01*
X5866Y11281D01*
X5882Y11270D01*
Y11220D01*
X5866Y11209D01*
X5828Y11153D01*
X5815Y11087D01*
X5828Y11022D01*
X5866Y10966D01*
Y10942D01*
X5837Y10923D01*
X5791Y10854D01*
X5785Y10822D01*
X6204D01*
X6622D01*
X6616Y10854D01*
X6570Y10923D01*
X6541Y10942D01*
Y10966D01*
X6579Y11022D01*
X6592Y11087D01*
X6579Y11153D01*
X6541Y11209D01*
X6525Y11220D01*
Y11270D01*
X6541Y11281D01*
X6579Y11337D01*
X6592Y11402D01*
X6579Y11468D01*
X6541Y11524D01*
X6486Y11561D01*
X6420Y11574D01*
D02*
G37*
G36*
X8592Y11000D02*
X8250D01*
Y10658D01*
X8303Y10665D01*
X8399Y10705D01*
X8482Y10768D01*
X8545Y10851D01*
X8585Y10947D01*
X8592Y11000D01*
D02*
G37*
G36*
X8150D02*
X7808D01*
X7815Y10947D01*
X7855Y10851D01*
X7918Y10768D01*
X8001Y10705D01*
X8097Y10665D01*
X8150Y10658D01*
Y11000D01*
D02*
G37*
G36*
X15537Y10992D02*
X15063D01*
Y10782D01*
X14873Y10593D01*
X14827Y10612D01*
Y10724D01*
X14600D01*
Y10517D01*
X14732D01*
X14751Y10471D01*
X12904Y8623D01*
X11150D01*
X11084Y8610D01*
X11027Y8573D01*
X10990Y8516D01*
X10977Y8450D01*
X10990Y8384D01*
X11027Y8327D01*
X11084Y8290D01*
X11150Y8277D01*
X12976D01*
X13042Y8290D01*
X13098Y8327D01*
X15328Y10557D01*
X15537D01*
Y10992D01*
D02*
G37*
G36*
X16327Y10724D02*
X16100D01*
Y10517D01*
X16327D01*
Y10724D01*
D02*
G37*
G36*
X16000D02*
X15773D01*
Y10517D01*
X16000D01*
Y10724D01*
D02*
G37*
G36*
X14500D02*
X14273D01*
Y10517D01*
X14500D01*
Y10724D01*
D02*
G37*
G36*
X22000Y10742D02*
Y10400D01*
X22342D01*
X22335Y10453D01*
X22295Y10549D01*
X22232Y10632D01*
X22149Y10695D01*
X22053Y10735D01*
X22000Y10742D01*
D02*
G37*
G36*
X21900D02*
X21847Y10735D01*
X21751Y10695D01*
X21668Y10632D01*
X21605Y10549D01*
X21565Y10453D01*
X21558Y10400D01*
X21900D01*
Y10742D01*
D02*
G37*
G36*
X25984Y12465D02*
X25820Y12452D01*
X25661Y12414D01*
X25509Y12351D01*
X25369Y12265D01*
X25244Y12158D01*
X25137Y12033D01*
X25051Y11893D01*
X24988Y11741D01*
X24950Y11581D01*
X24937Y11417D01*
X24950Y11253D01*
X24988Y11094D01*
X25051Y10942D01*
X25137Y10802D01*
X25244Y10677D01*
X25369Y10570D01*
X25509Y10484D01*
X25661Y10421D01*
X25820Y10383D01*
X25984Y10370D01*
X26148Y10383D01*
X26308Y10421D01*
X26460Y10484D01*
X26600Y10570D01*
X26725Y10677D01*
X26832Y10802D01*
X26918Y10942D01*
X26980Y11094D01*
X27019Y11253D01*
X27032Y11417D01*
X27019Y11581D01*
X26980Y11741D01*
X26918Y11893D01*
X26832Y12033D01*
X26725Y12158D01*
X26600Y12265D01*
X26460Y12351D01*
X26308Y12414D01*
X26148Y12452D01*
X25984Y12465D01*
D02*
G37*
G36*
X3315Y10407D02*
X2896D01*
X2478D01*
X2484Y10376D01*
X2530Y10307D01*
Y10293D01*
X2484Y10224D01*
X2478Y10193D01*
X2896D01*
X3315D01*
X3309Y10224D01*
X3263Y10293D01*
Y10307D01*
X3309Y10376D01*
X3315Y10407D01*
D02*
G37*
G36*
X1300Y10492D02*
Y10150D01*
X1642D01*
X1635Y10203D01*
X1595Y10299D01*
X1532Y10382D01*
X1449Y10445D01*
X1353Y10485D01*
X1300Y10492D01*
D02*
G37*
G36*
X1200D02*
X1147Y10485D01*
X1051Y10445D01*
X968Y10382D01*
X905Y10299D01*
X865Y10203D01*
X858Y10150D01*
X1200D01*
Y10492D01*
D02*
G37*
G36*
X21305Y10705D02*
X20595D01*
Y9995D01*
X21305D01*
Y10705D01*
D02*
G37*
G36*
X22342Y10300D02*
X22000D01*
Y9958D01*
X22053Y9965D01*
X22149Y10005D01*
X22232Y10068D01*
X22295Y10151D01*
X22335Y10247D01*
X22342Y10300D01*
D02*
G37*
G36*
X21900D02*
X21558D01*
X21565Y10247D01*
X21605Y10151D01*
X21668Y10068D01*
X21751Y10005D01*
X21847Y9965D01*
X21900Y9958D01*
Y10300D01*
D02*
G37*
G36*
X1642Y10050D02*
X1300D01*
Y9708D01*
X1353Y9715D01*
X1449Y9755D01*
X1532Y9818D01*
X1595Y9901D01*
X1635Y9997D01*
X1642Y10050D01*
D02*
G37*
G36*
X1200D02*
X858D01*
X865Y9997D01*
X905Y9901D01*
X968Y9818D01*
X1051Y9755D01*
X1147Y9715D01*
X1200Y9708D01*
Y10050D01*
D02*
G37*
G36*
X9200Y10408D02*
X9107Y10396D01*
X9021Y10360D01*
X8947Y10303D01*
X8890Y10229D01*
X8854Y10143D01*
X8842Y10050D01*
X8854Y9957D01*
X8890Y9871D01*
X8947Y9797D01*
X9021Y9740D01*
X9107Y9704D01*
X9200Y9692D01*
X9293Y9704D01*
X9379Y9740D01*
X9453Y9797D01*
X9510Y9871D01*
X9546Y9957D01*
X9558Y10050D01*
X9546Y10143D01*
X9510Y10229D01*
X9453Y10303D01*
X9379Y10360D01*
X9293Y10396D01*
X9200Y10408D01*
D02*
G37*
G36*
X8200D02*
X8107Y10396D01*
X8021Y10360D01*
X7947Y10303D01*
X7890Y10229D01*
X7854Y10143D01*
X7842Y10050D01*
X7854Y9957D01*
X7890Y9871D01*
X7947Y9797D01*
X8021Y9740D01*
X8107Y9704D01*
X8200Y9692D01*
X8293Y9704D01*
X8379Y9740D01*
X8453Y9797D01*
X8510Y9871D01*
X8546Y9957D01*
X8558Y10050D01*
X8546Y10143D01*
X8510Y10229D01*
X8453Y10303D01*
X8379Y10360D01*
X8293Y10396D01*
X8200Y10408D01*
D02*
G37*
G36*
X3315Y10093D02*
X2896D01*
X2478D01*
X2484Y10061D01*
X2530Y9992D01*
X2559Y9973D01*
Y9949D01*
X2521Y9893D01*
X2508Y9828D01*
X2521Y9762D01*
X2547Y9723D01*
X2525Y9673D01*
X2050D01*
X1984Y9660D01*
X1927Y9623D01*
X1651Y9347D01*
X1605Y9366D01*
Y9455D01*
X895D01*
Y8745D01*
X1605D01*
Y8927D01*
X1650D01*
X1716Y8940D01*
X1773Y8977D01*
X2122Y9327D01*
X2504D01*
X2530Y9277D01*
X2521Y9263D01*
X2508Y9198D01*
X2521Y9132D01*
X2559Y9076D01*
X2614Y9039D01*
X2680Y9026D01*
X2888D01*
X2896Y9024D01*
X3298D01*
X3314Y9002D01*
X3322Y8978D01*
X3289Y8929D01*
X3276Y8863D01*
Y8655D01*
X3274Y8646D01*
Y8273D01*
X2550D01*
X2484Y8260D01*
X2427Y8223D01*
X2390Y8166D01*
X2377Y8100D01*
X2390Y8034D01*
X2427Y7977D01*
X2484Y7940D01*
X2550Y7927D01*
X3016D01*
X3035Y7880D01*
X3027Y7873D01*
X2990Y7816D01*
X2977Y7750D01*
Y7200D01*
X2990Y7134D01*
X3027Y7077D01*
X3084Y7040D01*
X3150Y7027D01*
X3216Y7040D01*
X3224Y7045D01*
X3274Y7018D01*
Y6704D01*
X3276Y6695D01*
Y6487D01*
X3289Y6421D01*
X3326Y6366D01*
X3382Y6328D01*
X3448Y6315D01*
X3513Y6328D01*
X3569Y6366D01*
X3580Y6382D01*
X3630D01*
X3641Y6366D01*
X3697Y6328D01*
X3763Y6315D01*
X3828Y6328D01*
X3884Y6366D01*
X3908D01*
X3927Y6337D01*
X3996Y6291D01*
X4028Y6285D01*
Y6704D01*
Y7122D01*
X3996Y7116D01*
X3976Y7103D01*
X3925Y7129D01*
X3923Y7204D01*
X3908Y7270D01*
X3869Y7326D01*
X3812Y7362D01*
X3746Y7373D01*
X3680Y7358D01*
X3671Y7352D01*
X3621Y7378D01*
Y7526D01*
X3865Y7770D01*
X3905Y7763D01*
X3921Y7756D01*
X3955Y7705D01*
X4011Y7667D01*
X4078Y7654D01*
X4144Y7667D01*
X4200Y7705D01*
X4238Y7761D01*
X4251Y7828D01*
Y7888D01*
X4301Y7914D01*
X4326Y7897D01*
X4393Y7884D01*
X4459Y7897D01*
X4461Y7899D01*
X4462Y7899D01*
X4484Y7914D01*
X4534Y7887D01*
Y7857D01*
X4547Y7791D01*
X4585Y7735D01*
X4641Y7697D01*
X4707Y7684D01*
X4774Y7697D01*
X4830Y7735D01*
X4868Y7791D01*
X4881Y7857D01*
Y8262D01*
X4931Y8289D01*
X4957Y8271D01*
X5022Y8258D01*
X5088Y8271D01*
X5144Y8309D01*
X5155Y8325D01*
X5205D01*
X5216Y8309D01*
X5272Y8271D01*
X5337Y8258D01*
X5403Y8271D01*
X5459Y8309D01*
X5470Y8325D01*
X5520D01*
X5531Y8309D01*
X5587Y8271D01*
X5652Y8258D01*
X5718Y8271D01*
X5774Y8309D01*
X5811Y8364D01*
X5824Y8430D01*
Y8863D01*
X5811Y8929D01*
X5774Y8984D01*
X5718Y9021D01*
X5652Y9035D01*
X5587Y9021D01*
X5531Y8984D01*
X5520Y8968D01*
X5470D01*
X5459Y8984D01*
X5403Y9021D01*
X5337Y9035D01*
X5272Y9021D01*
X5216Y8984D01*
X5205Y8968D01*
X5155D01*
X5144Y8984D01*
X5088Y9021D01*
X5022Y9035D01*
X4957Y9021D01*
X4901Y8984D01*
X4890Y8968D01*
X4840D01*
X4829Y8984D01*
X4773Y9021D01*
X4707Y9035D01*
X4642Y9021D01*
X4586Y8984D01*
X4575Y8968D01*
X4525D01*
X4514Y8984D01*
X4458Y9021D01*
X4393Y9035D01*
X4327Y9021D01*
X4271Y8984D01*
X4260Y8968D01*
X4210D01*
X4199Y8984D01*
X4143Y9021D01*
X4078Y9035D01*
X4012Y9021D01*
X3986Y9004D01*
X3936Y9031D01*
Y9201D01*
X3942Y9208D01*
X3980Y9264D01*
X3993Y9330D01*
X3980Y9397D01*
X3959Y9428D01*
X3981Y9483D01*
X4016Y9490D01*
X4073Y9527D01*
X4110Y9584D01*
X4123Y9650D01*
X4110Y9716D01*
X4073Y9773D01*
X4016Y9810D01*
X3950Y9823D01*
X3750D01*
X3684Y9810D01*
X3627Y9773D01*
X3627Y9773D01*
X3328Y9473D01*
X3282Y9497D01*
X3285Y9513D01*
X3271Y9578D01*
X3234Y9634D01*
X3218Y9645D01*
Y9695D01*
X3234Y9706D01*
X3271Y9762D01*
X3285Y9828D01*
X3271Y9893D01*
X3234Y9949D01*
Y9973D01*
X3263Y9992D01*
X3309Y10061D01*
X3315Y10093D01*
D02*
G37*
G36*
X12850Y9444D02*
Y9300D01*
X12994D01*
X12988Y9328D01*
X12944Y9394D01*
X12878Y9438D01*
X12850Y9444D01*
D02*
G37*
G36*
X12750D02*
X12722Y9438D01*
X12656Y9394D01*
X12612Y9328D01*
X12606Y9300D01*
X12750D01*
Y9444D01*
D02*
G37*
G36*
X12994Y9200D02*
X12850D01*
Y9056D01*
X12878Y9062D01*
X12944Y9106D01*
X12988Y9172D01*
X12994Y9200D01*
D02*
G37*
G36*
X12750D02*
X12606D01*
X12612Y9172D01*
X12656Y9106D01*
X12722Y9062D01*
X12750Y9056D01*
Y9200D01*
D02*
G37*
G36*
X8200Y9408D02*
X8107Y9396D01*
X8021Y9360D01*
X7947Y9303D01*
X7890Y9229D01*
X7854Y9143D01*
X7842Y9050D01*
X7854Y8957D01*
X7890Y8871D01*
X7947Y8797D01*
X8021Y8740D01*
X8107Y8704D01*
X8200Y8692D01*
X8293Y8704D01*
X8379Y8740D01*
X8453Y8797D01*
X8510Y8871D01*
X8546Y8957D01*
X8558Y9050D01*
X8546Y9143D01*
X8510Y9229D01*
X8453Y9303D01*
X8379Y9360D01*
X8293Y9396D01*
X8200Y9408D01*
D02*
G37*
G36*
X6622Y10722D02*
X6204D01*
X5785D01*
X5791Y10691D01*
X5837Y10622D01*
X5866Y10603D01*
Y10579D01*
X5828Y10523D01*
X5815Y10457D01*
X5828Y10392D01*
X5866Y10336D01*
Y10312D01*
X5837Y10293D01*
X5791Y10224D01*
X5785Y10193D01*
X6204D01*
Y10093D01*
X5785D01*
X5791Y10061D01*
X5837Y9992D01*
X5866Y9973D01*
Y9949D01*
X5828Y9893D01*
X5815Y9828D01*
X5828Y9762D01*
X5866Y9706D01*
X5882Y9695D01*
Y9645D01*
X5866Y9634D01*
X5828Y9578D01*
X5815Y9513D01*
X5828Y9447D01*
X5866Y9391D01*
X5882Y9380D01*
Y9330D01*
X5866Y9319D01*
X5828Y9263D01*
X5815Y9198D01*
X5828Y9132D01*
X5866Y9076D01*
X5921Y9039D01*
X5987Y9026D01*
X6195D01*
X6204Y9024D01*
X6381D01*
X6720Y8685D01*
X6721Y8683D01*
X6690Y8645D01*
X6689Y8645D01*
X6666Y8660D01*
X6600Y8673D01*
X6534Y8660D01*
X6477Y8623D01*
X6440Y8566D01*
X6427Y8500D01*
X6440Y8434D01*
X6477Y8377D01*
X6777Y8078D01*
Y6372D01*
X6731Y6326D01*
X6204D01*
X6195Y6324D01*
X5987D01*
X5921Y6311D01*
X5866Y6274D01*
X5828Y6218D01*
X5815Y6152D01*
X5828Y6087D01*
X5866Y6031D01*
X5882Y6020D01*
Y5970D01*
X5866Y5959D01*
X5828Y5903D01*
X5815Y5837D01*
X5828Y5772D01*
X5866Y5716D01*
X5882Y5705D01*
Y5655D01*
X5866Y5644D01*
X5828Y5588D01*
X5815Y5522D01*
X5828Y5457D01*
X5866Y5401D01*
X5882Y5390D01*
Y5340D01*
X5866Y5329D01*
X5828Y5273D01*
X5815Y5207D01*
X5828Y5142D01*
X5866Y5086D01*
X5882Y5075D01*
Y5025D01*
X5866Y5014D01*
X5828Y4958D01*
X5815Y4893D01*
X5828Y4827D01*
X5866Y4771D01*
X5882Y4760D01*
Y4710D01*
X5866Y4699D01*
X5828Y4643D01*
X5815Y4578D01*
X5828Y4512D01*
X5846Y4486D01*
X5819Y4436D01*
X5250D01*
X5184Y4423D01*
X5127Y4385D01*
X5090Y4329D01*
X5077Y4263D01*
X5090Y4196D01*
X5127Y4140D01*
X5184Y4102D01*
X5250Y4089D01*
X5819D01*
X5846Y4039D01*
X5828Y4013D01*
X5815Y3948D01*
X5828Y3882D01*
X5866Y3826D01*
X5921Y3789D01*
X5987Y3776D01*
X6195D01*
X6204Y3774D01*
X6998D01*
X7064Y3787D01*
X7120Y3825D01*
X7123Y3827D01*
X7160Y3884D01*
X7173Y3950D01*
X7160Y4016D01*
X7123Y4073D01*
X7066Y4110D01*
X7000Y4123D01*
X6988Y4121D01*
X6937D01*
X6916Y4171D01*
X7472Y4727D01*
X7887D01*
X7890Y4721D01*
X7947Y4647D01*
X7977Y4623D01*
X7960Y4573D01*
X7550D01*
X7484Y4560D01*
X7427Y4523D01*
X7277Y4373D01*
X7240Y4316D01*
X7227Y4250D01*
Y3422D01*
X6528Y2723D01*
X5922D01*
X5826Y2819D01*
Y3396D01*
X5824Y3405D01*
Y3613D01*
X5811Y3679D01*
X5774Y3734D01*
X5718Y3771D01*
X5652Y3785D01*
X5587Y3771D01*
X5531Y3734D01*
X5520Y3718D01*
X5470D01*
X5459Y3734D01*
X5403Y3771D01*
X5337Y3785D01*
X5272Y3771D01*
X5216Y3734D01*
X5205Y3718D01*
X5155D01*
X5144Y3734D01*
X5088Y3771D01*
X5022Y3785D01*
X4957Y3771D01*
X4901Y3734D01*
X4877D01*
X4858Y3763D01*
X4789Y3809D01*
X4757Y3815D01*
Y3396D01*
Y2978D01*
X4789Y2984D01*
X4858Y3030D01*
X4877Y3059D01*
X4901D01*
X4957Y3021D01*
X5022Y3008D01*
X5088Y3021D01*
X5114Y3039D01*
X5164Y3012D01*
Y2663D01*
X5177Y2596D01*
X5215Y2540D01*
X5271Y2502D01*
X5337Y2489D01*
X5404Y2502D01*
X5460Y2540D01*
X5494Y2591D01*
X5510Y2598D01*
X5550Y2605D01*
X5727Y2427D01*
X5784Y2390D01*
X5850Y2377D01*
X6600D01*
X6666Y2390D01*
X6723Y2427D01*
X7523Y3227D01*
X7560Y3284D01*
X7573Y3350D01*
Y4178D01*
X7622Y4227D01*
X7960D01*
X7977Y4177D01*
X7947Y4153D01*
X7890Y4079D01*
X7854Y3993D01*
X7842Y3900D01*
X7854Y3807D01*
X7890Y3721D01*
X7947Y3647D01*
X8021Y3590D01*
X8107Y3554D01*
X8200Y3542D01*
X8293Y3554D01*
X8379Y3590D01*
X8453Y3647D01*
X8510Y3721D01*
X8546Y3807D01*
X8558Y3900D01*
X8546Y3993D01*
X8510Y4079D01*
X8453Y4153D01*
X8423Y4177D01*
X8440Y4227D01*
X8700D01*
X8766Y4240D01*
X8797Y4260D01*
X8845Y4232D01*
X8845Y4216D01*
X8845Y4216D01*
X8845Y4216D01*
Y3545D01*
X9555D01*
Y4255D01*
X8885D01*
X8871Y4255D01*
X8850Y4305D01*
X9101Y4556D01*
X9107Y4554D01*
X9200Y4542D01*
X9293Y4554D01*
X9379Y4590D01*
X9453Y4647D01*
X9510Y4721D01*
X9546Y4807D01*
X9558Y4900D01*
X9546Y4993D01*
X9510Y5079D01*
X9453Y5153D01*
X9379Y5210D01*
X9293Y5246D01*
X9200Y5258D01*
X9107Y5246D01*
X9021Y5210D01*
X8947Y5153D01*
X8890Y5079D01*
X8854Y4993D01*
X8842Y4900D01*
X8854Y4807D01*
X8856Y4801D01*
X8628Y4573D01*
X8440D01*
X8423Y4623D01*
X8453Y4647D01*
X8510Y4721D01*
X8546Y4807D01*
X8558Y4900D01*
X8546Y4993D01*
X8510Y5079D01*
X8453Y5153D01*
X8379Y5210D01*
X8293Y5246D01*
X8200Y5258D01*
X8107Y5246D01*
X8021Y5210D01*
X7947Y5153D01*
X7890Y5079D01*
X7887Y5073D01*
X7400D01*
X7400Y5073D01*
X7334Y5060D01*
X7277Y5023D01*
X6691Y4436D01*
X6588D01*
X6561Y4486D01*
X6579Y4512D01*
X6592Y4578D01*
X6579Y4643D01*
X6541Y4699D01*
X6525Y4710D01*
Y4760D01*
X6541Y4771D01*
X6579Y4827D01*
X6592Y4893D01*
X6579Y4958D01*
X6541Y5014D01*
X6525Y5025D01*
Y5075D01*
X6541Y5086D01*
X6579Y5142D01*
X6592Y5207D01*
X6579Y5273D01*
X6561Y5299D01*
X6588Y5349D01*
X7072D01*
X7139Y5362D01*
X7195Y5400D01*
X7223Y5427D01*
X7260Y5484D01*
X7273Y5550D01*
X7260Y5616D01*
X7223Y5673D01*
X7172Y5706D01*
X7159Y5735D01*
X7152Y5757D01*
X7323Y5927D01*
X7360Y5984D01*
X7373Y6050D01*
Y6570D01*
X7423Y6597D01*
X7434Y6590D01*
X7500Y6577D01*
X8650D01*
X8716Y6590D01*
X8773Y6627D01*
X8810Y6684D01*
X8823Y6750D01*
X8810Y6816D01*
X8773Y6873D01*
X8716Y6910D01*
X8650Y6923D01*
X7500D01*
X7434Y6910D01*
X7423Y6903D01*
X7373Y6930D01*
Y7470D01*
X7423Y7497D01*
X7434Y7490D01*
X7500Y7477D01*
X7566Y7490D01*
X7623Y7527D01*
X8272Y8177D01*
X8500D01*
X8566Y8190D01*
X8623Y8227D01*
X9090Y8695D01*
X9555D01*
Y9405D01*
X8845D01*
Y8940D01*
X8428Y8523D01*
X8200D01*
X8134Y8510D01*
X8077Y8473D01*
X8077Y8473D01*
X7423Y7818D01*
X7373Y7839D01*
Y8950D01*
X7360Y9016D01*
X7323Y9073D01*
X6760Y9635D01*
X6748Y9643D01*
Y9703D01*
X6750Y9705D01*
X7373Y10327D01*
X7410Y10384D01*
X7423Y10450D01*
X7410Y10516D01*
X7373Y10573D01*
X7365Y10580D01*
X7309Y10618D01*
X7243Y10631D01*
X6629D01*
X6605Y10675D01*
X6616Y10691D01*
X6622Y10722D01*
D02*
G37*
G36*
X24019Y8753D02*
X23074D01*
Y8250D01*
X24019D01*
Y8753D01*
D02*
G37*
G36*
X22974D02*
X22028D01*
Y8250D01*
X22974D01*
Y8753D01*
D02*
G37*
G36*
X11550Y8094D02*
Y7950D01*
X11694D01*
X11688Y7978D01*
X11644Y8044D01*
X11578Y8088D01*
X11550Y8094D01*
D02*
G37*
G36*
X11450D02*
X11422Y8088D01*
X11356Y8044D01*
X11312Y7978D01*
X11306Y7950D01*
X11450D01*
Y8094D01*
D02*
G37*
G36*
X11694Y7850D02*
X11550D01*
Y7706D01*
X11578Y7712D01*
X11644Y7756D01*
X11688Y7822D01*
X11694Y7850D01*
D02*
G37*
G36*
X11450D02*
X11306D01*
X11312Y7822D01*
X11356Y7756D01*
X11422Y7712D01*
X11450Y7706D01*
Y7850D01*
D02*
G37*
G36*
X24019Y8150D02*
X23074D01*
Y7647D01*
X24019D01*
Y8150D01*
D02*
G37*
G36*
X22974D02*
X22028D01*
Y7647D01*
X22974D01*
Y8150D01*
D02*
G37*
G36*
X5200Y8073D02*
X5134Y8060D01*
X5077Y8023D01*
X5040Y7966D01*
X5027Y7900D01*
X5040Y7834D01*
X5077Y7777D01*
X5165Y7690D01*
X5159Y7638D01*
X5152Y7632D01*
X5114Y7616D01*
X5089Y7633D01*
X5022Y7646D01*
X4872D01*
X4806Y7633D01*
X4750Y7595D01*
X4270Y7115D01*
X4262Y7103D01*
X4195Y7092D01*
X4159Y7116D01*
X4128Y7122D01*
Y6704D01*
Y6285D01*
X4159Y6291D01*
X4228Y6337D01*
X4247Y6366D01*
X4271D01*
X4327Y6328D01*
X4393Y6315D01*
X4458Y6328D01*
X4514Y6366D01*
X4538D01*
X4557Y6337D01*
X4626Y6291D01*
X4657Y6285D01*
Y6704D01*
X4757D01*
Y6285D01*
X4789Y6291D01*
X4858Y6337D01*
X4877Y6366D01*
X4901D01*
X4957Y6328D01*
X5022Y6315D01*
X5088Y6328D01*
X5144Y6366D01*
X5155Y6382D01*
X5205D01*
X5216Y6366D01*
X5272Y6328D01*
X5337Y6315D01*
X5403Y6328D01*
X5459Y6366D01*
X5470Y6382D01*
X5520D01*
X5531Y6366D01*
X5587Y6328D01*
X5652Y6315D01*
X5718Y6328D01*
X5774Y6366D01*
X5811Y6421D01*
X5824Y6487D01*
Y6695D01*
X5826Y6704D01*
X5824Y6712D01*
Y6920D01*
X5811Y6986D01*
X5784Y7027D01*
X5803Y7073D01*
X5806Y7077D01*
X6078D01*
X6127Y7028D01*
Y6600D01*
X6140Y6534D01*
X6177Y6477D01*
X6234Y6440D01*
X6300Y6427D01*
X6366Y6440D01*
X6423Y6477D01*
X6460Y6534D01*
X6473Y6600D01*
Y7100D01*
X6460Y7166D01*
X6423Y7223D01*
X6273Y7373D01*
X6216Y7410D01*
X6150Y7423D01*
X5700D01*
X5634Y7410D01*
X5577Y7373D01*
X5557Y7352D01*
X5511Y7371D01*
Y7566D01*
X5523Y7577D01*
X5560Y7634D01*
X5573Y7700D01*
X5560Y7766D01*
X5523Y7823D01*
X5323Y8023D01*
X5266Y8060D01*
X5200Y8073D01*
D02*
G37*
G36*
X750Y7663D02*
X656Y7651D01*
X568Y7614D01*
X493Y7557D01*
X436Y7482D01*
X399Y7394D01*
X387Y7300D01*
X399Y7206D01*
X436Y7118D01*
X493Y7043D01*
X568Y6986D01*
X656Y6949D01*
X750Y6937D01*
X844Y6949D01*
X932Y6986D01*
X1007Y7043D01*
X1064Y7118D01*
X1101Y7206D01*
X1113Y7300D01*
X1101Y7394D01*
X1064Y7482D01*
X1007Y7557D01*
X932Y7614D01*
X844Y7651D01*
X750Y7663D01*
D02*
G37*
G36*
X8250Y6292D02*
Y5950D01*
X8592D01*
X8585Y6003D01*
X8545Y6099D01*
X8482Y6182D01*
X8399Y6245D01*
X8303Y6285D01*
X8250Y6292D01*
D02*
G37*
G36*
X8150D02*
X8097Y6285D01*
X8001Y6245D01*
X7918Y6182D01*
X7855Y6099D01*
X7815Y6003D01*
X7808Y5950D01*
X8150D01*
Y6292D01*
D02*
G37*
G36*
X8592Y5850D02*
X8250D01*
Y5508D01*
X8303Y5515D01*
X8399Y5555D01*
X8482Y5618D01*
X8545Y5701D01*
X8585Y5797D01*
X8592Y5850D01*
D02*
G37*
G36*
X8150D02*
X7808D01*
X7815Y5797D01*
X7855Y5701D01*
X7918Y5618D01*
X8001Y5555D01*
X8097Y5515D01*
X8150Y5508D01*
Y5850D01*
D02*
G37*
G36*
X13780Y7347D02*
X13616Y7334D01*
X13456Y7295D01*
X13304Y7233D01*
X13164Y7147D01*
X13039Y7040D01*
X12932Y6915D01*
X12846Y6775D01*
X12783Y6623D01*
X12745Y6463D01*
X12732Y6299D01*
X12745Y6135D01*
X12783Y5976D01*
X12846Y5824D01*
X12932Y5684D01*
X13039Y5559D01*
X13164Y5452D01*
X13304Y5366D01*
X13456Y5303D01*
X13616Y5265D01*
X13780Y5252D01*
X13943Y5265D01*
X14103Y5303D01*
X14255Y5366D01*
X14395Y5452D01*
X14520Y5559D01*
X14627Y5684D01*
X14713Y5824D01*
X14776Y5976D01*
X14814Y6135D01*
X14827Y6299D01*
X14814Y6463D01*
X14776Y6623D01*
X14713Y6775D01*
X14627Y6915D01*
X14520Y7040D01*
X14395Y7147D01*
X14255Y7233D01*
X14103Y7295D01*
X13943Y7334D01*
X13780Y7347D01*
D02*
G37*
G36*
X24019Y5103D02*
X23074D01*
Y4600D01*
X24019D01*
Y5103D01*
D02*
G37*
G36*
X22974D02*
X22028D01*
Y4600D01*
X22974D01*
Y5103D01*
D02*
G37*
G36*
X24019Y4500D02*
X23074D01*
Y3997D01*
X24019D01*
Y4500D01*
D02*
G37*
G36*
X22974D02*
X22028D01*
Y3997D01*
X22974D01*
Y4500D01*
D02*
G37*
G36*
X750Y4663D02*
X656Y4651D01*
X568Y4614D01*
X493Y4557D01*
X436Y4482D01*
X399Y4394D01*
X387Y4300D01*
X399Y4206D01*
X436Y4118D01*
X493Y4043D01*
X568Y3986D01*
X656Y3949D01*
X750Y3937D01*
X844Y3949D01*
X932Y3986D01*
X1007Y4043D01*
X1064Y4118D01*
X1101Y4206D01*
X1113Y4300D01*
X1101Y4394D01*
X1064Y4482D01*
X1007Y4557D01*
X932Y4614D01*
X844Y4651D01*
X750Y4663D01*
D02*
G37*
G36*
X2000Y6973D02*
X1934Y6960D01*
X1877Y6923D01*
X1840Y6866D01*
X1827Y6800D01*
Y6500D01*
X1840Y6434D01*
X1877Y6377D01*
X2225Y6030D01*
X2281Y5992D01*
X2348Y5979D01*
X2512D01*
X2539Y5929D01*
X2521Y5903D01*
X2508Y5837D01*
X2521Y5772D01*
X2559Y5716D01*
X2575Y5705D01*
Y5655D01*
X2559Y5644D01*
X2521Y5588D01*
X2508Y5522D01*
X2521Y5457D01*
X2559Y5401D01*
X2575Y5390D01*
Y5340D01*
X2559Y5329D01*
X2521Y5273D01*
X2508Y5207D01*
X2521Y5142D01*
X2539Y5116D01*
X2512Y5066D01*
X2360D01*
X2293Y5053D01*
X2237Y5015D01*
X1777Y4555D01*
X1740Y4499D01*
X1727Y4433D01*
Y2850D01*
X1740Y2784D01*
X1777Y2727D01*
X1877Y2628D01*
X1852Y2582D01*
X1739Y2609D01*
X1575Y2622D01*
X1411Y2609D01*
X1251Y2571D01*
X1099Y2508D01*
X959Y2422D01*
X834Y2315D01*
X727Y2191D01*
X641Y2050D01*
X579Y1898D01*
X540Y1739D01*
X527Y1575D01*
X540Y1411D01*
X579Y1251D01*
X641Y1099D01*
X727Y959D01*
X834Y834D01*
X959Y727D01*
X1099Y641D01*
X1251Y579D01*
X1411Y540D01*
X1575Y527D01*
X1739Y540D01*
X1898Y579D01*
X2050Y641D01*
X2191Y727D01*
X2315Y834D01*
X2422Y959D01*
X2508Y1099D01*
X2527Y1144D01*
X2577Y1134D01*
Y1000D01*
X2590Y934D01*
X2627Y877D01*
X3227Y277D01*
X3284Y240D01*
X3350Y227D01*
X10250D01*
X10316Y240D01*
X10373Y277D01*
X12601Y2506D01*
X12607Y2504D01*
X12700Y2492D01*
X12793Y2504D01*
X12879Y2540D01*
X12953Y2597D01*
X13010Y2671D01*
X13046Y2757D01*
X13058Y2850D01*
X13046Y2943D01*
X13010Y3029D01*
X12953Y3103D01*
X12879Y3160D01*
X12793Y3196D01*
X12700Y3208D01*
X12607Y3196D01*
X12521Y3160D01*
X12447Y3103D01*
X12390Y3029D01*
X12354Y2943D01*
X12342Y2850D01*
X12354Y2757D01*
X12356Y2751D01*
X10178Y573D01*
X9734D01*
X9715Y620D01*
X11601Y2506D01*
X11607Y2504D01*
X11700Y2492D01*
X11793Y2504D01*
X11879Y2540D01*
X11953Y2597D01*
X12010Y2671D01*
X12046Y2757D01*
X12058Y2850D01*
X12046Y2943D01*
X12010Y3029D01*
X11953Y3103D01*
X11879Y3160D01*
X11793Y3196D01*
X11700Y3208D01*
X11607Y3196D01*
X11521Y3160D01*
X11447Y3103D01*
X11390Y3029D01*
X11354Y2943D01*
X11342Y2850D01*
X11354Y2757D01*
X11356Y2751D01*
X9378Y773D01*
X3733D01*
X3724Y823D01*
X3799Y855D01*
X3882Y918D01*
X3945Y1001D01*
X3985Y1097D01*
X3992Y1150D01*
X3600D01*
Y1200D01*
X3550D01*
Y1592D01*
X3497Y1585D01*
X3401Y1545D01*
X3318Y1482D01*
X3255Y1399D01*
X3215Y1303D01*
X3209Y1257D01*
X3160Y1241D01*
X3123Y1272D01*
Y2250D01*
X3123Y2250D01*
X3110Y2316D01*
X3073Y2373D01*
X3073Y2373D01*
X2273Y3172D01*
Y4278D01*
X2399Y4404D01*
X2512D01*
X2539Y4354D01*
X2521Y4328D01*
X2508Y4263D01*
X2521Y4197D01*
X2559Y4141D01*
X2575Y4130D01*
Y4080D01*
X2559Y4069D01*
X2521Y4013D01*
X2508Y3948D01*
X2521Y3882D01*
X2559Y3826D01*
X2614Y3789D01*
X2680Y3776D01*
X3113D01*
X3179Y3789D01*
X3234Y3826D01*
X3271Y3882D01*
X3285Y3948D01*
X3271Y4013D01*
X3234Y4069D01*
X3218Y4080D01*
Y4130D01*
X3234Y4141D01*
X3271Y4197D01*
X3285Y4263D01*
X3271Y4328D01*
X3234Y4384D01*
X3218Y4395D01*
Y4445D01*
X3234Y4456D01*
X3271Y4512D01*
X3285Y4578D01*
X3271Y4643D01*
X3234Y4699D01*
X3218Y4710D01*
Y4760D01*
X3234Y4771D01*
X3271Y4827D01*
X3285Y4893D01*
X3271Y4958D01*
X3254Y4984D01*
X3281Y5034D01*
X5293D01*
X5359Y5047D01*
X5415Y5085D01*
X5453Y5141D01*
X5466Y5207D01*
X5453Y5274D01*
X5415Y5330D01*
X5359Y5368D01*
X5293Y5381D01*
X4847D01*
X4826Y5431D01*
X4830Y5435D01*
X4868Y5491D01*
X4881Y5557D01*
X4868Y5624D01*
X4830Y5680D01*
X4774Y5718D01*
X4707Y5731D01*
X4641Y5718D01*
X4608Y5696D01*
X4512D01*
X4491Y5746D01*
X4523Y5777D01*
X4560Y5834D01*
X4573Y5900D01*
X4560Y5966D01*
X4523Y6023D01*
X4466Y6060D01*
X4400Y6073D01*
X4334Y6060D01*
X4277Y6023D01*
X4266Y6011D01*
X3281D01*
X3254Y6061D01*
X3271Y6087D01*
X3285Y6152D01*
X3271Y6218D01*
X3234Y6274D01*
X3179Y6311D01*
X3113Y6324D01*
X2905D01*
X2896Y6326D01*
X2419D01*
X2173Y6572D01*
Y6800D01*
X2160Y6866D01*
X2123Y6923D01*
X2066Y6960D01*
X2000Y6973D01*
D02*
G37*
G36*
X4657Y3815D02*
X4626Y3809D01*
X4557Y3763D01*
X4543D01*
X4474Y3809D01*
X4443Y3815D01*
Y3396D01*
Y2978D01*
X4474Y2984D01*
X4543Y3030D01*
X4557D01*
X4626Y2984D01*
X4657Y2978D01*
Y3396D01*
Y3815D01*
D02*
G37*
G36*
X4343Y3815D02*
X4311Y3809D01*
X4242Y3763D01*
X4223Y3734D01*
X4199D01*
X4143Y3771D01*
X4078Y3785D01*
X4012Y3771D01*
X3956Y3734D01*
X3945Y3718D01*
X3895D01*
X3884Y3734D01*
X3828Y3771D01*
X3763Y3785D01*
X3697Y3771D01*
X3641Y3734D01*
X3630Y3718D01*
X3580D01*
X3569Y3734D01*
X3513Y3771D01*
X3448Y3785D01*
X3382Y3771D01*
X3326Y3734D01*
X3289Y3679D01*
X3276Y3613D01*
Y3180D01*
X3289Y3114D01*
X3326Y3059D01*
X3382Y3021D01*
X3448Y3008D01*
X3513Y3021D01*
X3539Y3039D01*
X3589Y3012D01*
Y2463D01*
X3577Y2400D01*
X3590Y2334D01*
X3627Y2277D01*
X3684Y2240D01*
X3750Y2227D01*
X3816Y2240D01*
X3873Y2277D01*
X3885Y2290D01*
X3923Y2346D01*
X3936Y2413D01*
Y3012D01*
X3986Y3039D01*
X4012Y3021D01*
X4078Y3008D01*
X4143Y3021D01*
X4199Y3059D01*
X4223D01*
X4242Y3030D01*
X4311Y2984D01*
X4343Y2978D01*
Y3396D01*
Y3815D01*
D02*
G37*
G36*
X13750Y3242D02*
Y2900D01*
X14092D01*
X14085Y2953D01*
X14045Y3049D01*
X13982Y3132D01*
X13899Y3195D01*
X13803Y3235D01*
X13750Y3242D01*
D02*
G37*
G36*
X13650D02*
X13597Y3235D01*
X13501Y3195D01*
X13418Y3132D01*
X13355Y3049D01*
X13315Y2953D01*
X13308Y2900D01*
X13650D01*
Y3242D01*
D02*
G37*
G36*
X16055Y3205D02*
X15345D01*
Y2495D01*
X16055D01*
Y3205D01*
D02*
G37*
G36*
X14700Y3208D02*
X14607Y3196D01*
X14521Y3160D01*
X14447Y3103D01*
X14390Y3029D01*
X14354Y2943D01*
X14342Y2850D01*
X14354Y2757D01*
X14390Y2671D01*
X14447Y2597D01*
X14521Y2540D01*
X14607Y2504D01*
X14700Y2492D01*
X14793Y2504D01*
X14879Y2540D01*
X14953Y2597D01*
X15010Y2671D01*
X15046Y2757D01*
X15058Y2850D01*
X15046Y2943D01*
X15010Y3029D01*
X14953Y3103D01*
X14879Y3160D01*
X14793Y3196D01*
X14700Y3208D01*
D02*
G37*
G36*
X14092Y2800D02*
X13750D01*
Y2458D01*
X13803Y2465D01*
X13899Y2505D01*
X13982Y2568D01*
X14045Y2651D01*
X14085Y2747D01*
X14092Y2800D01*
D02*
G37*
G36*
X13650D02*
X13308D01*
X13315Y2747D01*
X13355Y2651D01*
X13418Y2568D01*
X13501Y2505D01*
X13597Y2465D01*
X13650Y2458D01*
Y2800D01*
D02*
G37*
G36*
X4850Y2873D02*
X4524D01*
X4458Y2860D01*
X4402Y2823D01*
X4372Y2793D01*
X4163D01*
Y2358D01*
X4637D01*
Y2527D01*
X4850D01*
X4916Y2540D01*
X4973Y2577D01*
X5010Y2634D01*
X5023Y2700D01*
X5010Y2766D01*
X4973Y2823D01*
X4916Y2860D01*
X4850Y2873D01*
D02*
G37*
G36*
X18700Y1692D02*
Y1350D01*
X19042D01*
X19035Y1403D01*
X18995Y1499D01*
X18932Y1582D01*
X18849Y1645D01*
X18753Y1685D01*
X18700Y1692D01*
D02*
G37*
G36*
X18600D02*
X18547Y1685D01*
X18451Y1645D01*
X18368Y1582D01*
X18305Y1499D01*
X18265Y1403D01*
X18258Y1350D01*
X18600D01*
Y1692D01*
D02*
G37*
G36*
X3650Y1592D02*
Y1250D01*
X3992D01*
X3985Y1303D01*
X3945Y1399D01*
X3882Y1482D01*
X3799Y1545D01*
X3703Y1585D01*
X3650Y1592D01*
D02*
G37*
G36*
X21005Y1655D02*
X20295D01*
Y945D01*
X21005D01*
Y1655D01*
D02*
G37*
G36*
X19650Y1658D02*
X19557Y1646D01*
X19471Y1610D01*
X19397Y1553D01*
X19340Y1479D01*
X19304Y1393D01*
X19292Y1300D01*
X19304Y1207D01*
X19340Y1121D01*
X19397Y1047D01*
X19471Y990D01*
X19557Y954D01*
X19650Y942D01*
X19743Y954D01*
X19829Y990D01*
X19903Y1047D01*
X19960Y1121D01*
X19996Y1207D01*
X20008Y1300D01*
X19996Y1393D01*
X19960Y1479D01*
X19903Y1553D01*
X19829Y1610D01*
X19743Y1646D01*
X19650Y1658D01*
D02*
G37*
G36*
X19042Y1250D02*
X18700D01*
Y908D01*
X18753Y915D01*
X18849Y955D01*
X18932Y1018D01*
X18995Y1101D01*
X19035Y1197D01*
X19042Y1250D01*
D02*
G37*
G36*
X18600D02*
X18258D01*
X18265Y1197D01*
X18305Y1101D01*
X18368Y1018D01*
X18451Y955D01*
X18547Y915D01*
X18600Y908D01*
Y1250D01*
D02*
G37*
G36*
X5955Y1555D02*
X5245D01*
Y845D01*
X5955D01*
Y1555D01*
D02*
G37*
G36*
X4637Y2242D02*
X4163D01*
Y1807D01*
X4227D01*
Y1400D01*
X4240Y1334D01*
X4259Y1305D01*
X4254Y1293D01*
X4242Y1200D01*
X4254Y1107D01*
X4290Y1021D01*
X4347Y947D01*
X4421Y890D01*
X4507Y854D01*
X4600Y842D01*
X4693Y854D01*
X4779Y890D01*
X4853Y947D01*
X4910Y1021D01*
X4946Y1107D01*
X4958Y1200D01*
X4946Y1293D01*
X4910Y1379D01*
X4853Y1453D01*
X4779Y1510D01*
X4693Y1546D01*
X4600Y1558D01*
X4573Y1582D01*
Y1807D01*
X4637D01*
Y2242D01*
D02*
G37*
G36*
X25984Y2622D02*
X25820Y2609D01*
X25661Y2571D01*
X25509Y2508D01*
X25369Y2422D01*
X25244Y2315D01*
X25137Y2191D01*
X25051Y2050D01*
X24988Y1898D01*
X24950Y1739D01*
X24937Y1575D01*
X24950Y1411D01*
X24988Y1251D01*
X25051Y1099D01*
X25137Y959D01*
X25244Y834D01*
X25369Y727D01*
X25509Y641D01*
X25661Y579D01*
X25820Y540D01*
X25984Y527D01*
X26148Y540D01*
X26308Y579D01*
X26460Y641D01*
X26600Y727D01*
X26725Y834D01*
X26832Y959D01*
X26918Y1099D01*
X26980Y1251D01*
X27019Y1411D01*
X27032Y1575D01*
X27019Y1739D01*
X26980Y1898D01*
X26918Y2050D01*
X26832Y2191D01*
X26725Y2315D01*
X26600Y2422D01*
X26460Y2508D01*
X26308Y2571D01*
X26148Y2609D01*
X25984Y2622D01*
D02*
G37*
G36*
X26972Y8753D02*
X26026D01*
Y8250D01*
X26972D01*
Y8753D01*
D02*
G37*
G36*
X25926D02*
X24981D01*
Y8250D01*
X25926D01*
Y8753D01*
D02*
G37*
G36*
X26972Y8150D02*
X26026D01*
Y7647D01*
X26972D01*
Y8150D01*
D02*
G37*
G36*
X25926D02*
X24981D01*
Y7647D01*
X25926D01*
Y8150D01*
D02*
G37*
G36*
X26750Y6847D02*
Y6500D01*
X27097D01*
X27090Y6554D01*
X27049Y6652D01*
X26985Y6735D01*
X26902Y6799D01*
X26804Y6840D01*
X26750Y6847D01*
D02*
G37*
G36*
X26650D02*
X26596Y6840D01*
X26498Y6799D01*
X26415Y6735D01*
X26351Y6652D01*
X26310Y6554D01*
X26303Y6500D01*
X26650D01*
Y6847D01*
D02*
G37*
G36*
X27097Y6400D02*
X26750D01*
Y6053D01*
X26804Y6060D01*
X26902Y6101D01*
X26985Y6165D01*
X27049Y6248D01*
X27090Y6346D01*
X27097Y6400D01*
D02*
G37*
G36*
X26650D02*
X26303D01*
X26310Y6346D01*
X26351Y6248D01*
X26415Y6165D01*
X26498Y6101D01*
X26596Y6060D01*
X26650Y6053D01*
Y6400D01*
D02*
G37*
G36*
X26972Y5103D02*
X26026D01*
Y4600D01*
X26972D01*
Y5103D01*
D02*
G37*
G36*
X25926D02*
X24981D01*
Y4600D01*
X25926D01*
Y5103D01*
D02*
G37*
G36*
X26972Y4500D02*
X26026D01*
Y3997D01*
X26972D01*
Y4500D01*
D02*
G37*
G36*
X25926D02*
X24981D01*
Y3997D01*
X25926D01*
Y4500D01*
D02*
G37*
%LPD*%
D10*
X4400Y2024D02*
D03*
Y2576D02*
D03*
X15300Y11326D02*
D03*
Y10774D02*
D03*
X14550Y11326D02*
D03*
Y10774D02*
D03*
X16050Y11326D02*
D03*
Y10774D02*
D03*
D19*
X7500Y6750D02*
X8650D01*
X5337Y7637D02*
X5400Y7700D01*
X5337Y6704D02*
Y7637D01*
X5200Y7900D02*
X5400Y7700D01*
X5600Y6756D02*
X5652Y6704D01*
X5600Y6756D02*
Y7150D01*
X5700Y7250D01*
X6150D01*
X6300Y7100D01*
Y6600D02*
Y7100D01*
X10211Y12850D02*
X10251Y12890D01*
X8050Y12850D02*
X10211D01*
X10251Y12890D02*
X23160D01*
X10250Y400D02*
X12700Y2850D01*
X9450Y600D02*
X11700Y2850D01*
X13850Y10550D02*
Y10900D01*
X14276Y11326D01*
X14550D01*
X15300Y11326D02*
Y12178D01*
X16050Y11750D02*
X16500Y12200D01*
X16050Y11326D02*
Y11750D01*
X12976Y8450D02*
X15300Y10774D01*
X11150Y8450D02*
X12976D01*
X4078Y7828D02*
Y8646D01*
X2000Y6500D02*
Y6800D01*
Y6500D02*
X2348Y6152D01*
X2896D01*
X4393Y8057D02*
Y8646D01*
X2896Y5837D02*
X4337D01*
X4400Y5900D01*
X4707Y7857D02*
Y8646D01*
X2896Y5522D02*
X4672D01*
X4707Y5557D01*
X3763Y7913D02*
Y8646D01*
X3448Y7598D02*
X3763Y7913D01*
X3448Y6704D02*
Y7598D01*
X3750Y7200D02*
X3763Y6704D01*
X3150Y7200D02*
Y7750D01*
X3448Y8048D01*
Y8646D01*
X6204Y6152D02*
X6802D01*
X6950Y6300D01*
Y8150D01*
X6600Y8500D02*
X6950Y8150D01*
X6204Y9513D02*
X6637D01*
X7200Y8950D01*
Y6050D02*
Y8950D01*
X6987Y5837D02*
X7200Y6050D01*
X6204Y5837D02*
X6987D01*
X6204Y9198D02*
X6452D01*
X6850Y8800D01*
X6204Y5522D02*
X7072D01*
X7100Y5550D01*
X4707Y11954D02*
Y12307D01*
X5100Y12700D01*
X7550D01*
X9200Y11050D01*
X2884Y9500D02*
X2896Y9513D01*
X3763Y8646D02*
Y9273D01*
X3820Y9330D01*
X9200Y11050D02*
X9950Y10300D01*
Y6650D02*
Y10300D01*
X9200Y5900D02*
X9950Y6650D01*
X2896Y5207D02*
X5293D01*
X9100Y4900D02*
X9200D01*
X8700Y4400D02*
X9200Y4900D01*
X7550Y4400D02*
X8700D01*
X5850Y2550D02*
X6600D01*
X5652Y2748D02*
X5850Y2550D01*
X5652Y2748D02*
Y3396D01*
X6204Y4263D02*
X6763D01*
X7400Y4900D01*
X8200D01*
X6600Y2550D02*
X7400Y3350D01*
Y4250D01*
X7550Y4400D01*
X6204Y3948D02*
X6998D01*
X7000Y3950D01*
X3395Y8100D02*
X3448Y8048D01*
X2550Y8100D02*
X3395D01*
X7500Y7650D02*
X8200Y8350D01*
X8500D01*
X9200Y9050D01*
X1263Y11087D02*
X2896D01*
X1250Y11100D02*
X1263Y11087D01*
X1250Y9100D02*
X1650D01*
X2050Y9500D01*
X2884D01*
X3763Y2413D02*
Y3396D01*
X3750Y2400D02*
X3763Y2413D01*
X5250Y4263D02*
X6204D01*
X4524Y2700D02*
X4850D01*
X4400Y2576D02*
X4524Y2700D01*
X4400Y1400D02*
Y2024D01*
Y1400D02*
X4600Y1200D01*
X2328Y4578D02*
X2896D01*
X2100Y4350D02*
X2328Y4578D01*
X2360Y4893D02*
X2896D01*
X2100Y3100D02*
Y4350D01*
Y3100D02*
X2950Y2250D01*
Y1200D02*
Y2250D01*
Y1200D02*
X3550Y600D01*
X9450D01*
X3350Y400D02*
X10250D01*
X1900Y4433D02*
X2360Y4893D01*
X1900Y2850D02*
Y4433D01*
Y2850D02*
X2750Y2000D01*
Y1000D02*
Y2000D01*
Y1000D02*
X3350Y400D01*
X5022Y6704D02*
Y7472D01*
X4393Y6704D02*
Y6993D01*
X4872Y7472D01*
X5022D01*
X5337Y2663D02*
Y3396D01*
X6204Y9828D02*
X6628D01*
X7250Y10450D01*
X6204Y10457D02*
X7243D01*
X7250Y10450D01*
X23160Y12890D02*
X23450Y12600D01*
X2896Y9198D02*
X3298D01*
X3750Y9650D01*
X3950D01*
D20*
X15300Y11326D02*
X15300Y11326D01*
D23*
X8650Y6750D02*
D03*
X7500D02*
D03*
X6300Y6600D02*
D03*
X5200Y7900D02*
D03*
X8050Y12850D02*
D03*
X15300Y12178D02*
D03*
X16500Y12200D02*
D03*
X13850Y10550D02*
D03*
X11150Y8450D02*
D03*
X12800Y9250D02*
D03*
X4400Y8050D02*
D03*
Y5900D02*
D03*
X4707Y7857D02*
D03*
Y5557D02*
D03*
X2000Y6800D02*
D03*
X4078Y7828D02*
D03*
X3750Y7200D02*
D03*
X3150D02*
D03*
X6600Y8500D02*
D03*
X3950Y9650D02*
D03*
X6850Y8800D02*
D03*
X7100Y5550D02*
D03*
X3800Y9350D02*
D03*
X5293Y5207D02*
D03*
X7000Y3950D02*
D03*
X2550Y8100D02*
D03*
X7500Y7650D02*
D03*
X11500Y7900D02*
D03*
X3750Y2400D02*
D03*
X5250Y4263D02*
D03*
X4850Y2700D02*
D03*
X5022Y7472D02*
D03*
X5337Y2663D02*
D03*
X7250Y10450D02*
D03*
X6850Y11750D02*
D03*
D24*
X15700Y2850D02*
D03*
X20950Y10350D02*
D03*
X3250Y12650D02*
D03*
X23450Y12600D02*
D03*
X5600Y1200D02*
D03*
X20650Y1300D02*
D03*
D25*
X14700Y2850D02*
D03*
X13700D02*
D03*
X12700D02*
D03*
X11700D02*
D03*
X8200Y11050D02*
D03*
X9200D02*
D03*
X8200Y10050D02*
D03*
X9200D02*
D03*
X8200Y9050D02*
D03*
Y5900D02*
D03*
X9200D02*
D03*
X8200Y4900D02*
D03*
X9200D02*
D03*
X8200Y3900D02*
D03*
X21950Y10350D02*
D03*
X4250Y12650D02*
D03*
X24450Y12600D02*
D03*
X1250Y11100D02*
D03*
Y10100D02*
D03*
X3600Y1200D02*
D03*
X4600D02*
D03*
X18650Y1300D02*
D03*
X19650D02*
D03*
X10427Y12465D02*
D03*
X12573D02*
D03*
D26*
X9200Y9050D02*
D03*
Y3900D02*
D03*
X1250Y9100D02*
D03*
D27*
X26700Y6450D02*
D03*
X18750Y11800D02*
D03*
X21750D02*
D03*
X750Y4300D02*
D03*
Y7300D02*
D03*
D28*
X25984Y1575D02*
D03*
Y11417D02*
D03*
X1575Y1575D02*
D03*
X13780Y6299D02*
D03*
D29*
X12455Y11272D02*
D03*
X10545D02*
D03*
D30*
X12612D02*
D03*
X10388D02*
D03*
D31*
X23024Y8200D02*
D03*
X25976D02*
D03*
X25976Y4550D02*
D03*
X23024D02*
D03*
D32*
X5652Y11954D02*
D03*
X5337D02*
D03*
X5022D02*
D03*
X4707D02*
D03*
X4393D02*
D03*
X4078D02*
D03*
X3763D02*
D03*
X3448D02*
D03*
Y8646D02*
D03*
X3763D02*
D03*
X4078D02*
D03*
X4393D02*
D03*
X4707D02*
D03*
X5022D02*
D03*
X5337D02*
D03*
X5652D02*
D03*
X3448Y3396D02*
D03*
X3763D02*
D03*
X4078D02*
D03*
X4393D02*
D03*
X4707D02*
D03*
X5022D02*
D03*
X5337D02*
D03*
X5652D02*
D03*
Y6704D02*
D03*
X5337D02*
D03*
X5022D02*
D03*
X4707D02*
D03*
X4393D02*
D03*
X4078D02*
D03*
X3763D02*
D03*
X3448D02*
D03*
D33*
X2896Y11402D02*
D03*
Y11087D02*
D03*
Y10772D02*
D03*
Y10457D02*
D03*
Y10143D02*
D03*
Y9828D02*
D03*
Y9513D02*
D03*
Y9198D02*
D03*
X6204D02*
D03*
Y9513D02*
D03*
Y9828D02*
D03*
Y10143D02*
D03*
Y10457D02*
D03*
Y10772D02*
D03*
Y11087D02*
D03*
Y11402D02*
D03*
X2896Y6152D02*
D03*
Y5837D02*
D03*
Y5522D02*
D03*
Y5207D02*
D03*
Y4893D02*
D03*
Y4578D02*
D03*
Y4263D02*
D03*
Y3948D02*
D03*
X6204D02*
D03*
Y4263D02*
D03*
Y4578D02*
D03*
Y4893D02*
D03*
Y5207D02*
D03*
Y5522D02*
D03*
Y5837D02*
D03*
Y6152D02*
D03*
M02*
