%FSTAX24Y24*%
%MOIN*%
%SFA1B1*%

%IPPOS*%
%ADD10R,0.035400X0.031500*%
%ADD11R,0.074800X0.102400*%
%ADD12R,0.118100X0.039400*%
%ADD13R,0.035400X0.037400*%
%ADD14R,0.015700X0.068900*%
%ADD15R,0.056100X0.098400*%
%ADD16R,0.051200X0.133900*%
%ADD17R,0.031500X0.035400*%
%ADD18R,0.025600X0.043300*%
%LNskateboardpcb-1*%
%LPD*%
G54D10*
X00145Y002824D03*
Y003376D03*
X0033Y002024D03*
Y002576D03*
X0128Y010276D03*
Y009724D03*
X01365Y008474D03*
Y009026D03*
X0104Y009976D03*
Y009424D03*
X00925Y012274D03*
Y012826D03*
X02465Y011526D03*
Y010974D03*
G54D11*
X002654Y00385D03*
X004346D03*
G54D12*
X010472Y000663D03*
Y002237D03*
X006928Y000663D03*
Y002237D03*
G54D13*
X01493Y0118D03*
X0143D03*
X01493Y01105D03*
X0143D03*
X01493Y01255D03*
X0143D03*
G54D14*
X010988Y011353D03*
X011244D03*
X0115D03*
X011756D03*
X012012D03*
G54D15*
X011126Y012494D03*
X011874D03*
G54D16*
X010427Y012367D03*
X012573D03*
G54D17*
X018976Y00295D03*
X018424D03*
X011774Y0008D03*
X012326D03*
X005124Y0127D03*
X005676D03*
G54D18*
X011126Y010172D03*
X011874D03*
Y009228D03*
X0115D03*
X011126D03*
M02*