%FSTAX24Y24*%
%MOIN*%
%SFA1B1*%

%IPPOS*%
%ADD39R,0.043400X0.039500*%
%ADD48C,0.028000*%
%ADD49R,0.067100X0.067100*%
%ADD50C,0.067100*%
%ADD51R,0.067100X0.067100*%
%ADD52C,0.068000*%
%ADD53C,0.204900*%
%ADD54C,0.055200*%
%ADD55R,0.086700X0.065500*%
%ADD56R,0.187100X0.098600*%
%ADD57O,0.029700X0.073000*%
%ADD58O,0.073000X0.029700*%
%LNskateboardpcb-1*%
%LPD*%
G54D39*
X0044Y002024D03*
Y002576D03*
X0153Y011326D03*
Y010774D03*
X01455Y011326D03*
Y010774D03*
X01605Y011326D03*
Y010774D03*
G54D48*
X00865Y00675D03*
X0075D03*
X0063Y0066D03*
X0052Y0079D03*
X00805Y01285D03*
X0153Y012178D03*
X0165Y0122D03*
X01385Y01055D03*
X01115Y00845D03*
X0128Y00925D03*
X0044Y00805D03*
Y0059D03*
X004707Y007857D03*
Y005557D03*
X002Y0068D03*
X004078Y007828D03*
X00375Y0072D03*
X00315D03*
X0066Y0085D03*
X00395Y00965D03*
X00685Y0088D03*
X0071Y00555D03*
X0038Y00935D03*
X005293Y005207D03*
X007Y00395D03*
X00255Y0081D03*
X0075Y00765D03*
X0115Y0079D03*
X00375Y0024D03*
X00525Y004263D03*
X00485Y0027D03*
X005022Y007472D03*
X005337Y002663D03*
X00725Y01045D03*
X00685Y01175D03*
G54D49*
X0157Y00285D03*
X02095Y01035D03*
X00325Y01265D03*
X02345Y0126D03*
X0056Y0012D03*
X02065Y0013D03*
G54D50*
X0147Y00285D03*
X0137D03*
X0127D03*
X0117D03*
X0082Y01105D03*
X0092D03*
X0082Y01005D03*
X0092D03*
X0082Y00905D03*
Y0059D03*
X0092D03*
X0082Y0049D03*
X0092D03*
X0082Y0039D03*
X02195Y01035D03*
X00425Y01265D03*
X02445Y0126D03*
X00125Y0111D03*
Y0101D03*
X0036Y0012D03*
X0046D03*
X01865Y0013D03*
X01965D03*
X010427Y012465D03*
X012573D03*
G54D51*
X0092Y00905D03*
Y0039D03*
X00125Y0091D03*
G54D52*
X0267Y00645D03*
X01875Y0118D03*
X02175D03*
X00075Y0043D03*
Y0073D03*
G54D53*
X025984Y001575D03*
Y011417D03*
X001575Y001575D03*
X01378Y006299D03*
G54D54*
X012455Y011272D03*
X010545D03*
G54D55*
X012612Y011272D03*
X010388D03*
G54D56*
X023024Y0082D03*
X025976D03*
Y00455D03*
X023024D03*
G54D57*
X005652Y011954D03*
X005337D03*
X005022D03*
X004707D03*
X004393D03*
X004078D03*
X003763D03*
X003448D03*
Y008646D03*
X003763D03*
X004078D03*
X004393D03*
X004707D03*
X005022D03*
X005337D03*
X005652D03*
X003448Y003396D03*
X003763D03*
X004078D03*
X004393D03*
X004707D03*
X005022D03*
X005337D03*
X005652D03*
Y006704D03*
X005337D03*
X005022D03*
X004707D03*
X004393D03*
X004078D03*
X003763D03*
X003448D03*
G54D58*
X002896Y011402D03*
Y011087D03*
Y010772D03*
Y010457D03*
Y010143D03*
Y009828D03*
Y009513D03*
Y009198D03*
X006204D03*
Y009513D03*
Y009828D03*
Y010143D03*
Y010457D03*
Y010772D03*
Y011087D03*
Y011402D03*
X002896Y006152D03*
Y005837D03*
Y005522D03*
Y005207D03*
Y004893D03*
Y004578D03*
Y004263D03*
Y003948D03*
X006204D03*
Y004263D03*
Y004578D03*
Y004893D03*
Y005207D03*
Y005522D03*
Y005837D03*
Y006152D03*
M02*