%FSTAX24Y24*%
%MOIN*%
%SFA1B1*%

%IPPOS*%
%ADD20C,0.010000*%
%ADD34C,0.009800*%
%ADD35C,0.007900*%
%ADD36C,0.007000*%
%ADD59C,0.023600*%
%LNskateboardpcb-1*%
%LPD*%
G36*
X021753Y00566D02*
Y005638D01*
Y005617*
X021624*
Y005638*
Y00566*
Y005681*
X021753*
Y00566*
G37*
G36*
X021882Y005725D02*
Y005703D01*
Y005681*
X021753*
Y005703*
Y005725*
Y005746*
X021882*
Y005725*
G37*
G36*
X016778Y005401D02*
Y00538D01*
Y005358*
X015615*
Y00538*
Y005401*
Y005423*
X016778*
Y005401*
G37*
G36*
Y005595D02*
Y005574D01*
Y005552*
X015615*
Y005574*
Y005595*
Y005617*
X016778*
Y005595*
G37*
G36*
X021753Y006112D02*
Y006091D01*
Y006069*
X021882*
Y006048*
Y006026*
Y006004*
X022011*
Y005983*
Y005961*
Y00594*
X022076*
Y005918*
Y005897*
Y005875*
Y005854*
Y005832*
Y005811*
X022011*
Y005832*
Y005854*
Y005875*
Y005897*
Y005918*
Y00594*
X021882*
Y005961*
Y005983*
Y006004*
X021753*
Y006026*
Y006048*
Y006069*
X021624*
Y006091*
Y006112*
Y006134*
X021753*
Y006112*
G37*
G36*
X016778Y005983D02*
Y005961D01*
Y00594*
X015615*
Y005961*
Y005983*
Y006004*
X016778*
Y005983*
G37*
G36*
Y005789D02*
Y005768D01*
Y005746*
X015615*
Y005768*
Y005789*
Y005811*
X016778*
Y005789*
G37*
G36*
X022011D02*
Y005768D01*
Y005746*
X021882*
Y005768*
Y005789*
Y005811*
X022011*
Y005789*
G37*
G36*
X021753Y005466D02*
Y005445D01*
Y005423*
X021882*
Y005401*
Y00538*
Y005358*
X022011*
Y005337*
Y005315*
Y005294*
X02214*
Y005272*
Y005251*
Y005229*
X02227*
Y005208*
Y005186*
Y005165*
X02214*
Y005186*
Y005208*
Y005229*
X022011*
Y005251*
Y005272*
Y005294*
X021882*
Y005315*
Y005337*
Y005358*
X021753*
Y00538*
Y005401*
Y005423*
X021624*
Y005445*
Y005466*
Y005488*
X021753*
Y005466*
G37*
G36*
X018975Y005078D02*
Y005057D01*
Y005035*
X018781*
Y005057*
Y005078*
Y0051*
X018975*
Y005078*
G37*
G36*
X019298D02*
Y005057D01*
Y005035*
X019104*
Y005057*
Y005078*
Y0051*
X019298*
Y005078*
G37*
G36*
X018329D02*
Y005057D01*
Y005035*
X018135*
Y005057*
Y005078*
Y0051*
X018329*
Y005078*
G37*
G36*
X018652D02*
Y005057D01*
Y005035*
X018458*
Y005057*
Y005078*
Y0051*
X018652*
Y005078*
G37*
G36*
X020267D02*
Y005057D01*
Y005035*
X020073*
Y005057*
Y005078*
Y0051*
X020267*
Y005078*
G37*
G36*
X016778Y005208D02*
Y005186D01*
Y005165*
X015615*
Y005186*
Y005208*
Y005229*
X016778*
Y005208*
G37*
G36*
X019621Y005078D02*
Y005057D01*
Y005035*
X019427*
Y005057*
Y005078*
Y0051*
X019621*
Y005078*
G37*
G36*
X019944D02*
Y005057D01*
Y005035*
X01975*
Y005057*
Y005078*
Y0051*
X019944*
Y005078*
G37*
G36*
X016778Y006177D02*
Y006155D01*
Y006134*
X015615*
Y006155*
Y006177*
Y006198*
X016778*
Y006177*
G37*
G36*
X018652Y006694D02*
Y006672D01*
Y006651*
X018458*
Y006672*
Y006694*
Y006715*
X018652*
Y006694*
G37*
G36*
X018975D02*
Y006672D01*
Y006651*
X018781*
Y006672*
Y006694*
Y006715*
X018975*
Y006694*
G37*
G36*
X02227Y006564D02*
Y006543D01*
Y006521*
X02214*
Y006543*
Y006564*
Y006586*
X02227*
Y006564*
G37*
G36*
X018329Y006694D02*
Y006672D01*
Y006651*
X018135*
Y006672*
Y006694*
Y006715*
X018329*
Y006694*
G37*
G36*
X019944D02*
Y006672D01*
Y006651*
X01975*
Y006672*
Y006694*
Y006715*
X019944*
Y006694*
G37*
G36*
X020267D02*
Y006672D01*
Y006651*
X020073*
Y006672*
Y006694*
Y006715*
X020267*
Y006694*
G37*
G36*
X019298D02*
Y006672D01*
Y006651*
X019104*
Y006672*
Y006694*
Y006715*
X019298*
Y006694*
G37*
G36*
X019621D02*
Y006672D01*
Y006651*
X019427*
Y006672*
Y006694*
Y006715*
X019621*
Y006694*
G37*
G36*
X016778Y006564D02*
Y006543D01*
Y006521*
X015615*
Y006543*
Y006564*
Y006586*
X016778*
Y006564*
G37*
G36*
Y006371D02*
Y006349D01*
Y006327*
X015615*
Y006349*
Y006371*
Y006392*
X016778*
Y006371*
G37*
G36*
X021882D02*
Y006349D01*
Y006327*
X021753*
Y006349*
Y006371*
Y006392*
X021882*
Y006371*
G37*
G36*
X021236Y006694D02*
Y006672D01*
Y006651*
Y006629*
Y006607*
Y006586*
Y006564*
Y006543*
Y006521*
Y0065*
Y006478*
Y006457*
Y006435*
Y006414*
Y006392*
Y006371*
Y006349*
Y006327*
Y006306*
Y006284*
Y006263*
X021042*
Y006241*
Y00622*
Y006198*
Y006177*
Y006155*
Y006134*
X021365*
Y006112*
Y006091*
Y006069*
X02143*
Y006048*
Y006026*
Y006004*
Y005983*
Y005961*
Y00594*
Y005918*
Y005897*
Y005875*
Y005854*
Y005832*
Y005811*
Y005789*
Y005768*
Y005746*
Y005725*
Y005703*
Y005681*
X021365*
Y00566*
Y005638*
Y005617*
X021042*
Y005595*
Y005574*
Y005552*
Y005531*
Y005509*
Y005488*
X021236*
Y005466*
Y005445*
Y005423*
Y005401*
Y00538*
Y005358*
Y005337*
Y005315*
Y005294*
Y005272*
Y005251*
Y005229*
Y005208*
Y005186*
Y005165*
Y005143*
Y005122*
Y0051*
Y005078*
Y005057*
Y005035*
X020719*
Y005057*
Y005078*
Y0051*
Y005122*
Y005143*
Y005165*
Y005186*
Y005208*
Y005229*
Y005251*
Y005272*
Y005294*
Y005315*
Y005337*
Y005358*
Y00538*
Y005401*
Y005423*
Y005445*
Y005466*
Y005488*
X020913*
Y005509*
Y005531*
Y005552*
Y005574*
Y005595*
Y005617*
X020719*
Y005595*
Y005574*
Y005552*
X020654*
Y005531*
Y005509*
Y005488*
X02059*
Y005466*
Y005445*
Y005423*
X020525*
Y005401*
Y00538*
Y005358*
Y005337*
Y005315*
Y005294*
Y005272*
Y005251*
Y005229*
X020461*
Y005208*
Y005186*
Y005165*
X018006*
Y005186*
Y005208*
Y005229*
X017941*
Y005251*
Y005272*
Y005294*
Y005315*
Y005337*
Y005358*
Y00538*
Y005401*
Y005423*
X017876*
Y005445*
Y005466*
Y005488*
X017812*
Y005509*
Y005531*
Y005552*
X017747*
Y005574*
Y005595*
Y005617*
X017553*
Y005595*
Y005574*
Y005552*
Y005531*
Y005509*
Y005488*
X017747*
Y005466*
Y005445*
Y005423*
Y005401*
Y00538*
Y005358*
Y005337*
Y005315*
Y005294*
Y005272*
Y005251*
Y005229*
Y005208*
Y005186*
Y005165*
Y005143*
Y005122*
Y0051*
Y005078*
Y005057*
Y005035*
X01723*
Y005057*
Y005078*
Y0051*
Y005122*
Y005143*
Y005165*
Y005186*
Y005208*
Y005229*
Y005251*
Y005272*
Y005294*
Y005315*
Y005337*
Y005358*
Y00538*
Y005401*
Y005423*
Y005445*
Y005466*
Y005488*
X017424*
Y005509*
Y005531*
Y005552*
Y005574*
Y005595*
Y005617*
X017101*
Y005638*
Y00566*
Y005681*
X017037*
Y005703*
Y005725*
Y005746*
Y005768*
Y005789*
Y005811*
Y005832*
Y005854*
Y005875*
Y005897*
Y005918*
Y00594*
Y005961*
Y005983*
Y006004*
Y006026*
Y006048*
Y006069*
X017101*
Y006091*
Y006112*
Y006134*
X017424*
Y006155*
Y006177*
Y006198*
Y00622*
Y006241*
Y006263*
X01723*
Y006284*
Y006306*
Y006327*
Y006349*
Y006371*
Y006392*
Y006414*
Y006435*
Y006457*
Y006478*
Y0065*
Y006521*
Y006543*
Y006564*
Y006586*
Y006607*
Y006629*
Y006651*
Y006672*
Y006694*
Y006715*
X017747*
Y006694*
Y006672*
Y006651*
Y006629*
Y006607*
Y006586*
Y006564*
Y006543*
Y006521*
Y0065*
Y006478*
Y006457*
Y006435*
Y006414*
Y006392*
Y006371*
Y006349*
Y006327*
Y006306*
Y006284*
Y006263*
X017553*
Y006241*
Y00622*
Y006198*
Y006177*
Y006155*
Y006134*
X017747*
Y006155*
Y006177*
Y006198*
X017812*
Y00622*
Y006241*
Y006263*
X017876*
Y006284*
Y006306*
Y006327*
X017941*
Y006349*
Y006371*
Y006392*
Y006414*
Y006435*
Y006457*
Y006478*
Y0065*
Y006521*
X018006*
Y006543*
Y006564*
Y006586*
X020461*
Y006564*
Y006543*
Y006521*
X020525*
Y0065*
Y006478*
Y006457*
Y006435*
Y006414*
Y006392*
Y006371*
Y006349*
Y006327*
X02059*
Y006306*
Y006284*
Y006263*
X020654*
Y006241*
Y00622*
Y006198*
X020719*
Y006177*
Y006155*
Y006134*
X020913*
Y006155*
Y006177*
Y006198*
Y00622*
Y006241*
Y006263*
X020719*
Y006284*
Y006306*
Y006327*
Y006349*
Y006371*
Y006392*
Y006414*
Y006435*
Y006457*
Y006478*
Y0065*
Y006521*
Y006543*
Y006564*
Y006586*
Y006607*
Y006629*
Y006651*
Y006672*
Y006694*
Y006715*
X021236*
Y006694*
G37*
G36*
X021753Y006306D02*
Y006284D01*
Y006263*
X021624*
Y006284*
Y006306*
Y006327*
X021753*
Y006306*
G37*
G36*
X02214Y0065D02*
Y006478D01*
Y006457*
X022011*
Y006478*
Y0065*
Y006521*
X02214*
Y0065*
G37*
G36*
X022011Y006435D02*
Y006414D01*
Y006392*
X021882*
Y006414*
Y006435*
Y006457*
X022011*
Y006435*
G37*
%LNskateboardpcb-2*%
%LPC*%
G36*
X021171Y005423D02*
X020784D01*
Y005401*
Y00538*
Y005358*
Y005337*
Y005315*
Y005294*
Y005272*
Y005251*
Y005229*
Y005208*
Y005186*
Y005165*
Y005143*
Y005122*
Y0051*
X021171*
Y005122*
Y005143*
Y005165*
Y005186*
Y005208*
Y005229*
Y005251*
Y005272*
Y005294*
Y005315*
Y005337*
Y005358*
Y00538*
Y005401*
Y005423*
G37*
G36*
X017683D02*
X017295D01*
Y005401*
Y00538*
Y005358*
Y005337*
Y005315*
Y005294*
Y005272*
Y005251*
Y005229*
Y005208*
Y005186*
Y005165*
Y005143*
Y005122*
Y0051*
X017683*
Y005122*
Y005143*
Y005165*
Y005186*
Y005208*
Y005229*
Y005251*
Y005272*
Y005294*
Y005315*
Y005337*
Y005358*
Y00538*
Y005401*
Y005423*
G37*
G36*
X021171Y006651D02*
X020784D01*
Y006629*
Y006607*
Y006586*
Y006564*
Y006543*
Y006521*
Y0065*
Y006478*
Y006457*
Y006435*
Y006414*
Y006392*
Y006371*
Y006349*
Y006327*
X021171*
Y006349*
Y006371*
Y006392*
Y006414*
Y006435*
Y006457*
Y006478*
Y0065*
Y006521*
Y006543*
Y006564*
Y006586*
Y006607*
Y006629*
Y006651*
G37*
G36*
X017683D02*
X017295D01*
Y006629*
Y006607*
Y006586*
Y006564*
Y006543*
Y006521*
Y0065*
Y006478*
Y006457*
Y006435*
Y006414*
Y006392*
Y006371*
Y006349*
Y006327*
X017683*
Y006349*
Y006371*
Y006392*
Y006414*
Y006435*
Y006457*
Y006478*
Y0065*
Y006521*
Y006543*
Y006564*
Y006586*
Y006607*
Y006629*
Y006651*
G37*
%LNskateboardpcb-3*%
%LPD*%
G54D20*
X007Y01265D02*
Y01215D01*
X0069Y01205*
X0067*
X0066Y01215*
Y01265*
X006Y01205D02*
X0064D01*
X006Y01245*
Y01255*
X0061Y01265*
X0063*
X0064Y01255*
X00653Y00803D02*
Y00753D01*
X00643Y00743*
X00623*
X00613Y00753*
Y00803*
X00593Y00793D02*
X00583Y00803D01*
X00563*
X00553Y00793*
Y00783*
X00563Y00773*
X00573*
X00563*
X00553Y00763*
Y00753*
X00563Y00743*
X00583*
X00593Y00753*
G54D34*
X006253Y011727D02*
D01*
D01*
G75*
G03X006155I-000049J0D01*
G74*G01*
D01*
G75*
G03X006253I000049J0D01*
G74*G01*
X003172Y006704D02*
D01*
D01*
G75*
G03X003074I-000049J0D01*
G74*G01*
D01*
G75*
G03X003172I000049J0D01*
G74*G01*
G54D35*
X022827Y007137D02*
Y007629D01*
Y007137D02*
X023437Y006527D01*
X022827Y009263D02*
X023437Y009873D01*
X022827Y008771D02*
Y009263D01*
X023437Y006527D02*
X026173D01*
Y007629*
Y008771D02*
Y009873D01*
X023437D02*
X026173D01*
X023437Y006223D02*
X026173D01*
Y005121D02*
Y006223D01*
Y002877D02*
Y003979D01*
X023437Y002877D02*
X026173D01*
X022827Y005121D02*
Y005613D01*
X023437Y006223*
X022827Y003487D02*
X023437Y002877D01*
X022827Y003487D02*
Y003979D01*
X003389Y009139D02*
X005711D01*
X003389Y011461D02*
X005711D01*
X003389Y009139D02*
Y011461D01*
X005711Y009139D02*
Y011461D01*
Y003889D02*
Y006211D01*
X003389Y003889D02*
Y006211D01*
Y003889D02*
X005711D01*
X003389Y006211D02*
X005711D01*
G54D36*
X0214Y0048D02*
Y0045D01*
X0212*
X02105D02*
X02095D01*
X0209Y00455*
Y00465*
X02095Y0047*
X02105*
X0211Y00465*
Y00455*
X02105Y0045*
X0208D02*
Y0047D01*
X02065*
X0206Y00465*
Y0045*
X0204Y0044D02*
X02035D01*
X0203Y00445*
Y0047*
X02045*
X0205Y00465*
Y00455*
X02045Y0045*
X0203*
X0202Y0048D02*
Y0045D01*
X02005*
X02Y00455*
Y0046*
Y00465*
X02005Y0047*
X0202*
X01985Y0045D02*
X019751D01*
X019701Y00455*
Y00465*
X019751Y0047*
X01985*
X0199Y00465*
Y00455*
X01985Y0045*
X019551Y0047D02*
X019451D01*
X019401Y00465*
Y0045*
X019551*
X019601Y00455*
X019551Y0046*
X019401*
X019301Y0047D02*
Y0045D01*
Y0046*
X019251Y00465*
X019201Y0047*
X019151*
X018801Y0048D02*
Y0045D01*
X018951*
X019001Y00455*
Y00465*
X018951Y0047*
X018801*
X018401Y0048D02*
Y0045D01*
X018201*
X018101D02*
X018001D01*
X018051*
Y0047*
X018101*
X017751Y0044D02*
X017701D01*
X017651Y00445*
Y0047*
X017801*
X017851Y00465*
Y00455*
X017801Y0045*
X017651*
X017551Y0048D02*
Y0045D01*
Y00465*
X017501Y0047*
X017401*
X017351Y00465*
Y0045*
X017201Y00475D02*
Y0047D01*
X017251*
X017151*
X017201*
Y00455*
X017151Y0045*
X017001D02*
X016851D01*
X016801Y00455*
X016851Y0046*
X016951*
X017001Y00465*
X016951Y0047*
X016801*
X016402Y0048D02*
Y0046D01*
X016302Y0045*
X016202Y0046*
Y0048*
X015902Y0045D02*
X016102D01*
X015902Y0047*
Y00475*
X015952Y0048*
X016052*
X016102Y00475*
X015802Y0045D02*
Y00455D01*
X015752*
Y0045*
X015802*
X015552Y00475D02*
X015502Y0048D01*
X015402*
X015352Y00475*
Y00455*
X015402Y0045*
X015502*
X015552Y00455*
Y00475*
X0217Y0043D02*
Y004D01*
X02155*
X0215Y00405*
Y00425*
X02155Y0043*
X0217*
X02125Y004D02*
X02135D01*
X0214Y00405*
Y00415*
X02135Y0042*
X02125*
X0212Y00415*
Y0041*
X0214*
X0211Y004D02*
X02095D01*
X0209Y00405*
X02095Y0041*
X02105*
X0211Y00415*
X02105Y0042*
X0209*
X0208Y004D02*
X0207D01*
X02075*
Y0042*
X0208*
X02045Y0039D02*
X0204D01*
X02035Y00395*
Y0042*
X0205*
X02055Y00415*
Y00405*
X0205Y004*
X02035*
X02025D02*
Y0042D01*
X020101*
X020051Y00415*
Y004*
X019801D02*
X019901D01*
X019951Y00405*
Y00415*
X019901Y0042*
X019801*
X019751Y00415*
Y0041*
X019951*
X019451Y0043D02*
Y004D01*
X019601*
X019651Y00405*
Y00415*
X019601Y0042*
X019451*
X019051Y0043D02*
Y004D01*
X018901*
X018851Y00405*
Y0041*
Y00415*
X018901Y0042*
X019051*
X018751D02*
Y00405D01*
X018701Y004*
X018551*
Y00395*
X018601Y0039*
X018651*
X018551Y004D02*
Y0042D01*
X018151Y0043D02*
Y004D01*
X018051Y0041*
X017951Y004*
Y0043*
X017851Y004D02*
X017751D01*
X017801*
Y0042*
X017851*
X017601Y004D02*
X017501D01*
X017551*
Y0043*
X017601*
X017351Y004D02*
X017251D01*
X017301*
Y0043*
X017351*
X017101Y004D02*
X017002D01*
X017052*
Y0042*
X017101*
X016802D02*
X016702D01*
X016652Y00415*
Y004*
X016802*
X016852Y00405*
X016802Y0041*
X016652*
X016552Y004D02*
Y0042D01*
X016502*
X016452Y00415*
Y004*
Y00415*
X016402Y0042*
X016352Y00415*
Y004*
X015952D02*
Y0043D01*
X015802*
X015752Y00425*
Y00415*
X015802Y0041*
X015952*
X015852D02*
X015752Y004D01*
X015652D02*
X015552D01*
X015602*
Y0042*
X015652*
X015302Y0039D02*
X015252D01*
X015202Y00395*
Y0042*
X015352*
X015402Y00415*
Y00405*
X015352Y004*
X015202*
X015102Y0043D02*
Y004D01*
X014952*
X014902Y00405*
Y0041*
Y00415*
X014952Y0042*
X015102*
X014802D02*
Y00405D01*
X014752Y004*
X014602*
Y00395*
X014652Y0039*
X014702*
X014602Y004D02*
Y0042D01*
X0053Y00205D02*
Y00235D01*
X00515*
X0051Y0023*
Y0022*
X00515Y00215*
X0053*
X0052D02*
X0051Y00205D01*
X00485D02*
Y00235D01*
X005Y0022*
X0048*
X02685Y00895D02*
X0269Y0089D01*
X027*
X02705Y00895*
Y00915*
X027Y0092*
X0269*
X02685Y00915*
X02675Y00895D02*
X0267Y0089D01*
X0266*
X02655Y00895*
Y009*
X0266Y00905*
X02665*
X0266*
X02655Y0091*
Y00915*
X0266Y0092*
X0267*
X02675Y00915*
X02685Y00575D02*
X0269Y0058D01*
X027*
X02705Y00575*
Y00555*
X027Y0055*
X0269*
X02685Y00555*
X0266Y0055D02*
Y0058D01*
X02675Y00565*
X02655*
X01555Y0101D02*
Y0104D01*
X0154*
X01535Y01035*
Y01025*
X0154Y0102*
X01555*
X01545D02*
X01535Y0101D01*
X01505D02*
X01525D01*
X01505Y0103*
Y01035*
X0151Y0104*
X0152*
X01525Y01035*
X0148Y0101D02*
Y0104D01*
X01465*
X0146Y01035*
Y01025*
X01465Y0102*
X0148*
X0147D02*
X0146Y0101D01*
X0145Y01035D02*
X01445Y0104D01*
X01435*
X0143Y01035*
Y0103*
X01435Y01025*
X0144*
X01435*
X0143Y0102*
Y01015*
X01435Y0101*
X01445*
X0145Y01015*
X0163Y0101D02*
Y0104D01*
X01615*
X0161Y01035*
Y01025*
X01615Y0102*
X0163*
X0162D02*
X0161Y0101D01*
X016Y0104D02*
X0158D01*
Y01035*
X016Y01015*
Y0101*
G54D59*
X005436Y011068D02*
D01*
D01*
G75*
G03X0052I-000118J0D01*
G74*G01*
D01*
G75*
G03X005436I000118J0D01*
G74*G01*
X0039Y005818D02*
D01*
D01*
G75*
G03X003664I-000118J0D01*
G74*G01*
D01*
G75*
G03X0039I000118J0D01*
G74*G01*
M02*