%FSTAX24Y24*%
%MOIN*%
%SFA1B1*%

%IPPOS*%
%ADD10R,0.035400X0.031500*%
%ADD19C,0.014000*%
%ADD20C,0.010000*%
%ADD23C,0.020000*%
%ADD24R,0.059100X0.059100*%
%ADD25C,0.059100*%
%ADD26R,0.059100X0.059100*%
%ADD27C,0.060000*%
%ADD28C,0.196900*%
%ADD29C,0.047200*%
%ADD30R,0.078700X0.057500*%
%ADD31R,0.179100X0.090600*%
%ADD32O,0.021700X0.065000*%
%ADD33O,0.065000X0.021700*%
%LNskateboardpcb-1*%
%LPD*%
G36*
X026213Y013021D02*
X026437Y012968D01*
X026649Y01288*
X026845Y01276*
X02702Y012611*
X027169Y012436*
X027289Y01224*
X027377Y012028*
X027431Y011804*
X027441Y011669*
X027418Y011634*
X027406Y011575*
Y009465*
X02465*
X024604Y009446*
X024354Y009196*
X024335Y00915*
Y0039*
X024354Y003854*
X024604Y003604*
X02465Y003585*
X027406*
Y001575*
X027418Y001516*
X027441Y001481*
X027431Y001346*
X027377Y001122*
X027289Y00091*
X027169Y000714*
X02702Y000539*
X026845Y00039*
X026649Y00027*
X026437Y000182*
X026213Y000129*
X026078Y000118*
X026043Y000141*
X025984Y000153*
X001575*
X001516Y000141*
X001481Y000118*
X001346Y000129*
X001122Y000182*
X00091Y00027*
X000714Y00039*
X000539Y000539*
X00039Y000714*
X00027Y00091*
X000182Y001122*
X000129Y001346*
X000118Y001481*
X000141Y001516*
X000153Y001575*
Y011575*
X000141Y011634*
X000118Y011669*
X000129Y011804*
X000182Y012028*
X00027Y01224*
X00039Y012436*
X000539Y012611*
X000714Y01276*
X00091Y01288*
X001122Y012968*
X001346Y013021*
X001481Y013032*
X001516Y013009*
X001575Y012997*
X002895*
Y012295*
X003268*
X003295Y012245*
X003289Y012236*
X003276Y01217*
Y011737*
X003289Y011671*
X003326Y011616*
X003382Y011579*
X003448Y011565*
X003513Y011579*
X003569Y011616*
X00358Y011632*
X00363*
X003641Y011616*
X003697Y011579*
X003763Y011565*
X003828Y011579*
X003884Y011616*
X003895Y011632*
X003945*
X003956Y011616*
X004012Y011579*
X004078Y011565*
X004143Y011579*
X004199Y011616*
X00421Y011632*
X00426*
X004271Y011616*
X004327Y011579*
X004393Y011565*
X004458Y011579*
X004514Y011616*
X004525Y011632*
X004575*
X004586Y011616*
X004642Y011579*
X004707Y011565*
X004773Y011579*
X004829Y011616*
X00484Y011632*
X00489*
X004901Y011616*
X004957Y011579*
X005022Y011565*
X005088Y011579*
X005144Y011616*
X005155Y011632*
X005205*
X005216Y011616*
X005272Y011579*
X005337Y011565*
X005403Y011579*
X005459Y011616*
X00547Y011632*
X00552*
X005531Y011616*
X005587Y011579*
X005652Y011565*
X005718Y011579*
X005774Y011616*
X005811Y011671*
X005824Y011737*
Y01217*
X005811Y012236*
X005774Y012291*
X005718Y012329*
X005652Y012342*
X005587Y012329*
X005531Y012291*
X00552Y012275*
X00547*
X005459Y012291*
X005403Y012329*
X005337Y012342*
X005272Y012329*
X005216Y012291*
X005205Y012275*
X005155*
X005144Y012291*
X005088Y012329*
X005052Y012336*
X005035Y01239*
X005172Y012527*
X007478*
X008856Y011149*
X008854Y011143*
X008842Y01105*
X008854Y010957*
X00889Y010871*
X008947Y010797*
X009021Y01074*
X009107Y010704*
X0092Y010692*
X009293Y010704*
X009299Y010706*
X009777Y010228*
Y006722*
X009299Y006244*
X009293Y006246*
X0092Y006258*
X009107Y006246*
X009021Y00621*
X008947Y006153*
X00889Y006079*
X008854Y005993*
X008842Y0059*
X008854Y005807*
X00889Y005721*
X008947Y005647*
X009021Y00559*
X009107Y005554*
X0092Y005542*
X009293Y005554*
X009379Y00559*
X009453Y005647*
X00951Y005721*
X009546Y005807*
X009558Y0059*
X009546Y005993*
X009544Y005999*
X010073Y006527*
X01011Y006584*
X010123Y00665*
Y0103*
X01011Y010366*
X010073Y010423*
X009544Y010951*
X009546Y010957*
X009558Y01105*
X009546Y011143*
X00951Y011229*
X009453Y011303*
X009379Y01136*
X009293Y011396*
X0092Y011408*
X009107Y011396*
X009101Y011394*
X007673Y012823*
X007616Y01286*
X00755Y012873*
X0051*
X005034Y01286*
X004977Y012823*
X004602Y012447*
X00456Y012471*
X004596Y012557*
X004608Y01265*
X004596Y012743*
X00456Y012829*
X004503Y012903*
X004446Y012947*
X004463Y012997*
X007884*
X00791Y012947*
X00789Y012916*
X007877Y01285*
X00789Y012784*
X007927Y012727*
X007984Y01269*
X00805Y012677*
X010084*
X01011Y012627*
X010081Y012558*
X010069Y012465*
X010081Y012372*
X010117Y012286*
X010174Y012212*
X010248Y012155*
X010334Y012119*
X010427Y012107*
X01052Y012119*
X010606Y012155*
X010681Y012212*
X010738Y012286*
X010773Y012372*
X010786Y012465*
X010773Y012558*
X010738Y012644*
X010716Y012672*
X010738Y012717*
X012262*
X012284Y012672*
X012263Y012644*
X012227Y012558*
X012214Y012465*
X012227Y012372*
X012263Y012286*
X012319Y012212*
X012394Y012155*
X01248Y012119*
X012573Y012107*
X012666Y012119*
X012752Y012155*
X012826Y012212*
X012883Y012286*
X012919Y012372*
X012931Y012465*
X012919Y012558*
X012883Y012644*
X012862Y012672*
X012884Y012717*
X023088*
X023095Y01271*
Y012245*
X023805*
Y012955*
X023825Y012997*
X024361*
X024364Y012947*
X024357Y012946*
X024271Y01291*
X024197Y012853*
X02414Y012779*
X024104Y012693*
X024092Y0126*
X024104Y012507*
X02414Y012421*
X024197Y012347*
X024271Y01229*
X024357Y012254*
X02445Y012242*
X024543Y012254*
X024629Y01229*
X024703Y012347*
X02476Y012421*
X024796Y012507*
X024808Y0126*
X024796Y012693*
X02476Y012779*
X024703Y012853*
X024629Y01291*
X024543Y012946*
X024536Y012947*
X024539Y012997*
X025984*
X026043Y013009*
X026078Y013032*
X026213Y013021*
G37*
G36*
X027406Y00365D02*
X02465D01*
X0244Y0039*
Y00915*
X02465Y0094*
X027406*
Y00365*
G37*
%LNskateboardpcb-2*%
%LPC*%
G36*
X0069Y011944D02*
Y0118D01*
X007044*
X007038Y011828*
X006994Y011894*
X006928Y011938*
X0069Y011944*
G37*
G36*
X0068D02*
X006772Y011938D01*
X006706Y011894*
X006662Y011828*
X006656Y0118*
X0068*
Y011944*
G37*
G36*
X007044Y0117D02*
X0069D01*
Y011556*
X006928Y011562*
X006994Y011606*
X007038Y011672*
X007044Y0117*
G37*
G36*
X0068D02*
X006656D01*
X006662Y011672*
X006706Y011606*
X006772Y011562*
X0068Y011556*
Y0117*
G37*
G36*
X02175Y012163D02*
X021656Y012151D01*
X021568Y012114*
X021493Y012057*
X021436Y011982*
X021399Y011894*
X021387Y0118*
X021399Y011706*
X021436Y011618*
X021493Y011543*
X021568Y011486*
X021656Y011449*
X02175Y011437*
X021844Y011449*
X021932Y011486*
X022007Y011543*
X022064Y011618*
X022101Y011706*
X022113Y0118*
X022101Y011894*
X022064Y011982*
X022007Y012057*
X021932Y012114*
X021844Y012151*
X02175Y012163*
G37*
G36*
X01875D02*
X018656Y012151D01*
X018568Y012114*
X018493Y012057*
X018436Y011982*
X018399Y011894*
X018387Y0118*
X018399Y011706*
X018436Y011618*
X018493Y011543*
X018568Y011486*
X018656Y011449*
X01875Y011437*
X018844Y011449*
X018932Y011486*
X019007Y011543*
X019064Y011618*
X019101Y011706*
X019113Y0118*
X019101Y011894*
X019064Y011982*
X019007Y012057*
X018932Y012114*
X018844Y012151*
X01875Y012163*
G37*
G36*
X003113Y011574D02*
X00268D01*
X002614Y011561*
X002559Y011524*
X002521Y011468*
X002508Y011402*
X002521Y011337*
X002539Y011311*
X002512Y011261*
X001568*
X00156Y011279*
X001503Y011353*
X001429Y01141*
X001343Y011446*
X00125Y011458*
X001157Y011446*
X001071Y01141*
X000997Y011353*
X00094Y011279*
X000904Y011193*
X000892Y0111*
X000904Y011007*
X00094Y010921*
X000997Y010847*
X001071Y01079*
X001157Y010754*
X00125Y010742*
X001343Y010754*
X001429Y01079*
X001503Y010847*
X001555Y010914*
X002512*
X002539Y010864*
X002521Y010838*
X002508Y010772*
X002521Y010707*
X002559Y010651*
Y010627*
X00253Y010608*
X002484Y010539*
X002478Y010507*
X002896*
X003315*
X003309Y010539*
X003263Y010608*
X003234Y010627*
Y010651*
X003271Y010707*
X003285Y010772*
X003271Y010838*
X003234Y010894*
X003218Y010905*
Y010955*
X003234Y010966*
X003271Y011022*
X003285Y011087*
X003271Y011153*
X003234Y011209*
X003218Y01122*
Y01127*
X003234Y011281*
X003271Y011337*
X003285Y011402*
X003271Y011468*
X003234Y011524*
X003179Y011561*
X003113Y011574*
G37*
G36*
X0165Y012373D02*
X016434Y01236D01*
X016377Y012323*
X015927Y011873*
X01589Y011816*
X015877Y01175*
Y011543*
X015813*
Y011108*
X016287*
Y011543*
X016223*
Y011678*
X016623Y012077*
X01666Y012134*
X016673Y0122*
X01666Y012266*
X016623Y012323*
X016566Y01236*
X0165Y012373*
G37*
G36*
X0153Y012351D02*
X015234Y012338D01*
X015177Y0123*
X01514Y012244*
X015127Y012178*
Y011543*
X015063*
Y011108*
X015537*
Y011543*
X015473*
Y012178*
X01546Y012244*
X015423Y0123*
X015366Y012338*
X0153Y012351*
G37*
G36*
X00825Y011442D02*
Y0111D01*
X008592*
X008585Y011153*
X008545Y011249*
X008482Y011332*
X008399Y011395*
X008303Y011435*
X00825Y011442*
G37*
G36*
X00815D02*
X008097Y011435D01*
X008001Y011395*
X007918Y011332*
X007855Y011249*
X007815Y011153*
X007808Y0111*
X00815*
Y011442*
G37*
G36*
X013066Y011619D02*
X012158D01*
Y011291*
X012156Y011272*
X012158Y011253*
Y010925*
X013066*
Y011619*
G37*
G36*
X010841D02*
X009934D01*
Y010925*
X010841*
Y011253*
X010844Y011272*
X010841Y011291*
Y011619*
G37*
G36*
X016327Y011032D02*
X0161D01*
Y010824*
X016327*
Y011032*
G37*
G36*
X016D02*
X015773D01*
Y010824*
X016*
Y011032*
G37*
G36*
X0146D02*
Y010824D01*
X014827*
Y011032*
X0146*
G37*
G36*
X014787Y011543D02*
X014313D01*
Y01153*
X014276Y011499*
X014209Y011486*
X014153Y011448*
X013727Y011023*
X01369Y010966*
X013677Y0109*
Y01055*
X01369Y010484*
X013727Y010427*
X013784Y01039*
X01385Y010377*
X013916Y01039*
X013973Y010427*
X01401Y010484*
X014023Y01055*
Y010828*
X014223Y011028*
X014273Y011007*
Y010992*
Y010824*
X0145*
Y011032*
X014313*
X01431*
X014289Y011078*
X014294Y011085*
X014316Y011108*
X014787*
Y011543*
G37*
G36*
X00642Y011574D02*
X005987D01*
X005921Y011561*
X005866Y011524*
X005828Y011468*
X005815Y011402*
X005828Y011337*
X005866Y011281*
X005882Y01127*
Y01122*
X005866Y011209*
X005828Y011153*
X005815Y011087*
X005828Y011022*
X005866Y010966*
Y010942*
X005837Y010923*
X005791Y010854*
X005785Y010822*
X006204*
X006622*
X006616Y010854*
X00657Y010923*
X006541Y010942*
Y010966*
X006579Y011022*
X006592Y011087*
X006579Y011153*
X006541Y011209*
X006525Y01122*
Y01127*
X006541Y011281*
X006579Y011337*
X006592Y011402*
X006579Y011468*
X006541Y011524*
X006486Y011561*
X00642Y011574*
G37*
G36*
X008592Y011D02*
X00825D01*
Y010658*
X008303Y010665*
X008399Y010705*
X008482Y010768*
X008545Y010851*
X008585Y010947*
X008592Y011*
G37*
G36*
X00815D02*
X007808D01*
X007815Y010947*
X007855Y010851*
X007918Y010768*
X008001Y010705*
X008097Y010665*
X00815Y010658*
Y011*
G37*
G36*
X015537Y010992D02*
X015063D01*
Y010782*
X014873Y010593*
X014827Y010612*
Y010724*
X0146*
Y010517*
X014732*
X014751Y010471*
X012904Y008623*
X01115*
X011084Y00861*
X011027Y008573*
X01099Y008516*
X010977Y00845*
X01099Y008384*
X011027Y008327*
X011084Y00829*
X01115Y008277*
X012976*
X013042Y00829*
X013098Y008327*
X015328Y010557*
X015537*
Y010992*
G37*
G36*
X016327Y010724D02*
X0161D01*
Y010517*
X016327*
Y010724*
G37*
G36*
X016D02*
X015773D01*
Y010517*
X016*
Y010724*
G37*
G36*
X0145D02*
X014273D01*
Y010517*
X0145*
Y010724*
G37*
G36*
X022Y010742D02*
Y0104D01*
X022342*
X022335Y010453*
X022295Y010549*
X022232Y010632*
X022149Y010695*
X022053Y010735*
X022Y010742*
G37*
G36*
X0219D02*
X021847Y010735D01*
X021751Y010695*
X021668Y010632*
X021605Y010549*
X021565Y010453*
X021558Y0104*
X0219*
Y010742*
G37*
G36*
X025984Y012465D02*
X02582Y012452D01*
X025661Y012414*
X025509Y012351*
X025369Y012265*
X025244Y012158*
X025137Y012033*
X025051Y011893*
X024988Y011741*
X02495Y011581*
X024937Y011417*
X02495Y011253*
X024988Y011094*
X025051Y010942*
X025137Y010802*
X025244Y010677*
X025369Y01057*
X025509Y010484*
X025661Y010421*
X02582Y010383*
X025984Y01037*
X026148Y010383*
X026308Y010421*
X02646Y010484*
X0266Y01057*
X026725Y010677*
X026832Y010802*
X026918Y010942*
X02698Y011094*
X027019Y011253*
X027032Y011417*
X027019Y011581*
X02698Y011741*
X026918Y011893*
X026832Y012033*
X026725Y012158*
X0266Y012265*
X02646Y012351*
X026308Y012414*
X026148Y012452*
X025984Y012465*
G37*
G36*
X003315Y010407D02*
X002896D01*
X002478*
X002484Y010376*
X00253Y010307*
Y010293*
X002484Y010224*
X002478Y010193*
X002896*
X003315*
X003309Y010224*
X003263Y010293*
Y010307*
X003309Y010376*
X003315Y010407*
G37*
G36*
X0013Y010492D02*
Y01015D01*
X001642*
X001635Y010203*
X001595Y010299*
X001532Y010382*
X001449Y010445*
X001353Y010485*
X0013Y010492*
G37*
G36*
X0012D02*
X001147Y010485D01*
X001051Y010445*
X000968Y010382*
X000905Y010299*
X000865Y010203*
X000858Y01015*
X0012*
Y010492*
G37*
G36*
X021305Y010705D02*
X020595D01*
Y009995*
X021305*
Y010705*
G37*
G36*
X022342Y0103D02*
X022D01*
Y009958*
X022053Y009965*
X022149Y010005*
X022232Y010068*
X022295Y010151*
X022335Y010247*
X022342Y0103*
G37*
G36*
X0219D02*
X021558D01*
X021565Y010247*
X021605Y010151*
X021668Y010068*
X021751Y010005*
X021847Y009965*
X0219Y009958*
Y0103*
G37*
G36*
X001642Y01005D02*
X0013D01*
Y009708*
X001353Y009715*
X001449Y009755*
X001532Y009818*
X001595Y009901*
X001635Y009997*
X001642Y01005*
G37*
G36*
X0012D02*
X000858D01*
X000865Y009997*
X000905Y009901*
X000968Y009818*
X001051Y009755*
X001147Y009715*
X0012Y009708*
Y01005*
G37*
G36*
X0092Y010408D02*
X009107Y010396D01*
X009021Y01036*
X008947Y010303*
X00889Y010229*
X008854Y010143*
X008842Y01005*
X008854Y009957*
X00889Y009871*
X008947Y009797*
X009021Y00974*
X009107Y009704*
X0092Y009692*
X009293Y009704*
X009379Y00974*
X009453Y009797*
X00951Y009871*
X009546Y009957*
X009558Y01005*
X009546Y010143*
X00951Y010229*
X009453Y010303*
X009379Y01036*
X009293Y010396*
X0092Y010408*
G37*
G36*
X0082D02*
X008107Y010396D01*
X008021Y01036*
X007947Y010303*
X00789Y010229*
X007854Y010143*
X007842Y01005*
X007854Y009957*
X00789Y009871*
X007947Y009797*
X008021Y00974*
X008107Y009704*
X0082Y009692*
X008293Y009704*
X008379Y00974*
X008453Y009797*
X00851Y009871*
X008546Y009957*
X008558Y01005*
X008546Y010143*
X00851Y010229*
X008453Y010303*
X008379Y01036*
X008293Y010396*
X0082Y010408*
G37*
G36*
X003315Y010093D02*
X002896D01*
X002478*
X002484Y010061*
X00253Y009992*
X002559Y009973*
Y009949*
X002521Y009893*
X002508Y009828*
X002521Y009762*
X002547Y009723*
X002525Y009673*
X00205*
X001984Y00966*
X001927Y009623*
X001651Y009347*
X001605Y009366*
Y009455*
X000895*
Y008745*
X001605*
Y008927*
X00165*
X001716Y00894*
X001773Y008977*
X002122Y009327*
X002504*
X00253Y009277*
X002521Y009263*
X002508Y009198*
X002521Y009132*
X002559Y009076*
X002614Y009039*
X00268Y009026*
X002888*
X002896Y009024*
X003298*
X003314Y009002*
X003322Y008978*
X003289Y008929*
X003276Y008863*
Y008655*
X003274Y008646*
Y008273*
X00255*
X002484Y00826*
X002427Y008223*
X00239Y008166*
X002377Y0081*
X00239Y008034*
X002427Y007977*
X002484Y00794*
X00255Y007927*
X003016*
X003035Y00788*
X003027Y007873*
X00299Y007816*
X002977Y00775*
Y0072*
X00299Y007134*
X003027Y007077*
X003084Y00704*
X00315Y007027*
X003216Y00704*
X003224Y007045*
X003274Y007018*
Y006704*
X003276Y006695*
Y006487*
X003289Y006421*
X003326Y006366*
X003382Y006328*
X003448Y006315*
X003513Y006328*
X003569Y006366*
X00358Y006382*
X00363*
X003641Y006366*
X003697Y006328*
X003763Y006315*
X003828Y006328*
X003884Y006366*
X003908*
X003927Y006337*
X003996Y006291*
X004028Y006285*
Y006704*
Y007122*
X003996Y007116*
X003976Y007103*
X003925Y007129*
X003923Y007204*
X003908Y00727*
X003869Y007326*
X003812Y007362*
X003746Y007373*
X00368Y007358*
X003671Y007352*
X003621Y007378*
Y007526*
X003865Y00777*
X003905Y007763*
X003921Y007756*
X003955Y007705*
X004011Y007667*
X004078Y007654*
X004144Y007667*
X0042Y007705*
X004238Y007761*
X004251Y007828*
Y007888*
X004301Y007914*
X004326Y007897*
X004393Y007884*
X004459Y007897*
X004461Y007899*
X004462*
X004484Y007914*
X004534Y007887*
Y007857*
X004547Y007791*
X004585Y007735*
X004641Y007697*
X004707Y007684*
X004774Y007697*
X00483Y007735*
X004868Y007791*
X004881Y007857*
Y008262*
X004931Y008289*
X004957Y008271*
X005022Y008258*
X005088Y008271*
X005144Y008309*
X005155Y008325*
X005205*
X005216Y008309*
X005272Y008271*
X005337Y008258*
X005403Y008271*
X005459Y008309*
X00547Y008325*
X00552*
X005531Y008309*
X005587Y008271*
X005652Y008258*
X005718Y008271*
X005774Y008309*
X005811Y008364*
X005824Y00843*
Y008863*
X005811Y008929*
X005774Y008984*
X005718Y009021*
X005652Y009035*
X005587Y009021*
X005531Y008984*
X00552Y008968*
X00547*
X005459Y008984*
X005403Y009021*
X005337Y009035*
X005272Y009021*
X005216Y008984*
X005205Y008968*
X005155*
X005144Y008984*
X005088Y009021*
X005022Y009035*
X004957Y009021*
X004901Y008984*
X00489Y008968*
X00484*
X004829Y008984*
X004773Y009021*
X004707Y009035*
X004642Y009021*
X004586Y008984*
X004575Y008968*
X004525*
X004514Y008984*
X004458Y009021*
X004393Y009035*
X004327Y009021*
X004271Y008984*
X00426Y008968*
X00421*
X004199Y008984*
X004143Y009021*
X004078Y009035*
X004012Y009021*
X003986Y009004*
X003936Y009031*
Y009201*
X003942Y009208*
X00398Y009264*
X003993Y00933*
X00398Y009397*
X003959Y009428*
X003981Y009483*
X004016Y00949*
X004073Y009527*
X00411Y009584*
X004123Y00965*
X00411Y009716*
X004073Y009773*
X004016Y00981*
X00395Y009823*
X00375*
X003684Y00981*
X003627Y009773*
X003328Y009473*
X003282Y009497*
X003285Y009513*
X003271Y009578*
X003234Y009634*
X003218Y009645*
Y009695*
X003234Y009706*
X003271Y009762*
X003285Y009828*
X003271Y009893*
X003234Y009949*
Y009973*
X003263Y009992*
X003309Y010061*
X003315Y010093*
G37*
G36*
X01285Y009444D02*
Y0093D01*
X012994*
X012988Y009328*
X012944Y009394*
X012878Y009438*
X01285Y009444*
G37*
G36*
X01275D02*
X012722Y009438D01*
X012656Y009394*
X012612Y009328*
X012606Y0093*
X01275*
Y009444*
G37*
G36*
X012994Y0092D02*
X01285D01*
Y009056*
X012878Y009062*
X012944Y009106*
X012988Y009172*
X012994Y0092*
G37*
G36*
X01275D02*
X012606D01*
X012612Y009172*
X012656Y009106*
X012722Y009062*
X01275Y009056*
Y0092*
G37*
G36*
X0082Y009408D02*
X008107Y009396D01*
X008021Y00936*
X007947Y009303*
X00789Y009229*
X007854Y009143*
X007842Y00905*
X007854Y008957*
X00789Y008871*
X007947Y008797*
X008021Y00874*
X008107Y008704*
X0082Y008692*
X008293Y008704*
X008379Y00874*
X008453Y008797*
X00851Y008871*
X008546Y008957*
X008558Y00905*
X008546Y009143*
X00851Y009229*
X008453Y009303*
X008379Y00936*
X008293Y009396*
X0082Y009408*
G37*
G36*
X006622Y010722D02*
X006204D01*
X005785*
X005791Y010691*
X005837Y010622*
X005866Y010603*
Y010579*
X005828Y010523*
X005815Y010457*
X005828Y010392*
X005866Y010336*
Y010312*
X005837Y010293*
X005791Y010224*
X005785Y010193*
X006204*
Y010093*
X005785*
X005791Y010061*
X005837Y009992*
X005866Y009973*
Y009949*
X005828Y009893*
X005815Y009828*
X005828Y009762*
X005866Y009706*
X005882Y009695*
Y009645*
X005866Y009634*
X005828Y009578*
X005815Y009513*
X005828Y009447*
X005866Y009391*
X005882Y00938*
Y00933*
X005866Y009319*
X005828Y009263*
X005815Y009198*
X005828Y009132*
X005866Y009076*
X005921Y009039*
X005987Y009026*
X006195*
X006204Y009024*
X006381*
X00672Y008685*
X006721Y008683*
X00669Y008645*
X006689*
X006666Y00866*
X0066Y008673*
X006534Y00866*
X006477Y008623*
X00644Y008566*
X006427Y0085*
X00644Y008434*
X006477Y008377*
X006777Y008078*
Y006372*
X006731Y006326*
X006204*
X006195Y006324*
X005987*
X005921Y006311*
X005866Y006274*
X005828Y006218*
X005815Y006152*
X005828Y006087*
X005866Y006031*
X005882Y00602*
Y00597*
X005866Y005959*
X005828Y005903*
X005815Y005837*
X005828Y005772*
X005866Y005716*
X005882Y005705*
Y005655*
X005866Y005644*
X005828Y005588*
X005815Y005522*
X005828Y005457*
X005866Y005401*
X005882Y00539*
Y00534*
X005866Y005329*
X005828Y005273*
X005815Y005207*
X005828Y005142*
X005866Y005086*
X005882Y005075*
Y005025*
X005866Y005014*
X005828Y004958*
X005815Y004893*
X005828Y004827*
X005866Y004771*
X005882Y00476*
Y00471*
X005866Y004699*
X005828Y004643*
X005815Y004578*
X005828Y004512*
X005846Y004486*
X005819Y004436*
X00525*
X005184Y004423*
X005127Y004385*
X00509Y004329*
X005077Y004263*
X00509Y004196*
X005127Y00414*
X005184Y004102*
X00525Y004089*
X005819*
X005846Y004039*
X005828Y004013*
X005815Y003948*
X005828Y003882*
X005866Y003826*
X005921Y003789*
X005987Y003776*
X006195*
X006204Y003774*
X006998*
X007064Y003787*
X00712Y003825*
X007123Y003827*
X00716Y003884*
X007173Y00395*
X00716Y004016*
X007123Y004073*
X007066Y00411*
X007Y004123*
X006988Y004121*
X006937*
X006916Y004171*
X007472Y004727*
X007887*
X00789Y004721*
X007947Y004647*
X007977Y004623*
X00796Y004573*
X00755*
X007484Y00456*
X007427Y004523*
X007277Y004373*
X00724Y004316*
X007227Y00425*
Y003422*
X006528Y002723*
X005922*
X005826Y002819*
Y003396*
X005824Y003405*
Y003613*
X005811Y003679*
X005774Y003734*
X005718Y003771*
X005652Y003785*
X005587Y003771*
X005531Y003734*
X00552Y003718*
X00547*
X005459Y003734*
X005403Y003771*
X005337Y003785*
X005272Y003771*
X005216Y003734*
X005205Y003718*
X005155*
X005144Y003734*
X005088Y003771*
X005022Y003785*
X004957Y003771*
X004901Y003734*
X004877*
X004858Y003763*
X004789Y003809*
X004757Y003815*
Y003396*
Y002978*
X004789Y002984*
X004858Y00303*
X004877Y003059*
X004901*
X004957Y003021*
X005022Y003008*
X005088Y003021*
X005114Y003039*
X005164Y003012*
Y002663*
X005177Y002596*
X005215Y00254*
X005271Y002502*
X005337Y002489*
X005404Y002502*
X00546Y00254*
X005494Y002591*
X00551Y002598*
X00555Y002605*
X005727Y002427*
X005784Y00239*
X00585Y002377*
X0066*
X006666Y00239*
X006723Y002427*
X007523Y003227*
X00756Y003284*
X007573Y00335*
Y004178*
X007622Y004227*
X00796*
X007977Y004177*
X007947Y004153*
X00789Y004079*
X007854Y003993*
X007842Y0039*
X007854Y003807*
X00789Y003721*
X007947Y003647*
X008021Y00359*
X008107Y003554*
X0082Y003542*
X008293Y003554*
X008379Y00359*
X008453Y003647*
X00851Y003721*
X008546Y003807*
X008558Y0039*
X008546Y003993*
X00851Y004079*
X008453Y004153*
X008423Y004177*
X00844Y004227*
X0087*
X008766Y00424*
X008797Y00426*
X008845Y004232*
Y004216*
Y003545*
X009555*
Y004255*
X008885*
X008871*
X00885Y004305*
X009101Y004556*
X009107Y004554*
X0092Y004542*
X009293Y004554*
X009379Y00459*
X009453Y004647*
X00951Y004721*
X009546Y004807*
X009558Y0049*
X009546Y004993*
X00951Y005079*
X009453Y005153*
X009379Y00521*
X009293Y005246*
X0092Y005258*
X009107Y005246*
X009021Y00521*
X008947Y005153*
X00889Y005079*
X008854Y004993*
X008842Y0049*
X008854Y004807*
X008856Y004801*
X008628Y004573*
X00844*
X008423Y004623*
X008453Y004647*
X00851Y004721*
X008546Y004807*
X008558Y0049*
X008546Y004993*
X00851Y005079*
X008453Y005153*
X008379Y00521*
X008293Y005246*
X0082Y005258*
X008107Y005246*
X008021Y00521*
X007947Y005153*
X00789Y005079*
X007887Y005073*
X0074*
X007334Y00506*
X007277Y005023*
X006691Y004436*
X006588*
X006561Y004486*
X006579Y004512*
X006592Y004578*
X006579Y004643*
X006541Y004699*
X006525Y00471*
Y00476*
X006541Y004771*
X006579Y004827*
X006592Y004893*
X006579Y004958*
X006541Y005014*
X006525Y005025*
Y005075*
X006541Y005086*
X006579Y005142*
X006592Y005207*
X006579Y005273*
X006561Y005299*
X006588Y005349*
X007072*
X007139Y005362*
X007195Y0054*
X007223Y005427*
X00726Y005484*
X007273Y00555*
X00726Y005616*
X007223Y005673*
X007172Y005706*
X007159Y005735*
X007152Y005757*
X007323Y005927*
X00736Y005984*
X007373Y00605*
Y00657*
X007423Y006597*
X007434Y00659*
X0075Y006577*
X00865*
X008716Y00659*
X008773Y006627*
X00881Y006684*
X008823Y00675*
X00881Y006816*
X008773Y006873*
X008716Y00691*
X00865Y006923*
X0075*
X007434Y00691*
X007423Y006903*
X007373Y00693*
Y00747*
X007423Y007497*
X007434Y00749*
X0075Y007477*
X007566Y00749*
X007623Y007527*
X008272Y008177*
X0085*
X008566Y00819*
X008623Y008227*
X00909Y008695*
X009555*
Y009405*
X008845*
Y00894*
X008428Y008523*
X0082*
X008134Y00851*
X008077Y008473*
X007423Y007818*
X007373Y007839*
Y00895*
X00736Y009016*
X007323Y009073*
X00676Y009635*
X006748Y009643*
Y009703*
X00675Y009705*
X007373Y010327*
X00741Y010384*
X007423Y01045*
X00741Y010516*
X007373Y010573*
X007365Y01058*
X007309Y010618*
X007243Y010631*
X006629*
X006605Y010675*
X006616Y010691*
X006622Y010722*
G37*
G36*
X024019Y008753D02*
X023074D01*
Y00825*
X024019*
Y008753*
G37*
G36*
X022974D02*
X022028D01*
Y00825*
X022974*
Y008753*
G37*
G36*
X01155Y008094D02*
Y00795D01*
X011694*
X011688Y007978*
X011644Y008044*
X011578Y008088*
X01155Y008094*
G37*
G36*
X01145D02*
X011422Y008088D01*
X011356Y008044*
X011312Y007978*
X011306Y00795*
X01145*
Y008094*
G37*
G36*
X011694Y00785D02*
X01155D01*
Y007706*
X011578Y007712*
X011644Y007756*
X011688Y007822*
X011694Y00785*
G37*
G36*
X01145D02*
X011306D01*
X011312Y007822*
X011356Y007756*
X011422Y007712*
X01145Y007706*
Y00785*
G37*
G36*
X024019Y00815D02*
X023074D01*
Y007647*
X024019*
Y00815*
G37*
G36*
X022974D02*
X022028D01*
Y007647*
X022974*
Y00815*
G37*
G36*
X0052Y008073D02*
X005134Y00806D01*
X005077Y008023*
X00504Y007966*
X005027Y0079*
X00504Y007834*
X005077Y007777*
X005165Y00769*
X005159Y007638*
X005152Y007632*
X005114Y007616*
X005089Y007633*
X005022Y007646*
X004872*
X004806Y007633*
X00475Y007595*
X00427Y007115*
X004262Y007103*
X004195Y007092*
X004159Y007116*
X004128Y007122*
Y006704*
Y006285*
X004159Y006291*
X004228Y006337*
X004247Y006366*
X004271*
X004327Y006328*
X004393Y006315*
X004458Y006328*
X004514Y006366*
X004538*
X004557Y006337*
X004626Y006291*
X004657Y006285*
Y006704*
X004757*
Y006285*
X004789Y006291*
X004858Y006337*
X004877Y006366*
X004901*
X004957Y006328*
X005022Y006315*
X005088Y006328*
X005144Y006366*
X005155Y006382*
X005205*
X005216Y006366*
X005272Y006328*
X005337Y006315*
X005403Y006328*
X005459Y006366*
X00547Y006382*
X00552*
X005531Y006366*
X005587Y006328*
X005652Y006315*
X005718Y006328*
X005774Y006366*
X005811Y006421*
X005824Y006487*
Y006695*
X005826Y006704*
X005824Y006712*
Y00692*
X005811Y006986*
X005784Y007027*
X005803Y007073*
X005806Y007077*
X006078*
X006127Y007028*
Y0066*
X00614Y006534*
X006177Y006477*
X006234Y00644*
X0063Y006427*
X006366Y00644*
X006423Y006477*
X00646Y006534*
X006473Y0066*
Y0071*
X00646Y007166*
X006423Y007223*
X006273Y007373*
X006216Y00741*
X00615Y007423*
X0057*
X005634Y00741*
X005577Y007373*
X005557Y007352*
X005511Y007371*
Y007566*
X005523Y007577*
X00556Y007634*
X005573Y0077*
X00556Y007766*
X005523Y007823*
X005323Y008023*
X005266Y00806*
X0052Y008073*
G37*
G36*
X00075Y007663D02*
X000656Y007651D01*
X000568Y007614*
X000493Y007557*
X000436Y007482*
X000399Y007394*
X000387Y0073*
X000399Y007206*
X000436Y007118*
X000493Y007043*
X000568Y006986*
X000656Y006949*
X00075Y006937*
X000844Y006949*
X000932Y006986*
X001007Y007043*
X001064Y007118*
X001101Y007206*
X001113Y0073*
X001101Y007394*
X001064Y007482*
X001007Y007557*
X000932Y007614*
X000844Y007651*
X00075Y007663*
G37*
G36*
X00825Y006292D02*
Y00595D01*
X008592*
X008585Y006003*
X008545Y006099*
X008482Y006182*
X008399Y006245*
X008303Y006285*
X00825Y006292*
G37*
G36*
X00815D02*
X008097Y006285D01*
X008001Y006245*
X007918Y006182*
X007855Y006099*
X007815Y006003*
X007808Y00595*
X00815*
Y006292*
G37*
G36*
X008592Y00585D02*
X00825D01*
Y005508*
X008303Y005515*
X008399Y005555*
X008482Y005618*
X008545Y005701*
X008585Y005797*
X008592Y00585*
G37*
G36*
X00815D02*
X007808D01*
X007815Y005797*
X007855Y005701*
X007918Y005618*
X008001Y005555*
X008097Y005515*
X00815Y005508*
Y00585*
G37*
G36*
X01378Y007347D02*
X013616Y007334D01*
X013456Y007295*
X013304Y007233*
X013164Y007147*
X013039Y00704*
X012932Y006915*
X012846Y006775*
X012783Y006623*
X012745Y006463*
X012732Y006299*
X012745Y006135*
X012783Y005976*
X012846Y005824*
X012932Y005684*
X013039Y005559*
X013164Y005452*
X013304Y005366*
X013456Y005303*
X013616Y005265*
X01378Y005252*
X013943Y005265*
X014103Y005303*
X014255Y005366*
X014395Y005452*
X01452Y005559*
X014627Y005684*
X014713Y005824*
X014776Y005976*
X014814Y006135*
X014827Y006299*
X014814Y006463*
X014776Y006623*
X014713Y006775*
X014627Y006915*
X01452Y00704*
X014395Y007147*
X014255Y007233*
X014103Y007295*
X013943Y007334*
X01378Y007347*
G37*
G36*
X024019Y005103D02*
X023074D01*
Y0046*
X024019*
Y005103*
G37*
G36*
X022974D02*
X022028D01*
Y0046*
X022974*
Y005103*
G37*
G36*
X024019Y0045D02*
X023074D01*
Y003997*
X024019*
Y0045*
G37*
G36*
X022974D02*
X022028D01*
Y003997*
X022974*
Y0045*
G37*
G36*
X00075Y004663D02*
X000656Y004651D01*
X000568Y004614*
X000493Y004557*
X000436Y004482*
X000399Y004394*
X000387Y0043*
X000399Y004206*
X000436Y004118*
X000493Y004043*
X000568Y003986*
X000656Y003949*
X00075Y003937*
X000844Y003949*
X000932Y003986*
X001007Y004043*
X001064Y004118*
X001101Y004206*
X001113Y0043*
X001101Y004394*
X001064Y004482*
X001007Y004557*
X000932Y004614*
X000844Y004651*
X00075Y004663*
G37*
G36*
X002Y006973D02*
X001934Y00696D01*
X001877Y006923*
X00184Y006866*
X001827Y0068*
Y0065*
X00184Y006434*
X001877Y006377*
X002225Y00603*
X002281Y005992*
X002348Y005979*
X002512*
X002539Y005929*
X002521Y005903*
X002508Y005837*
X002521Y005772*
X002559Y005716*
X002575Y005705*
Y005655*
X002559Y005644*
X002521Y005588*
X002508Y005522*
X002521Y005457*
X002559Y005401*
X002575Y00539*
Y00534*
X002559Y005329*
X002521Y005273*
X002508Y005207*
X002521Y005142*
X002539Y005116*
X002512Y005066*
X00236*
X002293Y005053*
X002237Y005015*
X001777Y004555*
X00174Y004499*
X001727Y004433*
Y00285*
X00174Y002784*
X001777Y002727*
X001877Y002628*
X001852Y002582*
X001739Y002609*
X001575Y002622*
X001411Y002609*
X001251Y002571*
X001099Y002508*
X000959Y002422*
X000834Y002315*
X000727Y002191*
X000641Y00205*
X000579Y001898*
X00054Y001739*
X000527Y001575*
X00054Y001411*
X000579Y001251*
X000641Y001099*
X000727Y000959*
X000834Y000834*
X000959Y000727*
X001099Y000641*
X001251Y000579*
X001411Y00054*
X001575Y000527*
X001739Y00054*
X001898Y000579*
X00205Y000641*
X002191Y000727*
X002315Y000834*
X002422Y000959*
X002508Y001099*
X002527Y001144*
X002577Y001134*
Y001*
X00259Y000934*
X002627Y000877*
X003227Y000277*
X003284Y00024*
X00335Y000227*
X01025*
X010316Y00024*
X010373Y000277*
X012601Y002506*
X012607Y002504*
X0127Y002492*
X012793Y002504*
X012879Y00254*
X012953Y002597*
X01301Y002671*
X013046Y002757*
X013058Y00285*
X013046Y002943*
X01301Y003029*
X012953Y003103*
X012879Y00316*
X012793Y003196*
X0127Y003208*
X012607Y003196*
X012521Y00316*
X012447Y003103*
X01239Y003029*
X012354Y002943*
X012342Y00285*
X012354Y002757*
X012356Y002751*
X010178Y000573*
X009734*
X009715Y00062*
X011601Y002506*
X011607Y002504*
X0117Y002492*
X011793Y002504*
X011879Y00254*
X011953Y002597*
X01201Y002671*
X012046Y002757*
X012058Y00285*
X012046Y002943*
X01201Y003029*
X011953Y003103*
X011879Y00316*
X011793Y003196*
X0117Y003208*
X011607Y003196*
X011521Y00316*
X011447Y003103*
X01139Y003029*
X011354Y002943*
X011342Y00285*
X011354Y002757*
X011356Y002751*
X009378Y000773*
X003733*
X003724Y000823*
X003799Y000855*
X003882Y000918*
X003945Y001001*
X003985Y001097*
X003992Y00115*
X0036*
Y0012*
X00355*
Y001592*
X003497Y001585*
X003401Y001545*
X003318Y001482*
X003255Y001399*
X003215Y001303*
X003209Y001257*
X00316Y001241*
X003123Y001272*
Y00225*
X00311Y002316*
X003073Y002373*
X002273Y003172*
Y004278*
X002399Y004404*
X002512*
X002539Y004354*
X002521Y004328*
X002508Y004263*
X002521Y004197*
X002559Y004141*
X002575Y00413*
Y00408*
X002559Y004069*
X002521Y004013*
X002508Y003948*
X002521Y003882*
X002559Y003826*
X002614Y003789*
X00268Y003776*
X003113*
X003179Y003789*
X003234Y003826*
X003271Y003882*
X003285Y003948*
X003271Y004013*
X003234Y004069*
X003218Y00408*
Y00413*
X003234Y004141*
X003271Y004197*
X003285Y004263*
X003271Y004328*
X003234Y004384*
X003218Y004395*
Y004445*
X003234Y004456*
X003271Y004512*
X003285Y004578*
X003271Y004643*
X003234Y004699*
X003218Y00471*
Y00476*
X003234Y004771*
X003271Y004827*
X003285Y004893*
X003271Y004958*
X003254Y004984*
X003281Y005034*
X005293*
X005359Y005047*
X005415Y005085*
X005453Y005141*
X005466Y005207*
X005453Y005274*
X005415Y00533*
X005359Y005368*
X005293Y005381*
X004847*
X004826Y005431*
X00483Y005435*
X004868Y005491*
X004881Y005557*
X004868Y005624*
X00483Y00568*
X004774Y005718*
X004707Y005731*
X004641Y005718*
X004608Y005696*
X004512*
X004491Y005746*
X004523Y005777*
X00456Y005834*
X004573Y0059*
X00456Y005966*
X004523Y006023*
X004466Y00606*
X0044Y006073*
X004334Y00606*
X004277Y006023*
X004266Y006011*
X003281*
X003254Y006061*
X003271Y006087*
X003285Y006152*
X003271Y006218*
X003234Y006274*
X003179Y006311*
X003113Y006324*
X002905*
X002896Y006326*
X002419*
X002173Y006572*
Y0068*
X00216Y006866*
X002123Y006923*
X002066Y00696*
X002Y006973*
G37*
G36*
X004657Y003815D02*
X004626Y003809D01*
X004557Y003763*
X004543*
X004474Y003809*
X004443Y003815*
Y003396*
Y002978*
X004474Y002984*
X004543Y00303*
X004557*
X004626Y002984*
X004657Y002978*
Y003396*
Y003815*
G37*
G36*
X004343D02*
X004311Y003809D01*
X004242Y003763*
X004223Y003734*
X004199*
X004143Y003771*
X004078Y003785*
X004012Y003771*
X003956Y003734*
X003945Y003718*
X003895*
X003884Y003734*
X003828Y003771*
X003763Y003785*
X003697Y003771*
X003641Y003734*
X00363Y003718*
X00358*
X003569Y003734*
X003513Y003771*
X003448Y003785*
X003382Y003771*
X003326Y003734*
X003289Y003679*
X003276Y003613*
Y00318*
X003289Y003114*
X003326Y003059*
X003382Y003021*
X003448Y003008*
X003513Y003021*
X003539Y003039*
X003589Y003012*
Y002463*
X003577Y0024*
X00359Y002334*
X003627Y002277*
X003684Y00224*
X00375Y002227*
X003816Y00224*
X003873Y002277*
X003885Y00229*
X003923Y002346*
X003936Y002413*
Y003012*
X003986Y003039*
X004012Y003021*
X004078Y003008*
X004143Y003021*
X004199Y003059*
X004223*
X004242Y00303*
X004311Y002984*
X004343Y002978*
Y003396*
Y003815*
G37*
G36*
X01375Y003242D02*
Y0029D01*
X014092*
X014085Y002953*
X014045Y003049*
X013982Y003132*
X013899Y003195*
X013803Y003235*
X01375Y003242*
G37*
G36*
X01365D02*
X013597Y003235D01*
X013501Y003195*
X013418Y003132*
X013355Y003049*
X013315Y002953*
X013308Y0029*
X01365*
Y003242*
G37*
G36*
X016055Y003205D02*
X015345D01*
Y002495*
X016055*
Y003205*
G37*
G36*
X0147Y003208D02*
X014607Y003196D01*
X014521Y00316*
X014447Y003103*
X01439Y003029*
X014354Y002943*
X014342Y00285*
X014354Y002757*
X01439Y002671*
X014447Y002597*
X014521Y00254*
X014607Y002504*
X0147Y002492*
X014793Y002504*
X014879Y00254*
X014953Y002597*
X01501Y002671*
X015046Y002757*
X015058Y00285*
X015046Y002943*
X01501Y003029*
X014953Y003103*
X014879Y00316*
X014793Y003196*
X0147Y003208*
G37*
G36*
X014092Y0028D02*
X01375D01*
Y002458*
X013803Y002465*
X013899Y002505*
X013982Y002568*
X014045Y002651*
X014085Y002747*
X014092Y0028*
G37*
G36*
X01365D02*
X013308D01*
X013315Y002747*
X013355Y002651*
X013418Y002568*
X013501Y002505*
X013597Y002465*
X01365Y002458*
Y0028*
G37*
G36*
X00485Y002873D02*
X004524D01*
X004458Y00286*
X004402Y002823*
X004372Y002793*
X004163*
Y002358*
X004637*
Y002527*
X00485*
X004916Y00254*
X004973Y002577*
X00501Y002634*
X005023Y0027*
X00501Y002766*
X004973Y002823*
X004916Y00286*
X00485Y002873*
G37*
G36*
X0187Y001692D02*
Y00135D01*
X019042*
X019035Y001403*
X018995Y001499*
X018932Y001582*
X018849Y001645*
X018753Y001685*
X0187Y001692*
G37*
G36*
X0186D02*
X018547Y001685D01*
X018451Y001645*
X018368Y001582*
X018305Y001499*
X018265Y001403*
X018258Y00135*
X0186*
Y001692*
G37*
G36*
X00365Y001592D02*
Y00125D01*
X003992*
X003985Y001303*
X003945Y001399*
X003882Y001482*
X003799Y001545*
X003703Y001585*
X00365Y001592*
G37*
G36*
X021005Y001655D02*
X020295D01*
Y000945*
X021005*
Y001655*
G37*
G36*
X01965Y001658D02*
X019557Y001646D01*
X019471Y00161*
X019397Y001553*
X01934Y001479*
X019304Y001393*
X019292Y0013*
X019304Y001207*
X01934Y001121*
X019397Y001047*
X019471Y00099*
X019557Y000954*
X01965Y000942*
X019743Y000954*
X019829Y00099*
X019903Y001047*
X01996Y001121*
X019996Y001207*
X020008Y0013*
X019996Y001393*
X01996Y001479*
X019903Y001553*
X019829Y00161*
X019743Y001646*
X01965Y001658*
G37*
G36*
X019042Y00125D02*
X0187D01*
Y000908*
X018753Y000915*
X018849Y000955*
X018932Y001018*
X018995Y001101*
X019035Y001197*
X019042Y00125*
G37*
G36*
X0186D02*
X018258D01*
X018265Y001197*
X018305Y001101*
X018368Y001018*
X018451Y000955*
X018547Y000915*
X0186Y000908*
Y00125*
G37*
G36*
X005955Y001555D02*
X005245D01*
Y000845*
X005955*
Y001555*
G37*
G36*
X004637Y002242D02*
X004163D01*
Y001807*
X004227*
Y0014*
X00424Y001334*
X004259Y001305*
X004254Y001293*
X004242Y0012*
X004254Y001107*
X00429Y001021*
X004347Y000947*
X004421Y00089*
X004507Y000854*
X0046Y000842*
X004693Y000854*
X004779Y00089*
X004853Y000947*
X00491Y001021*
X004946Y001107*
X004958Y0012*
X004946Y001293*
X00491Y001379*
X004853Y001453*
X004779Y00151*
X004693Y001546*
X0046Y001558*
X004573Y001582*
Y001807*
X004637*
Y002242*
G37*
G36*
X025984Y002622D02*
X02582Y002609D01*
X025661Y002571*
X025509Y002508*
X025369Y002422*
X025244Y002315*
X025137Y002191*
X025051Y00205*
X024988Y001898*
X02495Y001739*
X024937Y001575*
X02495Y001411*
X024988Y001251*
X025051Y001099*
X025137Y000959*
X025244Y000834*
X025369Y000727*
X025509Y000641*
X025661Y000579*
X02582Y00054*
X025984Y000527*
X026148Y00054*
X026308Y000579*
X02646Y000641*
X0266Y000727*
X026725Y000834*
X026832Y000959*
X026918Y001099*
X02698Y001251*
X027019Y001411*
X027032Y001575*
X027019Y001739*
X02698Y001898*
X026918Y00205*
X026832Y002191*
X026725Y002315*
X0266Y002422*
X02646Y002508*
X026308Y002571*
X026148Y002609*
X025984Y002622*
G37*
G36*
X026972Y008753D02*
X026026D01*
Y00825*
X026972*
Y008753*
G37*
G36*
X025926D02*
X024981D01*
Y00825*
X025926*
Y008753*
G37*
G36*
X026972Y00815D02*
X026026D01*
Y007647*
X026972*
Y00815*
G37*
G36*
X025926D02*
X024981D01*
Y007647*
X025926*
Y00815*
G37*
G36*
X02675Y006847D02*
Y0065D01*
X027097*
X02709Y006554*
X027049Y006652*
X026985Y006735*
X026902Y006799*
X026804Y00684*
X02675Y006847*
G37*
G36*
X02665D02*
X026596Y00684D01*
X026498Y006799*
X026415Y006735*
X026351Y006652*
X02631Y006554*
X026303Y0065*
X02665*
Y006847*
G37*
G36*
X027097Y0064D02*
X02675D01*
Y006053*
X026804Y00606*
X026902Y006101*
X026985Y006165*
X027049Y006248*
X02709Y006346*
X027097Y0064*
G37*
G36*
X02665D02*
X026303D01*
X02631Y006346*
X026351Y006248*
X026415Y006165*
X026498Y006101*
X026596Y00606*
X02665Y006053*
Y0064*
G37*
G36*
X026972Y005103D02*
X026026D01*
Y0046*
X026972*
Y005103*
G37*
G36*
X025926D02*
X024981D01*
Y0046*
X025926*
Y005103*
G37*
G36*
X026972Y0045D02*
X026026D01*
Y003997*
X026972*
Y0045*
G37*
G36*
X025926D02*
X024981D01*
Y003997*
X025926*
Y0045*
G37*
%LNskateboardpcb-3*%
%LPD*%
G54D10*
X0044Y002024D03*
Y002576D03*
X0153Y011326D03*
Y010774D03*
X01455Y011326D03*
Y010774D03*
X01605Y011326D03*
Y010774D03*
G54D19*
X0075Y00675D02*
X00865D01*
X005337Y007637D02*
X0054Y0077D01*
X005337Y006704D02*
Y007637D01*
X0052Y0079D02*
X0054Y0077D01*
X0056Y006756D02*
X005652Y006704D01*
X0056Y006756D02*
Y00715D01*
X0057Y00725*
X00615*
X0063Y0071*
Y0066D02*
Y0071D01*
X010211Y01285D02*
X010251Y01289D01*
X00805Y01285D02*
X010211D01*
X010251Y01289D02*
X02316D01*
X01025Y0004D02*
X0127Y00285D01*
X00945Y0006D02*
X0117Y00285D01*
X01385Y01055D02*
Y0109D01*
X014276Y011326*
X01455*
X0153D02*
Y012178D01*
X01605Y01175D02*
X0165Y0122D01*
X01605Y011326D02*
Y01175D01*
X012976Y00845D02*
X0153Y010774D01*
X01115Y00845D02*
X012976D01*
X004078Y007828D02*
Y008646D01*
X002Y0065D02*
Y0068D01*
Y0065D02*
X002348Y006152D01*
X002896*
X004393Y008057D02*
Y008646D01*
X002896Y005837D02*
X004337D01*
X0044Y0059*
X004707Y007857D02*
Y008646D01*
X002896Y005522D02*
X004672D01*
X004707Y005557*
X003763Y007913D02*
Y008646D01*
X003448Y007598D02*
X003763Y007913D01*
X003448Y006704D02*
Y007598D01*
X00375Y0072D02*
X003763Y006704D01*
X00315Y0072D02*
Y00775D01*
X003448Y008048*
Y008646*
X006204Y006152D02*
X006802D01*
X00695Y0063*
Y00815*
X0066Y0085D02*
X00695Y00815D01*
X006204Y009513D02*
X006637D01*
X0072Y00895*
Y00605D02*
Y00895D01*
X006987Y005837D02*
X0072Y00605D01*
X006204Y005837D02*
X006987D01*
X006204Y009198D02*
X006452D01*
X00685Y0088*
X006204Y005522D02*
X007072D01*
X0071Y00555*
X004707Y011954D02*
Y012307D01*
X0051Y0127*
X00755*
X0092Y01105*
X002884Y0095D02*
X002896Y009513D01*
X003763Y008646D02*
Y009273D01*
X00382Y00933*
X0092Y01105D02*
X00995Y0103D01*
Y00665D02*
Y0103D01*
X0092Y0059D02*
X00995Y00665D01*
X002896Y005207D02*
X005293D01*
X0091Y0049D02*
X0092D01*
X0087Y0044D02*
X0092Y0049D01*
X00755Y0044D02*
X0087D01*
X00585Y00255D02*
X0066D01*
X005652Y002748D02*
X00585Y00255D01*
X005652Y002748D02*
Y003396D01*
X006204Y004263D02*
X006763D01*
X0074Y0049*
X0082*
X0066Y00255D02*
X0074Y00335D01*
Y00425*
X00755Y0044*
X006204Y003948D02*
X006998D01*
X007Y00395*
X003395Y0081D02*
X003448Y008048D01*
X00255Y0081D02*
X003395D01*
X0075Y00765D02*
X0082Y00835D01*
X0085*
X0092Y00905*
X001263Y011087D02*
X002896D01*
X00125Y0111D02*
X001263Y011087D01*
X00125Y0091D02*
X00165D01*
X00205Y0095*
X002884*
X003763Y002413D02*
Y003396D01*
X00375Y0024D02*
X003763Y002413D01*
X00525Y004263D02*
X006204D01*
X004524Y0027D02*
X00485D01*
X0044Y002576D02*
X004524Y0027D01*
X0044Y0014D02*
Y002024D01*
Y0014D02*
X0046Y0012D01*
X002328Y004578D02*
X002896D01*
X0021Y00435D02*
X002328Y004578D01*
X00236Y004893D02*
X002896D01*
X0021Y0031D02*
Y00435D01*
Y0031D02*
X00295Y00225D01*
Y0012D02*
Y00225D01*
Y0012D02*
X00355Y0006D01*
X00945*
X00335Y0004D02*
X01025D01*
X0019Y004433D02*
X00236Y004893D01*
X0019Y00285D02*
Y004433D01*
Y00285D02*
X00275Y002D01*
Y001D02*
Y002D01*
Y001D02*
X00335Y0004D01*
X005022Y006704D02*
Y007472D01*
X004393Y006704D02*
Y006993D01*
X004872Y007472*
X005022*
X005337Y002663D02*
Y003396D01*
X006204Y009828D02*
X006628D01*
X00725Y01045*
X006204Y010457D02*
X007243D01*
X00725Y01045*
X02316Y01289D02*
X02345Y0126D01*
X002896Y009198D02*
X003298D01*
X00375Y00965*
X00395*
G54D20*
X0153Y011326D02*
D01*
G54D23*
X00865Y00675D03*
X0075D03*
X0063Y0066D03*
X0052Y0079D03*
X00805Y01285D03*
X0153Y012178D03*
X0165Y0122D03*
X01385Y01055D03*
X01115Y00845D03*
X0128Y00925D03*
X0044Y00805D03*
Y0059D03*
X004707Y007857D03*
Y005557D03*
X002Y0068D03*
X004078Y007828D03*
X00375Y0072D03*
X00315D03*
X0066Y0085D03*
X00395Y00965D03*
X00685Y0088D03*
X0071Y00555D03*
X0038Y00935D03*
X005293Y005207D03*
X007Y00395D03*
X00255Y0081D03*
X0075Y00765D03*
X0115Y0079D03*
X00375Y0024D03*
X00525Y004263D03*
X00485Y0027D03*
X005022Y007472D03*
X005337Y002663D03*
X00725Y01045D03*
X00685Y01175D03*
G54D24*
X0157Y00285D03*
X02095Y01035D03*
X00325Y01265D03*
X02345Y0126D03*
X0056Y0012D03*
X02065Y0013D03*
G54D25*
X0147Y00285D03*
X0137D03*
X0127D03*
X0117D03*
X0082Y01105D03*
X0092D03*
X0082Y01005D03*
X0092D03*
X0082Y00905D03*
Y0059D03*
X0092D03*
X0082Y0049D03*
X0092D03*
X0082Y0039D03*
X02195Y01035D03*
X00425Y01265D03*
X02445Y0126D03*
X00125Y0111D03*
Y0101D03*
X0036Y0012D03*
X0046D03*
X01865Y0013D03*
X01965D03*
X010427Y012465D03*
X012573D03*
G54D26*
X0092Y00905D03*
Y0039D03*
X00125Y0091D03*
G54D27*
X0267Y00645D03*
X01875Y0118D03*
X02175D03*
X00075Y0043D03*
Y0073D03*
G54D28*
X025984Y001575D03*
Y011417D03*
X001575Y001575D03*
X01378Y006299D03*
G54D29*
X012455Y011272D03*
X010545D03*
G54D30*
X012612Y011272D03*
X010388D03*
G54D31*
X023024Y0082D03*
X025976D03*
Y00455D03*
X023024D03*
G54D32*
X005652Y011954D03*
X005337D03*
X005022D03*
X004707D03*
X004393D03*
X004078D03*
X003763D03*
X003448D03*
Y008646D03*
X003763D03*
X004078D03*
X004393D03*
X004707D03*
X005022D03*
X005337D03*
X005652D03*
X003448Y003396D03*
X003763D03*
X004078D03*
X004393D03*
X004707D03*
X005022D03*
X005337D03*
X005652D03*
Y006704D03*
X005337D03*
X005022D03*
X004707D03*
X004393D03*
X004078D03*
X003763D03*
X003448D03*
G54D33*
X002896Y011402D03*
Y011087D03*
Y010772D03*
Y010457D03*
Y010143D03*
Y009828D03*
Y009513D03*
Y009198D03*
X006204D03*
Y009513D03*
Y009828D03*
Y010143D03*
Y010457D03*
Y010772D03*
Y011087D03*
Y011402D03*
X002896Y006152D03*
Y005837D03*
Y005522D03*
Y005207D03*
Y004893D03*
Y004578D03*
Y004263D03*
Y003948D03*
X006204D03*
Y004263D03*
Y004578D03*
Y004893D03*
Y005207D03*
Y005522D03*
Y005837D03*
Y006152D03*
M02*